<svg width="182.9mm" height="57.581mm" version="1.1" viewBox="0 0 182.9 57.581" xmlns="http://www.w3.org/2000/svg">
 <g transform="translate(-13.794 -73.416)">
  <path d="m13.985 125.11c0.14645-4.5022 0.27987-5.9852 0.56722-6.3047 0.20665-0.22974 0.37573-0.85482 0.37573-1.3891 0-0.85419 0.07812-0.97135 0.64763-0.97135 0.59472 0 0.65416-0.11348 0.7276-1.3891l0.07997-1.3891h4.4979l0.07877-1.6536 0.07877-1.6536h2.8852v-5.4061c0-5.1738 0.02275-5.4134 0.52917-5.5741 0.49905-0.15839 0.52917-0.40032 0.52917-4.2512 0-3.4531 0.06124-4.0832 0.39688-4.0832 0.27718 0 0.39688-0.27929 0.39688-0.92605 0-0.50932 0.0893-0.92679 0.19844-0.92771 0.10914-7.9e-4 0.387-0.33326 0.61747-0.73854 0.48978-0.86129 2.9581-1.7346 4.9706-1.7587l1.225-0.0146 0.08067 1.5875c0.04437 0.87313 0.1932 1.7006 0.33073 1.8388 0.1493 0.15008 0.25006 4.8676 0.25006 11.708 0 11.152 0.01363 11.456 0.51194 11.456 0.70769 0 1.951-0.49775 2.1836-0.87424 0.14676-0.23747 0.27126-0.23351 0.52132 0.0166 0.58167 0.58166 0.75185 0.35658 0.75185-0.99441 0-0.99954 0.09701-1.3229 0.39688-1.3229 0.33195 0 0.39712-0.55187 0.39835-3.3734 0.0016-3.8884 0.29496-5.3578 1.0693-5.3578 0.2842 0 0.51673-0.12757 0.51673-0.28349 0-0.15591 0.1652-0.44869 0.36712-0.6506 0.29659-0.29659 0.49953-0.30567 1.0563-0.0472 0.37903 0.17593 0.69008 0.43447 0.69121 0.57452 0.0011 0.14005 0.32949 0.51546 0.72967 0.83422l0.7276 0.57958 0.08521 3.9944 0.08521 3.9944h1.814v3.3073c0 2.0285 0.10231 3.3073 0.26458 3.3073 0.14552 0 0.26458 0.29766 0.26458 0.66146 0 0.55218 0.12568 0.66146 0.76068 0.66146 0.64029 0 0.78685-0.13086 0.92604-0.82682 0.09095-0.45476 0.16536-1.2287 0.16536-1.7198 0-0.84414 0.05063-0.89296 0.92604-0.89296 0.64676 0 0.92604-0.1197 0.92604-0.39688 0-0.21828 0.11906-0.39687 0.26458-0.39687 0.16934 0 0.26458-2.3832 0.26458-6.6203v-6.6203l1.3229-0.60276v-5.2314c0-4.999 0.02349-5.2388 0.52917-5.3993 0.49697-0.15773 0.52917-0.40033 0.52917-3.9866 0-2.3694 0.10042-3.8186 0.26458-3.8186 0.15109 0 0.2854-0.93634 0.3131-2.1828l0.04852-2.1828 0.14992 2.1167 0.14992 2.1167 0.19844-1.6925c0.10914-0.93085 0.19844-2.5154 0.19844-3.5213 0-2.834 0.46152-1.8886 0.67332 1.3792 0.10368 1.5997 0.28116 2.9085 0.39441 2.9085s0.29201-1.6712 0.39725-3.7138 0.245-3.6602 0.31057-3.5946c0.10233 0.10233 0.33476 4.9571 0.33953 7.0916 0.0013 0.53343 0.14913 0.73016 0.5969 0.79375 0.58391 0.0829 0.59671 0.16184 0.66835 4.1194l0.07304 4.0349h0.65457c0.36001 0 0.65457 0.11906 0.65457 0.26458s0.17602 0.26458 0.39116 0.26458c0.32909 0 0.40256 0.80639 0.46302 5.0815l0.07186 5.0815 1.3229 0.31136 0.14781 9.1165c0.08129 5.0141 0.17059 9.1573 0.19844 9.2073 0.10739 0.19261 2.1309-0.16266 2.9227-0.51314l0.83206-0.36831v-6.1828l1.5214-0.19341c1.575-0.20024 2.9373-0.24755 4.6092-0.16007l0.97113 0.0508 0.19796 1.7859 0.19796 1.7859 0.33136-1.8521c0.18225-1.0186 0.34208-2.8046 0.35518-3.9688 0.0319-2.8352 0.25322-4.0957 0.68972-3.9282 0.21064 0.0808 0.37838-0.10699 0.4317-0.48335 0.06647-0.46918 0.33424-0.67654 1.1262-0.87207 0.7728-0.19081 1.0665-0.17386 1.1465 0.0662 0.20131 0.60393 1.0707 0.3419 1.3434-0.40493 0.14616-0.40018 0.27514-0.53313 0.28663-0.29544 0.01148 0.23768 0.25901 0.49443 0.55006 0.57054 0.32782 0.0857 0.52917 0.36089 0.52917 0.72317 0 0.45454 0.11787 0.55397 0.52917 0.44642 0.50609-0.13235 0.52917-8e-3 0.52917 2.8487v2.9871l1.6536 0.16049c3.8733 0.37591 3.9026 0.38631 3.9026 1.3842 0 0.8254 0.0656 0.89825 0.80888 0.89825 0.44488 0 1.3379-0.1332 1.9844-0.296l1.1755-0.29599v-3.9323c0-3.8678 0.0098-3.9342 0.59531-4.0462 3.0631-0.5862 4.2076-0.66121 6.2891-0.41219 1.234 0.14764 3.0473 0.34141 4.0296 0.43061l1.7859 0.16218 9e-5 2.9382 9e-5 2.9382 2.407 0.0262c1.3238 0.0144 2.4846 0.14214 2.5796 0.28388 0.0949 0.14175 0.38098 0.3346 0.63564 0.42856 0.40362 0.14891 0.47032 0.6047 0.51992 3.5526l0.0569 3.3817 0.0838-3.1088 0.0838-3.1089h1.3939c0.76664 0 1.5397-0.14584 1.718-0.3241 0.25575-0.25575 0.43356-0.25575 0.84308 0 0.77954 0.48683 3.4366 0.43056 3.4366-0.0728 0-0.28637 0.29351-0.39688 1.0542-0.39688h1.0541l0.0703-7.3422 0.0703-7.3422 1.4552-0.0649c0.80036-0.0357 1.9017-0.20357 2.4474-0.37308l0.99219-0.3082 0.0569-3.1988 0.0569-3.1988 0.084 3.1364c0.0826 3.0837 0.30774 3.8751 1.1024 3.8751 0.18891 0 0.30237 2.6401 0.34963 8.1359 0.0683 7.9362 0.083 8.1359 0.59914 8.1359 0.50355 0 0.53269-0.20064 0.60192-4.1461l0.0728-4.1461 1.5474-2.7331c1.2829-2.2659 1.6662-2.7474 2.2424-2.8168 0.38219-0.046 0.69489 0.0433 0.69489 0.19844 0 0.15518 0.29766 0.28215 0.66146 0.28215 0.63437 0 0.6617 0.0677 0.66734 1.6537 4e-3 1.2328 0.13756 1.822 0.52329 2.3151 0.29646 0.379 0.51991 1.0785 0.52328 1.638 3e-3 0.53712 0.12494 1.0502 0.27047 1.1401 0.16494 0.10194 0.26458 2.6486 0.26458 6.7625 0 5.6894 0.0547 6.599 0.39687 6.599 0.34814 0 0.39688-1.8521 0.39688-15.081v-15.081h1.3229c0.99953 0 1.3229-0.097 1.3229-0.39688 0-0.26211 0.26218-0.39687 0.77211-0.39687 1.336 0 1.6091-0.23267 1.6091-1.3706 0-0.85648 0.0851-1.0333 0.46302-0.96171 0.30495 0.0578 0.49133 0.38054 0.54593 0.94544 0.0622 0.64345 0.21092 0.85773 0.59532 0.85773 0.28182 0 0.5124 0.11906 0.5124 0.26458s0.40398 0.26459 0.89773 0.26459c0.55391 0 0.95606 0.152 1.05 0.39687 0.089 0.232 0.48549 0.39688 0.95435 0.39688h0.80205v15.632c0 11.916 0.0744 15.608 0.31301 15.528 0.23114-0.077 0.31765-2.1764 0.33073-8.0257l0.0177-7.9214 0.59532-0.0846c0.51505-0.0731 0.59531-0.24257 0.59531-1.2568v-1.1722h3.0144c2.4354 0 3.0436-0.0762 3.1667-0.39688 0.0956-0.2491 0.50018-0.39687 1.0866-0.39687h0.93434v-1.4552c0-0.80037 0.11906-1.4552 0.26458-1.4552 0.14553 0 0.26459 0.65484 0.26459 1.4552 0 1.2788 0.0641 1.4552 0.52916 1.4552 0.29105 0 0.52917 0.11906 0.52917 0.26458s0.2769 0.26458 0.61534 0.26458c0.33843 0 0.89497 0.29766 1.2367 0.66146 0.34178 0.3638 0.71972 0.66146 0.83987 0.66146 0.12016 0 0.21847-0.29766 0.21847-0.66146v-0.66146h6.35v2.6182l2.7781 0.16 0.0708 6.5484c0.0439 4.0636 0.16941 6.5484 0.33073 6.5484 0.1544 0 0.26287-1.2087 0.26712-2.9766l7e-3 -2.9766 0.92244-0.99219c1.0237-1.1011 1.3076-1.2015 1.5572-0.55107 0.12901 0.33621 0.24272 0.36767 0.4781 0.13229 0.16985-0.16985 0.5529-0.30943 0.85122-0.31017 0.37672-1e-3 0.66753-0.304 0.95206-0.99219l0.40967-0.99084 0.37253 0.83731 0.37252 0.8373 1.1576-1.569 0.35042 0.79165 0.35042 0.79166 0.43956-0.67008 0.43956-0.67007 0.42873 0.61209c0.2358 0.33665 0.42872 1.1214 0.42872 1.7438 0 0.80852 0.10879 1.1318 0.3809 1.1318 0.24917 0 0.40931 0.34315 0.46302 0.99219l0.0821 0.99218 3.536 0.1556 0.14297-1.1362c0.0786-0.62489 0.27205-3.6365 0.42984-6.6924 0.3292-6.3759 0.38153-6.7469 0.95167-6.7469 0.25636 0 0.36333-0.14805 0.27441-0.37978-0.0802-0.20888-0.0207-0.42146 0.13212-0.4724 0.16817-0.056 0.35491-1.8124 0.47304-4.4489 0.17564-3.9202 0.1993-4.0754 0.23644-1.5508 0.0227 1.543 0.11799 3.5395 0.21176 4.4366l0.17049 1.6311 0.91682-0.172c0.64373-0.12076 0.98579-0.0631 1.1484 0.19362 0.13973 0.22061 0.23478-0.946 0.23966-2.9417 5e-3 -2.2344 0.0913-3.1786 0.26459-2.9104 0.14106 0.21828 0.2583 1.7336 0.26053 3.3673 4e-3 2.8745 0.0254 2.9845 0.66551 3.4039 0.60955 0.3994 0.66164 0.59193 0.66376 2.4535 1e-3 1.111 0.0776 2.6471 0.16966 3.4135 0.14265 1.1877 0.25949 1.4123 0.79145 1.5214 0.34325 0.0704 0.90373 0.18523 1.2455 0.25523 0.61221 0.1254 0.62366 0.18864 0.77248 4.2662 0.14949 4.0958 0.15956 4.1507 0.96609 5.2738 0.80702 1.1238 0.81502 1.1676 0.81502 4.4651 0 3.1538 0.028 3.3302 0.52916 3.3302 0.49977 0 0.52917 0.17639 0.52917 3.175v3.175h-182.9l0.19149-5.887z" fill="#fff" stroke-width=".26458"/>
 </g>
</svg>
