<svg width="800" height="75" version="1.1" viewBox="0 0 800 75" xmlns="http://www.w3.org/2000/svg" xmlns:osb="http://www.openswatchbook.org/uri/2009/osb">
 <defs>
  <clipPath id="clipPath3357">
   <rect x="-20.428" y="105.87" width="810.54" height="89.019" fill="#fff"/>
  </clipPath>
 </defs>
 <g transform="translate(13.4 -110.55)">
  <g clip-path="url(#clipPath3357)">
   <g fill="none" stroke="#fff">
    <path d="m-84.85 234.71s-22.255-26.94 174.52-78.477c196.78-51.537 233.09 62.079 420.5 15.227s207.32-24.597 330.31 38.653" stroke-width="35"/>
    <g stroke-width="35">
     <path d="m707.7 241.72s22.255-26.94-174.52-78.477c-196.78-51.537-233.09 62.079-420.5 15.227-187.41-46.852-207.32-24.597-330.31 38.653" stroke-opacity=".55"/>
     <path d="m1369.5 228.83s22.255-26.94-174.52-78.477c-196.78-51.537-233.09 62.079-420.5 15.227-187.41-46.852-207.32-24.597-330.31 38.653" stroke-opacity=".55"/>
     <path d="m-610.34 235.86s-22.255-26.94 174.52-78.477c196.78-51.537 233.09 62.079 420.5 15.227 187.41-46.852 207.32-24.597 330.31 38.653" stroke-opacity=".69"/>
    </g>
   </g>
   <ellipse cx="175.18" cy="243.49" rx="231.92" ry="89.605" fill="#fff"/>
   <ellipse cx="621.45" cy="249.94" rx="231.92" ry="89.605" fill="#fff"/>
   <path d="m174.43 251.09s-22.255-26.94 174.52-78.477c196.78-51.537 233.09 62.079 420.5 15.227 187.41-46.852 207.32-24.597 330.31 38.653" fill="none" stroke="#fff" stroke-opacity=".69" stroke-width="35"/>
  </g>
 </g>
</svg>
