<?xml version="1.0" encoding="UTF-8" standalone="no"?><!DOCTYPE svg PUBLIC "-//W3C//DTD SVG 1.1//EN" "http://www.w3.org/Graphics/SVG/1.1/DTD/svg11.dtd"><svg width="100%" height="100%" viewBox="0 0 900 600" version="1.1" xmlns="http://www.w3.org/2000/svg" xmlns:xlink="http://www.w3.org/1999/xlink" xml:space="preserve" style="fill-rule:evenodd;clip-rule:evenodd;stroke-linejoin:round;stroke-miterlimit:1.41421;"><path id="path0" d="M777.184,171.756c-0.543,0.666 -1.263,1.941 -1.601,2.837c-0.337,0.897 -7.111,6.227 -15.054,11.849c-17.918,12.684 -18.539,13.506 -13.528,17.922c2.258,1.99 4.541,27.309 4.502,49.953c-0.002,1.161 -1.087,2.54 -2.604,3.308c-4.53,2.299 -5.173,4.745 -1.943,7.386l2.801,2.29l-1.177,10.681c-0.646,5.874 -2.106,19.715 -3.246,30.761c-1.138,11.043 -2.999,28.469 -4.139,38.725c-1.139,10.254 -2.761,25.528 -3.606,33.943c-2.806,27.938 -6.751,65.798 -8.269,79.363c-0.825,7.362 -1.505,15.214 -1.51,17.45c-0.011,3.797 -0.193,4.064 -2.783,4.062l-2.772,-0.002l-0.326,-13.145c-0.395,-15.902 0.443,-14.581 -9.249,-14.581l-8.004,0l-0.104,-3.584c-0.056,-1.972 -0.21,-4.877 -0.345,-6.454c-0.135,-1.579 -0.507,-17.715 -0.823,-35.858c-0.318,-18.143 -1.043,-53.211 -1.613,-77.928c-0.763,-33.263 -0.736,-45.934 0.109,-48.765c1.68,-5.635 -0.952,-7.442 -9.921,-6.814c-10.339,0.725 -12.31,2.276 -10.033,7.883c0.937,2.302 -0.929,171.165 -1.902,172.223c-0.115,0.126 -4.714,1.09 -10.224,2.146c-5.51,1.054 -11.037,2.145 -12.286,2.422c-2.119,0.469 -2.27,1.007 -2.286,8.134l-0.018,7.631l-9.073,0l-9.073,0l-0.032,14.344l-5.04,0l-5.04,0l0.011,-4.838c0.006,-2.66 -0.398,-4.598 -0.895,-4.307c-0.498,0.292 -2.312,0.264 -4.033,-0.063l-3.127,-0.594l0.042,-18.525l0.042,-18.526l-2.52,0c-2.413,0 -2.519,-0.249 -2.506,-5.826c0.011,-4.895 -0.291,-5.902 -1.878,-6.298c-2.215,-0.548 -3.136,-5.352 -3.111,-16.217c0.014,-6.238 -0.199,-7.037 -1.871,-7.037c-1.502,0 -2.021,-0.974 -2.543,-4.782l-0.658,-4.78l-5.954,0c-7.368,0 -6.618,1.554 -8.678,-17.971c-1.544,-14.611 -1.941,-16.452 -3.561,-16.452c-1.69,0 -1.824,1.244 -1.86,17.088l-0.039,17.089l-5.297,1.392l-5.295,1.391l-0.31,4.822c-0.25,3.841 -0.749,5.004 -2.465,5.73c-2.035,0.86 -2.14,1.493 -1.92,11.47c0.211,9.685 0.073,10.598 -1.686,11.036c-1.691,0.419 -1.888,1.284 -1.677,7.298c0.217,6.186 0.057,6.827 -1.7,6.827c-1.847,0 -1.944,0.858 -1.982,17.212c-0.033,14.661 -0.264,17.211 -1.552,17.211c-1.189,0 -1.516,1.329 -1.527,6.215l-0.014,6.215l-48.388,0l-48.388,0l0.015,-6.692l0.015,-6.693l-14.367,0.001l-14.365,0.002l0.341,-7.994c0.376,-8.859 -1.06,-11.806 -5.236,-10.742c-1.167,0.295 -13.121,0.544 -26.567,0.551l-24.447,0.013l-0.066,28.687l-8.39,0l-8.392,0l-0.919,-5.835l-0.921,-5.836l-6.546,-3.245l-6.545,-3.244l-37.154,-0.005l-37.156,-0.004l-7.469,6.855l-7.468,6.855l-0.075,34.579l-14.115,-0.291c-13.779,-0.282 -14.114,-0.34 -14.096,-2.39c0.042,-4.358 2.719,-10.701 4.657,-11.041c3.669,-0.643 6.453,-4.074 6.462,-7.961c0.007,-2.971 0.371,-3.657 1.945,-3.657c2.191,0 8.155,-5.221 8.16,-7.143c0.003,-1.624 -2.254,-2.431 -4.938,-1.763c-2.704,0.668 -2.668,0.01 0.16,-2.886c2.313,-2.366 6.236,-11.081 5.364,-11.912c-0.264,-0.25 -2.141,0.927 -4.172,2.614c-5.622,4.672 -7.754,5.338 -10.879,3.393c-3.55,-2.21 -15.679,-1.693 -18.579,0.792c-2.268,1.942 -6.434,-0.534 -9.211,-5.472c-1.497,-2.665 -4.075,-3.367 -4.08,-1.112c-0.006,2.56 2.12,6.745 4.83,9.516l2.702,2.758l-2.691,-0.607c-5.01,-1.13 -8.52,2.294 -3.807,3.713c1.802,0.543 1.37,1.053 -3.285,3.862c-11.876,7.171 -17.845,7.708 -36.008,3.249c-5.838,-1.435 -10.346,-1.952 -14.529,-1.663c-3.594,0.245 -7.655,-0.104 -9.965,-0.859c-7.055,-2.308 -13.316,2.858 -12.735,10.508l0.304,4.008l-4.788,-0.06c-5.525,-0.07 -6.193,1.264 -2.142,4.294c3.145,2.349 8.105,2.566 11.234,0.492c2.278,-1.512 3.065,-5.569 1.285,-6.617c-1.888,-1.106 1.135,-5.279 3.82,-5.279c2.441,0 2.461,0.056 0.707,1.888c-1.804,1.886 -1.853,12.289 -0.083,17.712c0.602,1.847 0.162,1.914 -12.649,1.914l-13.271,0l0.45,-11.32l0.451,-11.318l-2.761,0.525l-2.762,0.523l0.638,-20.998l0.64,-21l-2.173,0c-1.928,0 -2.172,-0.525 -2.163,-4.655c0.012,-5.134 -1.325,-5.824 -11.327,-5.852c-3.772,-0.011 -3.781,-0.02 -3.784,-4.075c-0.004,-4.03 -0.065,-4.098 -7.29,-8.121c-4.01,-2.233 -10.067,-5.762 -13.464,-7.842l-6.174,-3.783l-8.951,5.963c-4.923,3.278 -12.274,8.064 -16.335,10.638c-6.322,4.004 -7.301,4.991 -6.814,6.852c0.538,2.051 0.24,2.19 -5.233,2.461l-5.806,0.286l-0.315,4.009c-0.295,3.734 -0.535,4.027 -3.537,4.302l-3.224,0.296l-0.318,20.259l-0.316,20.26l-3.258,0.298l-3.258,0.298l0.34,6.933l0.34,6.932l-5.144,0l-5.144,0l-0.224,98.487l907.294,0l0.149,-65.499l0.149,-65.497l-13.106,0l-13.106,0l0.014,-6.115c0.014,-5.914 -1.39,-8.332 -3.965,-6.824c-0.681,0.398 -7.102,-26.766 -7.054,-29.851c0.008,-0.659 -0.601,-1.196 -1.359,-1.196c-1.034,0 -1.569,2.661 -2.156,10.756c-1.136,15.588 -1.906,20.304 -3.343,20.44c-0.694,0.066 -1.715,0.174 -2.268,0.238c-0.556,0.067 -1.015,2.487 -1.021,5.378c-0.014,5.887 -5.071,8.35 -6.379,3.11c-0.722,-2.89 -6.156,-35.029 -12.089,-71.474c-1.413,-8.679 -3.657,-22.233 -4.989,-30.12c-1.331,-7.889 -3.352,-20.152 -4.492,-27.252c-1.139,-7.1 -2.938,-17.857 -4,-23.904c-1.061,-6.047 -2.345,-13.792 -2.854,-17.211c-0.508,-3.419 -2.123,-13.315 -3.586,-21.992c-3.241,-19.203 -3.254,-19.645 -0.573,-22.345c2.939,-2.96 -0.165,-9.21 -4.576,-9.21c-1.06,0 -1.314,-4.967 -1.269,-24.815l0.057,-24.819l2.525,-2.39c5.169,-4.892 4.092,-6.161 -13.071,-15.37c-13.948,-7.487 -18.625,-10.596 -18.621,-12.377c0.005,-2.108 -2.577,-3.648 -3.738,-2.234m35.187,130.507c2.468,14.84 4.488,27.323 4.487,27.733c-0.001,0.601 -6.581,0.384 -18.648,-0.613c-0.554,-0.045 -1.034,-1.267 -1.064,-2.713c-0.141,-6.621 -2.615,-39.041 -3.028,-39.682c-0.256,-0.393 -0.033,-0.717 0.494,-0.717c1.669,0 11.14,-8.601 11.891,-10.799c0.978,-2.862 0.807,-3.634 5.868,26.791m-44.881,-16.947c0.395,0 0.603,2.044 0.463,4.542c-0.139,2.498 -0.306,12.192 -0.371,21.544c-0.105,15.3 -0.293,17.058 -1.882,17.562c-0.97,0.307 -4.646,1.616 -8.169,2.907c-7.764,2.844 -7.255,3.332 -6.15,-5.926c0.502,-4.203 1.626,-14.741 2.497,-23.417c0.87,-8.679 1.851,-18.048 2.175,-20.822l0.591,-5.045l5.065,4.327c2.787,2.381 5.386,4.328 5.781,4.328m21.917,17.44c-0.244,1.188 -0.448,0.44 -0.454,-1.663c-0.007,-2.105 0.192,-3.077 0.442,-2.162c0.25,0.914 0.255,2.635 0.012,3.825m1.479,20.569c0.147,3.288 -0.072,5.976 -0.487,5.976c-0.417,-0.002 -0.681,-3.766 -0.586,-8.369c0.176,-8.747 0.615,-7.768 1.073,2.393m-14.779,4.791c-1.089,1.031 -1.344,-0.254 -0.716,-3.597l0.632,-3.347l0.331,3.201c0.18,1.758 0.069,3.444 -0.247,3.743m0.414,7.398c-0.01,4.368 -1.498,4.366 -1.588,-0.001c-0.036,-1.84 0.307,-3.346 0.766,-3.346c0.455,0 0.827,1.506 0.822,3.347m-9.073,0.005c-0.005,2.308 -0.228,2.39 -6.148,2.263c-5.573,-0.118 -6.789,-1.679 -1.413,-1.809c1.109,-0.026 3.152,-0.662 4.54,-1.414c1.387,-0.753 2.637,-1.383 2.775,-1.4c0.138,-0.019 0.249,1.043 0.246,2.36m24.192,1.486c-0.009,3.972 -1.505,3.512 -1.584,-0.487c-0.037,-1.815 0.306,-3.079 0.762,-2.81c0.457,0.266 0.826,1.75 0.822,3.297m15.503,-1.903c3.101,0.062 3.087,0.081 -0.883,1.267c-2.22,0.661 -5.057,1.723 -6.306,2.36c-2.135,1.087 -2.271,0.973 -2.265,-1.865c0.007,-2.874 0.162,-2.993 3.157,-2.424c1.732,0.328 4.566,0.625 6.297,0.662m17.047,38.231c3.211,19.48 5.642,35.602 5.404,35.828c-0.239,0.226 -6.384,0.142 -13.653,-0.187l-13.218,-0.6l-0.579,-7.745c-1.269,-17.049 -3.477,-50.81 -3.472,-53.138c0.005,-2.14 14.45,-9.338 19.178,-9.556c0.276,-0.013 3.13,15.916 6.34,35.398m-59.886,-30.647l2.624,-0.003l-0.265,14.105c-0.148,7.758 -0.569,22.362 -0.939,32.454l-0.672,18.347l-10.804,2.448c-12.843,2.911 -12.088,2.862 -11.582,0.777c0.366,-1.519 4.79,-45.173 6.307,-62.272l0.627,-7.053l6.04,0.598c3.323,0.329 7.221,0.599 8.664,0.599m12.202,3.585c0.012,11.39 1.057,57.479 1.333,58.805c0.247,1.192 -0.296,1.674 -1.889,1.674c-2.161,0 -2.228,-0.293 -2.023,-8.845c0.115,-4.864 0.368,-19.063 0.562,-31.555c0.192,-12.488 0.723,-22.707 1.181,-22.707c0.458,0 0.834,1.183 0.836,2.628m15.528,4.071c0.311,2.889 1,14.072 1.529,24.853c0.53,10.784 1.232,22.508 1.558,26.058c0.546,5.916 0.434,6.454 -1.331,6.454c-1.807,0 -1.932,-0.94 -2.058,-15.539c-0.073,-8.546 -0.409,-22.853 -0.742,-31.791c-0.592,-15.848 -0.098,-20.605 1.044,-10.035m-26.776,62.623c-0.002,1.085 -1.172,1.416 -4.794,1.358l-4.788,-0.077l4.539,-1.233c2.496,-0.678 4.653,-1.29 4.792,-1.358c0.14,-0.069 0.253,0.52 0.251,1.31m13.103,0c-0.002,0.894 -0.953,1.435 -2.523,1.435c-1.567,0 -2.519,-0.541 -2.517,-1.435c0.002,-0.893 0.956,-1.435 2.523,-1.435c1.57,0 2.519,0.542 2.517,1.435m17.135,1.912c-0.004,1.4 -0.584,2.391 -1.401,2.391c-0.767,0 -1.607,-1.075 -1.87,-2.391c-0.37,-1.856 -0.058,-2.39 1.4,-2.39c1.329,0 1.875,0.697 1.871,2.39m18.064,-1.086c-1.163,0.965 -11.009,1.536 -11.007,0.641c0.001,-0.566 2.452,-0.989 5.716,-0.989c3.142,0 5.523,0.157 5.291,0.348m22.528,30.97c2.642,16.17 5.043,30.582 5.337,32.03c0.529,2.614 0.5,2.628 -5.066,2.628c-5.58,0 -5.601,-0.01 -5.909,-3.108l-0.308,-3.107l-7.812,-0.279c-5.744,-0.205 -7.812,-0.622 -7.81,-1.571c0.003,-1.478 -2.158,-2.452 -5.438,-2.452c-2.211,0 -2.277,-0.343 -3.458,-18.407c-0.664,-10.123 -1.46,-21.232 -1.767,-24.688l-0.563,-6.28l8.952,-1.259c4.924,-0.691 10.54,-1.588 12.481,-1.989c1.941,-0.403 4.21,-0.773 5.042,-0.824c1.217,-0.074 2.453,5.667 6.319,29.306m-71.077,-25.153c0.15,0.138 -0.066,13.006 -0.48,28.597l-0.75,28.347l-12.466,0l-12.464,0l-0.612,2.867c-0.919,4.31 -3.286,3.701 -2.789,-0.716c0.604,-5.352 3.428,-31.811 4.62,-43.269c0.575,-5.521 1.306,-11.705 1.626,-13.741l0.582,-3.702l11.231,0.686c6.175,0.377 11.352,0.796 11.502,0.931m13.335,8.051c-0.001,4.015 0.264,13.363 0.583,20.774c0.515,11.902 0.391,13.548 -1.057,14.075c-1.292,0.47 -1.644,1.979 -1.656,7.116c-0.013,5.851 -0.224,6.534 -2.045,6.666c-1.927,0.137 -2.008,-0.302 -1.578,-8.642c0.249,-4.833 0.513,-17.656 0.582,-28.494l0.131,-19.709l2.519,0.459c2.424,0.438 2.521,0.733 2.521,7.755m18.256,0.365c0.062,3.813 0.222,8.008 0.355,9.323c0.135,1.315 0.537,7.339 0.895,13.388l0.653,10.996l-2.567,0c-2.402,0 -2.567,-0.306 -2.593,-4.783c-0.017,-2.628 -0.275,-11.773 -0.576,-20.317c-0.541,-15.362 -0.524,-15.537 1.588,-15.537c1.964,0 2.141,0.548 2.245,6.93m-175.653,50.438c-0.001,0.528 0.905,0.957 2.014,0.957c1.109,0 2.018,-0.429 2.019,-0.957c0.001,-0.525 -0.906,-0.955 -2.015,-0.955c-1.109,0 -2.017,0.43 -2.018,0.955" style="fill:#fff;"/></svg>