<?xml version="1.0" encoding="UTF-8" standalone="no"?><!DOCTYPE svg PUBLIC "-//W3C//DTD SVG 1.1//EN" "http://www.w3.org/Graphics/SVG/1.1/DTD/svg11.dtd"><svg width="100%" height="100%" viewBox="0 0 900 600" version="1.1" xmlns="http://www.w3.org/2000/svg" xmlns:xlink="http://www.w3.org/1999/xlink" xml:space="preserve" style="fill-rule:evenodd;clip-rule:evenodd;stroke-linejoin:round;stroke-miterlimit:1.41421;"><path id="path0" d="M776.928,138.549c-0.539,0.697 -1.252,2.034 -1.585,2.972c-0.334,0.94 -7.055,6.528 -14.938,12.419c-17.783,13.295 -18.399,14.156 -13.407,18.783c2.248,2.085 4.575,28.622 4.589,52.353c0,1.218 -1.076,2.663 -2.582,3.468c-4.498,2.408 -5.132,4.972 -1.914,7.74l2.789,2.399l-1.146,11.195c-0.629,6.156 -2.049,20.663 -3.156,32.239c-1.107,11.574 -2.918,29.837 -4.027,40.586c-1.11,10.746 -2.688,26.755 -3.509,35.573c-2.726,29.28 -6.561,68.96 -8.04,83.176c-0.803,7.716 -1.461,15.946 -1.461,18.288c-0.003,3.98 -0.183,4.26 -2.758,4.257l-2.755,-0.002l-0.354,-13.777c-0.429,-16.665 0.408,-15.28 -9.227,-15.28l-7.957,0l-0.11,-3.757c-0.061,-2.067 -0.221,-5.111 -0.359,-6.764c-0.137,-1.655 -0.543,-18.566 -0.899,-37.58c-0.357,-19.014 -1.157,-55.767 -1.779,-81.672c-0.835,-34.861 -0.837,-48.141 -0.003,-51.109c1.658,-5.905 -0.962,-7.799 -9.878,-7.14c-10.275,0.759 -12.232,2.385 -9.955,8.261c0.936,2.413 -0.536,179.389 -1.501,180.498c-0.113,0.131 -4.683,1.141 -10.158,2.248c-5.475,1.105 -10.967,2.248 -12.207,2.539c-2.106,0.492 -2.255,1.055 -2.255,8.525l0,7.998l-9.019,0l-9.019,0l0,15.032l-5.01,0l-5.01,0l0,-5.071c0,-2.786 -0.406,-4.818 -0.9,-4.514c-0.494,0.307 -2.298,0.278 -4.009,-0.065l-3.109,-0.622l0,-19.416l0,-19.416l-2.505,0c-2.399,0 -2.505,-0.261 -2.505,-6.106c0,-5.129 -0.302,-6.184 -1.881,-6.599c-2.203,-0.575 -3.129,-5.61 -3.129,-16.997c0,-6.539 -0.215,-7.375 -1.876,-7.375c-1.493,0 -2.012,-1.021 -2.539,-5.012l-0.665,-5.01l-5.919,0c-7.324,0 -6.575,1.63 -8.667,-18.834c-1.567,-15.313 -1.967,-17.243 -3.576,-17.243c-1.68,0 -1.811,1.304 -1.811,17.91l0,17.909l-5.263,1.459l-5.26,1.459l-0.298,5.053c-0.239,4.025 -0.732,5.245 -2.437,6.004c-2.02,0.902 -2.124,1.565 -1.883,12.023c0.232,10.149 0.097,11.107 -1.65,11.565c-1.68,0.439 -1.874,1.346 -1.651,7.65c0.23,6.482 0.072,7.154 -1.675,7.154c-1.835,0 -1.93,0.9 -1.93,18.038c0,15.367 -0.223,18.039 -1.504,18.039c-1.182,0 -1.504,1.393 -1.504,6.514l0,6.514l-48.101,0l-48.101,0l0,-7.015l0,-7.015l-14.281,0.003l-14.28,0.002l0.32,-8.379c0.354,-9.285 -1.08,-12.374 -5.228,-11.258c-1.159,0.309 -13.042,0.571 -26.408,0.577l-24.302,0.014l0,30.065l-8.34,0l-8.343,0l-0.927,-6.115l-0.929,-6.117l-6.514,-3.4l-6.514,-3.401l-36.933,-0.004l-36.935,-0.005l-7.409,7.184l-7.409,7.186l0.004,36.239l-14.031,-0.305c-13.698,-0.295 -14.031,-0.356 -14.018,-2.505c0.032,-4.566 2.679,-11.215 4.604,-11.571c3.646,-0.674 6.406,-4.269 6.406,-8.343c0,-3.114 0.361,-3.833 1.926,-3.833c2.178,0 8.094,-5.472 8.094,-7.486c0,-1.702 -2.245,-2.548 -4.913,-1.849c-2.685,0.702 -2.651,0.012 0.154,-3.023c2.293,-2.481 6.173,-11.615 5.305,-12.485c-0.264,-0.262 -2.126,0.972 -4.142,2.74c-5.578,4.897 -7.696,5.594 -10.807,3.555c-3.533,-2.315 -15.59,-1.774 -18.467,0.83c-2.25,2.036 -6.396,-0.559 -9.167,-5.734c-1.495,-2.793 -4.059,-3.528 -4.059,-1.165c0,2.683 2.122,7.068 4.823,9.972l2.692,2.891l-2.676,-0.636c-4.983,-1.184 -8.465,2.404 -3.777,3.892c1.793,0.568 1.364,1.102 -3.256,4.047c-11.79,7.515 -17.722,8.079 -35.787,3.405c-5.806,-1.504 -10.289,-2.045 -14.447,-1.743c-3.571,0.257 -7.61,-0.108 -9.907,-0.9c-7.019,-2.419 -13.231,2.995 -12.636,11.012l0.311,4.201l-4.759,-0.063c-5.493,-0.072 -6.154,1.326 -2.12,4.5c3.132,2.463 8.063,2.69 11.168,0.517c2.261,-1.585 3.035,-5.838 1.263,-6.936c-1.879,-1.159 1.116,-5.533 3.785,-5.533c2.426,0 2.447,0.059 0.708,1.98c-1.79,1.977 -1.815,12.879 -0.043,18.563c0.602,1.935 0.165,2.005 -12.57,2.005l-13.192,0l0.421,-11.863l0.424,-11.862l-2.744,0.55l-2.744,0.548l0.586,-22.006l0.589,-22.009l-2.16,0c-1.917,0 -2.16,-0.55 -2.16,-4.879c0,-5.38 -1.331,-6.104 -11.274,-6.133c-3.75,-0.012 -3.759,-0.021 -3.77,-4.271c-0.014,-4.223 -0.075,-4.295 -7.265,-8.512c-3.991,-2.34 -10.02,-6.038 -13.402,-8.218l-6.147,-3.964l-8.884,6.248c-4.886,3.436 -12.182,8.453 -16.214,11.15c-6.275,4.196 -7.246,5.231 -6.757,7.181c0.539,2.149 0.243,2.295 -5.197,2.579l-5.77,0.3l-0.305,4.201c-0.284,3.914 -0.523,4.221 -3.506,4.51l-3.204,0.308l-0.27,21.234l-0.269,21.233l-3.238,0.313l-3.237,0.311l0.354,7.267l0.354,7.265l-5.114,0l-5.114,0l0,103.219l901.905,0l0,-68.647l0,-68.644l-13.028,0l-13.028,0l0,-6.408c0,-6.198 -1.4,-8.732 -3.957,-7.152c-0.677,0.417 -7.121,-28.051 -7.08,-31.285c0.006,-0.69 -0.6,-1.253 -1.353,-1.253c-1.028,0 -1.554,2.789 -2.12,11.274c-1.093,16.335 -1.849,21.278 -3.276,21.42c-0.69,0.07 -1.704,0.182 -2.255,0.25c-0.552,0.07 -1.003,2.607 -1.003,5.637c0,6.169 -5.021,8.751 -6.334,3.258c-0.723,-3.028 -6.198,-36.712 -12.178,-74.908c-1.425,-9.095 -3.686,-23.3 -5.028,-31.566c-1.341,-8.268 -3.377,-21.121 -4.527,-28.561c-1.148,-7.441 -2.961,-18.715 -4.03,-25.053c-1.068,-6.338 -2.362,-14.455 -2.877,-18.038c-0.511,-3.583 -2.139,-13.955 -3.614,-23.048c-3.265,-20.126 -3.278,-20.588 -0.62,-23.418c2.915,-3.103 -0.185,-9.653 -4.57,-9.653c-1.053,0 -1.317,-5.206 -1.317,-26.008l0,-26.011l2.505,-2.505c5.127,-5.128 4.054,-6.456 -13.028,-16.108c-13.883,-7.847 -18.539,-11.105 -18.539,-12.972c0,-2.21 -2.57,-3.824 -3.72,-2.341m35.273,136.777c2.487,15.553 4.523,28.635 4.523,29.066c0,0.629 -6.541,0.401 -18.538,-0.643c-0.55,-0.047 -1.031,-1.328 -1.065,-2.843c-0.155,-6.94 -2.687,-40.917 -3.1,-41.589c-0.255,-0.413 -0.034,-0.751 0.489,-0.751c1.66,0 11.056,-9.015 11.797,-11.319c0.965,-2.999 0.794,-3.808 5.894,28.079m-44.653,-17.761c0.392,0 0.604,2.142 0.471,4.76c-0.133,2.617 -0.277,12.777 -0.32,22.579c-0.07,16.036 -0.252,17.878 -1.831,18.405c-0.965,0.323 -4.615,1.694 -8.115,3.047c-7.711,2.98 -7.204,3.492 -6.126,-6.21c0.489,-4.406 1.583,-15.45 2.429,-24.543c0.845,-9.096 1.799,-18.915 2.114,-21.822l0.578,-5.287l5.044,4.534c2.775,2.496 5.364,4.537 5.756,4.537m21.826,18.277c-0.239,1.245 -0.444,0.462 -0.455,-1.743c-0.012,-2.205 0.185,-3.224 0.435,-2.266c0.25,0.958 0.259,2.762 0.02,4.009m1.518,21.558c0.153,3.445 -0.059,6.263 -0.472,6.263c-0.415,-0.002 -0.685,-3.948 -0.602,-8.771c0.156,-9.167 0.596,-8.142 1.074,2.508m-14.681,5.021c-1.08,1.08 -1.337,-0.266 -0.719,-3.77l0.62,-3.508l0.336,3.355c0.182,1.842 0.076,3.61 -0.237,3.923m0.428,7.754c0,4.577 -1.479,4.575 -1.578,-0.002c-0.041,-1.928 0.297,-3.506 0.753,-3.506c0.453,0 0.825,1.578 0.825,3.508m-9.019,0.005c0,2.419 -0.221,2.505 -6.106,2.372c-5.54,-0.124 -6.753,-1.761 -1.409,-1.897c1.103,-0.027 3.132,-0.694 4.51,-1.481c1.377,-0.789 2.617,-1.45 2.755,-1.468c0.137,-0.02 0.25,1.094 0.25,2.474m24.052,1.558c0,4.162 -1.488,3.679 -1.576,-0.512c-0.041,-1.901 0.297,-3.227 0.75,-2.945c0.456,0.28 0.826,1.836 0.826,3.457m15.406,-1.996c3.083,0.066 3.069,0.086 -0.874,1.328c-2.206,0.693 -5.024,1.806 -6.264,2.474c-2.12,1.138 -2.255,1.019 -2.255,-1.955c0,-3.012 0.153,-3.136 3.132,-2.541c1.723,0.345 4.541,0.656 6.261,0.694m17.033,40.067c3.236,20.417 5.689,37.314 5.452,37.551c-0.237,0.237 -6.345,0.149 -13.571,-0.196l-13.141,-0.629l-0.593,-8.117c-1.301,-17.869 -3.572,-53.251 -3.572,-55.691c0,-2.243 14.343,-9.788 19.042,-10.015c0.275,-0.014 3.147,16.68 6.383,37.097m-59.6,-32.119l2.609,-0.002l-0.233,14.782c-0.128,8.131 -0.514,23.436 -0.859,34.013l-0.627,19.229l-10.734,2.566c-12.76,3.051 -12.009,2.999 -11.511,0.814c0.361,-1.592 4.658,-47.343 6.128,-65.264l0.607,-7.391l6.007,0.626c3.303,0.345 7.179,0.627 8.613,0.627m12.137,3.759c0.039,11.937 1.182,60.24 1.459,61.629c0.248,1.25 -0.291,1.755 -1.874,1.755c-2.148,0 -2.216,-0.307 -2.031,-9.27c0.104,-5.098 0.322,-19.979 0.487,-33.07c0.162,-13.089 0.667,-23.799 1.123,-23.799c0.455,0 0.832,1.24 0.836,2.755m15.445,4.266c0.316,3.028 1.026,14.748 1.576,26.047c0.553,11.301 1.277,23.589 1.608,27.31c0.557,6.2 0.447,6.764 -1.308,6.764c-1.797,0 -1.923,-0.985 -2.081,-16.286c-0.092,-8.956 -0.458,-23.95 -0.809,-33.319c-0.625,-16.608 -0.145,-21.594 1.014,-10.516m-26.475,65.632c0,1.136 -1.161,1.483 -4.762,1.422l-4.76,-0.081l4.51,-1.292c2.48,-0.71 4.622,-1.35 4.759,-1.423c0.14,-0.072 0.253,0.546 0.253,1.374m13.026,0c0,0.935 -0.945,1.504 -2.505,1.504c-1.558,0 -2.505,-0.569 -2.505,-1.504c0,-0.936 0.947,-1.504 2.505,-1.504c1.56,0 2.505,0.568 2.505,1.504m17.037,2.004c0,1.466 -0.575,2.505 -1.387,2.505c-0.762,0 -1.601,-1.127 -1.865,-2.505c-0.372,-1.946 -0.063,-2.505 1.387,-2.505c1.321,0 1.865,0.731 1.865,2.505m17.954,-1.139c-1.154,1.011 -10.94,1.61 -10.94,0.672c0,-0.593 2.435,-1.037 5.68,-1.037c3.123,0 5.49,0.165 5.26,0.365m22.465,32.458c2.662,16.946 5.082,32.051 5.377,33.569c0.532,2.739 0.503,2.755 -5.03,2.755c-5.547,0 -5.567,-0.011 -5.881,-3.258l-0.313,-3.256l-7.765,-0.293c-5.712,-0.214 -7.768,-0.652 -7.768,-1.646c0,-1.549 -2.151,-2.571 -5.412,-2.571c-2.198,0 -2.263,-0.358 -3.479,-19.291c-0.683,-10.609 -1.499,-22.253 -1.812,-25.874l-0.573,-6.581l8.895,-1.319c4.893,-0.724 10.473,-1.664 12.403,-2.086c1.928,-0.422 4.183,-0.81 5.01,-0.864c1.209,-0.076 2.451,5.939 6.348,30.715m-70.712,-26.361c0.149,0.145 -0.036,13.63 -0.413,29.971l-0.681,29.708l-12.392,0l-12.39,0l-0.602,3.006c-0.904,4.516 -3.258,3.878 -2.773,-0.751c0.588,-5.61 3.335,-33.339 4.494,-45.348c0.559,-5.785 1.271,-12.268 1.585,-14.401l0.57,-3.88l11.166,0.719c6.14,0.395 11.287,0.834 11.436,0.976m13.274,8.438c0.009,4.207 0.293,14.004 0.627,21.772c0.538,12.473 0.419,14.198 -1.02,14.75c-1.283,0.494 -1.63,2.075 -1.63,7.459c0,6.131 -0.207,6.848 -2.018,6.985c-1.914,0.145 -1.995,-0.315 -1.587,-9.057c0.237,-5.064 0.469,-18.503 0.514,-29.862l0.086,-20.656l2.505,0.48c2.41,0.46 2.507,0.769 2.523,8.129m18.148,0.383c0.07,3.995 0.239,8.392 0.375,9.77c0.137,1.377 0.55,7.691 0.92,14.031l0.674,11.524l-2.553,0c-2.387,0 -2.552,-0.32 -2.588,-5.012c-0.023,-2.755 -0.3,-12.338 -0.618,-21.294c-0.573,-16.099 -0.557,-16.284 1.542,-16.284c1.953,0 2.131,0.575 2.248,7.265m-174.496,52.861c0,0.552 0.902,1.003 2.005,1.003c1.102,0 2.004,-0.451 2.004,-1.003c0,-0.551 -0.902,-1.002 -2.004,-1.002c-1.103,0 -2.005,0.451 -2.005,1.002" style="fill:#fff;"/></svg>