<svg id="svg" version="1.1" xmlns="http://www.w3.org/2000/svg" xmlns:xlink="http://www.w3.org/1999/xlink" viewBox="0 0 900 600"><g id="svgg"><path id="path0" d="M344.572 61.883 C 344.333 62.192,344.017 62.785,343.869 63.201 C 343.721 63.618,340.740 66.096,337.244 68.709 C 329.357 74.605,329.084 74.987,331.298 77.039 C 332.295 77.964,333.327 89.733,333.333 100.258 C 333.333 100.798,332.856 101.439,332.188 101.796 C 330.193 102.864,329.912 104.001,331.339 105.229 L 332.576 106.293 332.068 111.258 C 331.789 113.988,331.159 120.422,330.668 125.556 C 330.177 130.689,329.374 138.789,328.882 143.556 C 328.390 148.322,327.690 155.422,327.326 159.333 C 326.117 172.319,324.416 189.917,323.760 196.222 C 323.404 199.644,323.112 203.294,323.112 204.333 C 323.111 206.098,323.031 206.222,321.889 206.221 L 320.667 206.220 320.510 200.110 C 320.320 192.719,320.691 193.333,316.418 193.333 L 312.889 193.333 312.840 191.667 C 312.813 190.750,312.742 189.400,312.681 188.667 C 312.620 187.933,312.440 180.433,312.282 172.000 C 312.124 163.567,311.769 147.267,311.493 135.778 C 311.123 120.317,311.122 114.427,311.492 113.111 C 312.227 110.492,311.065 109.652,307.111 109.944 C 302.554 110.281,301.686 111.002,302.696 113.608 C 303.111 114.678,302.458 193.168,302.030 193.660 C 301.980 193.718,299.953 194.166,297.525 194.657 C 295.097 195.147,292.661 195.654,292.111 195.783 C 291.177 196.001,291.111 196.251,291.111 199.564 L 291.111 203.111 287.111 203.111 L 283.111 203.111 283.111 206.444 L 283.111 209.778 280.889 209.778 L 278.667 209.778 278.667 207.529 C 278.667 206.293,278.487 205.392,278.268 205.527 C 278.049 205.663,277.249 205.650,276.490 205.498 L 275.111 205.222 275.111 196.611 L 275.111 188.000 274.000 188.000 C 272.936 188.000,272.889 187.884,272.889 185.292 C 272.889 183.017,272.755 182.549,272.055 182.365 C 271.078 182.110,270.667 179.877,270.667 174.827 C 270.667 171.927,270.572 171.556,269.835 171.556 C 269.173 171.556,268.943 171.103,268.709 169.333 L 268.414 167.111 265.789 167.111 C 262.541 167.111,262.873 167.834,261.945 158.758 C 261.250 151.967,261.073 151.111,260.359 151.111 C 259.614 151.111,259.556 151.689,259.556 159.054 L 259.556 166.997 257.222 167.644 L 254.889 168.291 254.757 170.532 C 254.651 172.317,254.432 172.858,253.676 173.195 C 252.780 173.595,252.734 173.889,252.841 178.527 C 252.944 183.028,252.884 183.453,252.109 183.656 C 251.364 183.851,251.278 184.253,251.377 187.049 C 251.479 189.924,251.409 190.222,250.634 190.222 C 249.820 190.222,249.778 190.621,249.778 198.222 C 249.778 205.037,249.679 206.222,249.111 206.222 C 248.587 206.222,248.444 206.840,248.444 209.111 L 248.444 212.000 227.111 212.000 L 205.778 212.000 205.778 208.889 L 205.778 205.778 199.444 205.779 L 193.111 205.780 193.253 202.064 C 193.410 197.946,192.774 196.576,190.934 197.071 C 190.420 197.208,185.150 197.324,179.222 197.327 L 168.444 197.333 168.444 204.000 L 168.444 210.667 164.745 210.667 L 161.045 210.667 160.634 207.955 L 160.222 205.242 157.333 203.734 L 154.444 202.226 138.064 202.224 L 121.683 202.222 118.397 205.408 L 115.111 208.595 115.112 216.631 L 115.113 224.667 108.890 224.532 C 102.815 224.401,102.667 224.374,102.673 223.421 C 102.687 221.396,103.861 218.447,104.715 218.289 C 106.332 217.990,107.556 216.396,107.556 214.589 C 107.556 213.208,107.716 212.889,108.410 212.889 C 109.376 212.889,112.000 210.462,112.000 209.569 C 112.000 208.814,111.004 208.439,109.821 208.749 C 108.630 209.060,108.645 208.754,109.889 207.408 C 110.906 206.308,112.627 202.257,112.242 201.871 C 112.125 201.755,111.299 202.302,110.405 203.086 C 107.931 205.258,106.992 205.567,105.612 204.663 C 104.045 203.636,98.698 203.876,97.422 205.031 C 96.424 205.934,94.585 204.783,93.356 202.488 C 92.693 201.249,91.556 200.923,91.556 201.971 C 91.556 203.161,92.497 205.106,93.695 206.394 L 94.889 207.676 93.702 207.394 C 91.492 206.869,89.948 208.460,92.027 209.120 C 92.822 209.372,92.632 209.609,90.583 210.915 C 85.354 214.248,82.723 214.498,74.711 212.425 C 72.136 211.758,70.148 211.518,68.304 211.652 C 66.720 211.766,64.929 211.604,63.910 211.253 C 60.797 210.180,58.042 212.581,58.306 216.137 L 58.444 218.000 56.333 217.972 C 53.897 217.940,53.604 218.560,55.393 219.968 C 56.782 221.060,58.969 221.161,60.346 220.197 C 61.349 219.494,61.692 217.608,60.906 217.121 C 60.073 216.607,61.401 214.667,62.585 214.667 C 63.661 214.667,63.670 214.693,62.899 215.545 C 62.105 216.422,62.094 221.257,62.880 223.778 C 63.147 224.636,62.953 224.667,57.305 224.667 L 51.454 224.667 51.641 219.406 L 51.829 214.145 50.612 214.389 L 49.395 214.632 49.655 204.872 L 49.916 195.111 48.958 195.111 C 48.108 195.111,48.000 194.867,48.000 192.947 C 48.000 190.561,47.410 190.240,43.000 190.227 C 41.337 190.222,41.333 190.218,41.328 188.333 C 41.322 186.460,41.295 186.428,38.106 184.558 C 36.336 183.520,33.662 181.880,32.162 180.913 L 29.436 179.155 25.496 181.926 C 23.329 183.450,20.093 185.675,18.305 186.871 C 15.522 188.732,15.091 189.191,15.308 190.056 C 15.547 191.009,15.416 191.074,13.003 191.200 L 10.444 191.333 10.309 193.196 C 10.183 194.932,10.077 195.068,8.754 195.196 L 7.333 195.333 7.213 204.750 L 7.094 214.167 5.658 214.306 L 4.222 214.444 4.379 217.667 L 4.536 220.889 2.268 220.889 L 0.000 220.889 0.000 243.778 L 0.000 266.667 200.000 266.667 L 400.000 266.667 400.000 236.222 L 400.000 205.778 394.222 205.778 L 388.444 205.778 388.444 202.936 C 388.444 200.187,387.823 199.063,386.689 199.764 C 386.389 199.949,383.531 187.323,383.549 185.889 C 383.552 185.583,383.283 185.333,382.949 185.333 C 382.493 185.333,382.260 186.570,382.009 190.333 C 381.524 197.578,381.189 199.770,380.556 199.833 C 380.250 199.864,379.800 199.914,379.556 199.944 C 379.311 199.975,379.111 201.100,379.111 202.444 C 379.111 205.180,376.884 206.325,376.302 203.889 C 375.981 202.546,373.553 187.607,370.901 170.667 C 370.269 166.633,369.266 160.333,368.671 156.667 C 368.076 153.000,367.173 147.300,366.663 144.000 C 366.154 140.700,365.350 135.700,364.876 132.889 C 364.402 130.078,363.828 126.478,363.600 124.889 C 363.373 123.300,362.651 118.700,361.997 114.667 C 360.549 105.741,360.543 105.536,361.722 104.281 C 363.015 102.905,361.640 100.000,359.695 100.000 C 359.228 100.000,359.111 97.691,359.111 88.465 L 359.111 76.929 360.222 75.818 C 362.496 73.544,362.020 72.955,354.444 68.674 C 348.287 65.194,346.222 63.749,346.222 62.921 C 346.222 61.941,345.082 61.225,344.572 61.883 M360.216 122.544 C 361.319 129.442,362.222 135.244,362.222 135.435 C 362.222 135.714,359.321 135.613,354.000 135.150 C 353.756 135.129,353.543 134.561,353.528 133.889 C 353.459 130.811,352.336 115.742,352.153 115.444 C 352.040 115.261,352.138 115.111,352.370 115.111 C 353.106 115.111,357.273 111.113,357.602 110.091 C 358.030 108.761,357.954 108.402,360.216 122.544 M340.412 114.667 C 340.586 114.667,340.680 115.617,340.621 116.778 C 340.562 117.939,340.498 122.445,340.479 126.792 C 340.448 133.904,340.367 134.721,339.667 134.955 C 339.239 135.098,337.620 135.706,336.068 136.306 C 332.648 137.628,332.873 137.855,333.351 133.552 C 333.568 131.598,334.053 126.700,334.428 122.667 C 334.803 118.633,335.226 114.278,335.366 112.989 L 335.622 110.644 337.859 112.655 C 339.090 113.762,340.238 114.667,340.412 114.667 M350.092 122.773 C 349.986 123.325,349.895 122.978,349.890 122.000 C 349.885 121.022,349.972 120.570,350.083 120.995 C 350.194 121.420,350.198 122.220,350.092 122.773 M350.765 132.334 C 350.833 133.862,350.739 135.112,350.556 135.112 C 350.372 135.111,350.252 133.361,350.289 131.222 C 350.358 127.156,350.553 127.611,350.765 132.334 M344.254 134.561 C 343.775 135.040,343.661 134.443,343.935 132.889 L 344.210 131.333 344.359 132.821 C 344.440 133.638,344.393 134.422,344.254 134.561 M344.444 138.000 C 344.444 140.030,343.788 140.029,343.744 137.999 C 343.726 137.144,343.876 136.444,344.078 136.444 C 344.279 136.444,344.444 137.144,344.444 138.000 M340.444 138.002 C 340.444 139.075,340.346 139.113,337.736 139.054 C 335.279 138.999,334.741 138.273,337.111 138.213 C 337.600 138.201,338.500 137.905,339.111 137.556 C 339.722 137.206,340.272 136.913,340.333 136.905 C 340.394 136.896,340.444 137.390,340.444 138.002 M351.111 138.693 C 351.111 140.539,350.451 140.325,350.412 138.466 C 350.394 137.623,350.544 137.035,350.745 137.160 C 350.947 137.284,351.111 137.974,351.111 138.693 M357.944 137.808 C 359.311 137.837,359.305 137.846,357.556 138.397 C 356.578 138.704,355.328 139.198,354.778 139.494 C 353.838 139.999,353.778 139.946,353.778 138.627 C 353.778 137.291,353.846 137.236,355.167 137.500 C 355.931 137.653,357.181 137.791,357.944 137.808 M365.498 155.578 C 366.933 164.633,368.021 172.127,367.916 172.232 C 367.811 172.337,365.102 172.298,361.897 172.145 L 356.069 171.866 355.806 168.266 C 355.229 160.341,354.222 144.649,354.222 143.567 C 354.222 142.572,360.583 139.226,362.667 139.125 C 362.789 139.119,364.063 146.523,365.498 155.578 M339.065 141.333 L 340.222 141.332 340.119 147.888 C 340.062 151.494,339.891 158.282,339.738 162.973 L 339.460 171.501 334.699 172.639 C 329.040 173.992,329.373 173.969,329.594 173.000 C 329.754 172.294,331.660 152.003,332.312 144.055 L 332.581 140.777 335.245 141.055 C 336.710 141.208,338.429 141.333,339.065 141.333 M344.448 143.000 C 344.465 148.294,344.972 169.717,345.095 170.333 C 345.205 170.887,344.966 171.111,344.264 171.111 C 343.311 171.111,343.281 170.975,343.363 167.000 C 343.409 164.739,343.506 158.139,343.579 152.333 C 343.651 146.528,343.875 141.778,344.077 141.778 C 344.279 141.778,344.446 142.328,344.448 143.000 M351.298 144.892 C 351.438 146.235,351.753 151.433,351.997 156.444 C 352.242 161.456,352.563 166.906,352.710 168.556 C 352.957 171.306,352.908 171.556,352.130 171.556 C 351.333 171.556,351.277 171.119,351.207 164.333 C 351.166 160.361,351.004 153.711,350.848 149.556 C 350.571 142.190,350.784 139.979,351.298 144.892 M339.556 174.000 C 339.556 174.504,339.041 174.658,337.444 174.631 L 335.333 174.595 337.333 174.022 C 338.433 173.707,339.383 173.423,339.444 173.391 C 339.506 173.359,339.556 173.633,339.556 174.000 M345.333 174.000 C 345.333 174.415,344.914 174.667,344.222 174.667 C 343.531 174.667,343.111 174.415,343.111 174.000 C 343.111 173.585,343.531 173.333,344.222 173.333 C 344.914 173.333,345.333 173.585,345.333 174.000 M352.889 174.889 C 352.889 175.539,352.634 176.000,352.274 176.000 C 351.936 176.000,351.564 175.500,351.447 174.889 C 351.282 174.026,351.419 173.778,352.062 173.778 C 352.648 173.778,352.889 174.102,352.889 174.889 M360.852 174.384 C 360.340 174.832,356.000 175.098,356.000 174.682 C 356.000 174.419,357.080 174.222,358.519 174.222 C 359.904 174.222,360.954 174.295,360.852 174.384 M370.815 188.779 C 371.996 196.295,373.069 202.994,373.200 203.667 C 373.436 204.882,373.423 204.889,370.969 204.889 C 368.509 204.889,368.500 204.884,368.361 203.444 L 368.222 202.000 364.778 201.870 C 362.245 201.775,361.333 201.581,361.333 201.140 C 361.333 200.453,360.379 200.000,358.933 200.000 C 357.958 200.000,357.929 199.841,357.390 191.444 C 357.087 186.739,356.725 181.575,356.586 179.969 L 356.332 177.050 360.277 176.465 C 362.447 176.144,364.922 175.727,365.778 175.540 C 366.633 175.353,367.633 175.181,368.000 175.157 C 368.536 175.123,369.087 177.791,370.815 188.779 M339.454 177.088 C 339.520 177.152,339.438 183.133,339.271 190.380 L 338.969 203.556 333.473 203.556 L 327.978 203.556 327.711 204.889 C 327.310 206.892,326.266 206.609,326.481 204.556 C 326.742 202.068,327.960 189.770,328.474 184.444 C 328.722 181.878,329.038 179.003,329.177 178.057 L 329.430 176.336 334.382 176.655 C 337.105 176.830,339.388 177.025,339.454 177.088 M345.341 180.830 C 345.345 182.696,345.471 187.041,345.619 190.486 C 345.858 196.018,345.805 196.783,345.167 197.028 C 344.598 197.247,344.444 197.948,344.444 200.336 C 344.444 203.055,344.352 203.373,343.549 203.434 C 342.700 203.498,342.664 203.294,342.845 199.417 C 342.950 197.171,343.053 191.211,343.073 186.173 L 343.111 177.012 344.222 177.225 C 345.291 177.429,345.334 177.566,345.341 180.830 M353.390 181.000 C 353.421 182.772,353.496 184.722,353.556 185.333 C 353.617 185.944,353.800 188.744,353.964 191.556 L 354.263 196.667 353.131 196.667 C 352.072 196.667,351.999 196.525,351.983 194.444 C 351.973 193.222,351.850 188.972,351.709 185.000 C 351.455 177.860,351.462 177.778,352.393 177.778 C 353.259 177.778,353.338 178.033,353.390 181.000 M276.000 204.444 C 276.000 204.689,276.400 204.889,276.889 204.889 C 277.378 204.889,277.778 204.689,277.778 204.444 C 277.778 204.200,277.378 204.000,276.889 204.000 C 276.400 204.000,276.000 204.200,276.000 204.444 " stroke="none" fill="#ffffff" fill-rule="evenodd"></path></g></svg>