<?xml version="1.0" encoding="UTF-8" standalone="no"?>
<!-- Created with Inkscape (http://www.inkscape.org/) -->

<svg
   xmlns:dc="http://purl.org/dc/elements/1.1/"
   xmlns:cc="http://creativecommons.org/ns#"
   xmlns:rdf="http://www.w3.org/1999/02/22-rdf-syntax-ns#"
   xmlns:svg="http://www.w3.org/2000/svg"
   xmlns="http://www.w3.org/2000/svg"
   xmlns:sodipodi="http://sodipodi.sourceforge.net/DTD/sodipodi-0.dtd"
   xmlns:inkscape="http://www.inkscape.org/namespaces/inkscape"
   width="119.60509mm"
   height="37.29108mm"
   viewBox="0 0 423.79755 132.13375"
   id="svg4206"
   version="1.1"
   inkscape:version="0.91 r13725"
   sodipodi:docname="logo.svg">
  <defs
     id="defs4208" />
  <sodipodi:namedview
     id="base"
     pagecolor="#ffffff"
     bordercolor="#666666"
     borderopacity="1.0"
     inkscape:pageopacity="0.0"
     inkscape:pageshadow="2"
     inkscape:zoom="1.979899"
     inkscape:cx="116.94218"
     inkscape:cy="63.233053"
     inkscape:document-units="px"
     inkscape:current-layer="layer1"
     showgrid="false"
     inkscape:showpageshadow="false"
     fit-margin-top="0"
     fit-margin-left="0"
     fit-margin-right="0"
     fit-margin-bottom="0"
     inkscape:window-width="1920"
     inkscape:window-height="1017"
     inkscape:window-x="-8"
     inkscape:window-y="-8"
     inkscape:window-maximized="1" />
  <metadata
     id="metadata4211">
    <rdf:RDF>
      <cc:Work
         rdf:about="">
        <dc:format>image/svg+xml</dc:format>
        <dc:type
           rdf:resource="http://purl.org/dc/dcmitype/StillImage" />
        <dc:title></dc:title>
      </cc:Work>
    </rdf:RDF>
  </metadata>
  <g
     inkscape:label="Layer 1"
     inkscape:groupmode="layer"
     id="layer1"
     transform="translate(-58.708261,-405.09699)">
    <g
       transform="translate(15.646981,280.87646)"
       style="font-style:normal;font-variant:normal;font-weight:900;font-stretch:normal;font-size:72px;line-height:125%;font-family:Roboto;-inkscape-font-specification:'Roboto Heavy';letter-spacing:0px;word-spacing:0px;fill:#000000;fill-opacity:1;stroke:none;stroke-width:1px;stroke-linecap:butt;stroke-linejoin:miter;stroke-opacity:1"
       id="flowRoot4136">
      <path
         d="m 88.982578,215.08453 -45.504,0 0,-89.424 24.624,0 0,69.408 22.32,0 -1.44,20.016 z"
         style="font-style:normal;font-variant:normal;font-weight:normal;font-stretch:normal;font-size:144px;font-family:'Passion One';-inkscape-font-specification:'Passion One'"
         id="path4860" />
      <path
         d="m 159.73383,215.08453 -24.048,0 -2.736,-14.112 -16.992,0 -2.736,14.112 -22.896002,0 16.416002,-89.424 36.576,0 16.416,89.424 z m -29.52,-30.96 -5.04,-31.968 -1.008,0 -5.04,31.968 11.088,0 z"
         style="font-style:normal;font-variant:normal;font-weight:normal;font-stretch:normal;font-size:144px;font-family:'Passion One';-inkscape-font-specification:'Passion One'"
         id="path4862" />
      <path
         d="m 256.07658,125.66053 -8.064,89.424 -29.664,0 -7.776,-39.6 -1.152,0 -6.48,39.6 -29.808,0 -9.36,-89.424 23.616,0 3.744,47.376 1.44,0 6.048,-47.376 24.048,0 6.624,47.376 1.44,0 2.592,-47.376 22.752,0 z"
         style="font-style:normal;font-variant:normal;font-weight:normal;font-stretch:normal;font-size:144px;font-family:'Passion One';-inkscape-font-specification:'Passion One'"
         id="path4864" />
      <path
         d="m 287.56083,171.30853 q 0,12.672 2.448,18.144 2.592,5.328 8.352,5.328 5.76,0 16.272,-2.736 l 3.744,20.304 q -11.376,4.176 -22.896,4.176 -17.28,0 -25.2,-11.376 -7.776,-11.52 -7.776,-34.128 0,-22.752 8.208,-34.704 8.208,-12.096 26.784,-12.096 10.944,0 20.88,4.608 l -3.888,22.32 q -11.232,-3.744 -15.696,-3.744 -6.336,0 -8.784,5.616 -2.448,5.472 -2.448,18.288 z"
         style="font-style:normal;font-variant:normal;font-weight:normal;font-stretch:normal;font-size:144px;font-family:'Passion One';-inkscape-font-specification:'Passion One'"
         id="path4866" />
      <path
         d="m 390.54333,215.08453 -24.48,0 0,-33.84 -16.848,0 0,33.84 -24.768,0 0,-89.424 24.768,0 0,35.136 16.848,0 0,-35.136 24.48,0 0,89.424 z"
         style="font-style:normal;font-variant:normal;font-weight:normal;font-stretch:normal;font-size:144px;font-family:'Passion One';-inkscape-font-specification:'Passion One'"
         id="path4868" />
      <path
         d="m 466.85883,215.08453 -24.048,0 -2.736,-14.112 -16.992,0 -2.736,14.112 -22.896,0 16.416,-89.424 36.576,0 16.416,89.424 z m -29.52,-30.96 -5.04,-31.968 -1.008,0 -5.04,31.968 11.088,0 z"
         style="font-style:normal;font-variant:normal;font-weight:normal;font-stretch:normal;font-size:144px;font-family:'Passion One';-inkscape-font-specification:'Passion One'"
         id="path4870" />
    </g>
    <g
       style="font-style:normal;font-weight:normal;font-size:40px;line-height:125%;font-family:sans-serif;letter-spacing:0px;word-spacing:0px;fill:#000000;fill-opacity:1;stroke:none;stroke-width:1px;stroke-linecap:butt;stroke-linejoin:miter;stroke-opacity:1"
       id="text4144">
      <path
         d="m 67.29678,515.55682 -3.739746,0 0,12.17676 -1.038819,0 0,-12.17676 -3.730713,0 0,-0.97558 8.509278,0 0,0.97558 z"
         style="font-style:normal;font-variant:normal;font-weight:300;font-stretch:normal;font-size:18.5px;font-family:'Roboto Condensed';-inkscape-font-specification:'Roboto Condensed, Light'"
         id="path4775" />
      <path
         d="m 77.666897,527.73358 -1.038819,0 0,-6.29614 -6.17871,0 0,6.29614 -1.029786,0 0,-13.15234 1.029786,0 0,5.89868 6.17871,0 0,-5.89868 1.038819,0 0,13.15234 z"
         style="font-style:normal;font-variant:normal;font-weight:300;font-stretch:normal;font-size:18.5px;font-family:'Roboto Condensed';-inkscape-font-specification:'Roboto Condensed, Light'"
         id="path4777" />
      <path
         d="m 86.934963,521.43744 -5.10376,0 0,5.33862 5.871582,0 0,0.95752 -6.901367,0 0,-13.15234 6.856201,0 0,0.97558 -5.826416,0 0,4.9231 5.10376,0 0,0.95752 z"
         style="font-style:normal;font-variant:normal;font-weight:300;font-stretch:normal;font-size:18.5px;font-family:'Roboto Condensed';-inkscape-font-specification:'Roboto Condensed, Light'"
         id="path4779" />
      <path
         d="m 95.209377,526.77606 5.419923,0 0,0.95752 -6.458741,0 0,-13.15234 1.038818,0 0,12.19482 z"
         style="font-style:normal;font-variant:normal;font-weight:300;font-stretch:normal;font-size:18.5px;font-family:'Roboto Condensed';-inkscape-font-specification:'Roboto Condensed, Light'"
         id="path4781" />
      <path
         d="m 108.93081,524.05707 -4.93213,0 -1.12011,3.67651 -1.07495,0 4.1914,-13.15234 0.95752,0 4.19141,13.15234 -1.07495,0 -1.13819,-3.67651 z m -4.63403,-0.96655 4.33594,0 -2.16797,-7.05494 -2.16797,7.05494 z"
         style="font-style:normal;font-variant:normal;font-weight:300;font-stretch:normal;font-size:18.5px;font-family:'Roboto Condensed';-inkscape-font-specification:'Roboto Condensed, Light'"
         id="path4783" />
      <path
         d="m 113.10415,527.73358 0,-13.15234 3.33325,0 q 1.77955,0 2.6919,0.87622 0.92139,0.86719 0.92139,2.56543 0,1.01172 -0.46973,1.76147 -0.46973,0.74976 -1.30078,1.08399 0.95752,0.24389 1.54468,1.12011 0.59619,0.86719 0.59619,2.04151 0,1.71631 -0.93946,2.70996 -0.93945,0.99365 -2.66479,0.99365 l -3.71265,0 z m 1.02979,-6.31421 0,5.35669 2.72803,0 q 1.17431,0 1.8518,-0.72265 0.67749,-0.72266 0.67749,-2.00538 0,-1.19238 -0.63232,-1.89697 -0.62329,-0.70459 -1.74341,-0.73169 l -2.88159,0 z m 0,-0.94848 2.3938,0 q 1.17431,0 1.8247,-0.62329 0.65039,-0.6233 0.65039,-1.85181 0,-1.25562 -0.64135,-1.84277 -0.63233,-0.5962 -1.92408,-0.5962 l -2.30346,0 0,4.91407 z"
         style="font-style:normal;font-variant:normal;font-weight:300;font-stretch:normal;font-size:18.5px;font-family:'Roboto Condensed';-inkscape-font-specification:'Roboto Condensed, Light'"
         id="path4785" />
      <path
         d="m 131.16153,522.58466 q 0,2.54736 -1.12012,3.93847 -1.11109,1.39112 -3.12549,1.39112 -1.99634,0 -3.13452,-1.39112 -1.12915,-1.39111 -1.13818,-3.91137 l 0,-2.86353 q 0,-2.53833 1.12915,-3.93848 1.12915,-1.40918 3.12548,-1.40918 2.02344,0 3.14356,1.40918 1.12012,1.40918 1.12012,3.96558 l 0,2.80933 z m -1.03882,-2.8545 q 0,-2.15893 -0.83106,-3.24292 -0.83105,-1.08398 -2.3938,-1.08398 -1.50854,0 -2.35766,1.06592 -0.84912,1.05688 -0.86719,3.17065 l 0,2.94483 q 0,2.16796 0.85815,3.26098 0.85816,1.08399 2.38477,1.08399 1.57178,0 2.38477,-1.08399 0.82202,-1.08398 0.82202,-3.26098 l 0,-2.8545 z"
         style="font-style:normal;font-variant:normal;font-weight:300;font-stretch:normal;font-size:18.5px;font-family:'Roboto Condensed';-inkscape-font-specification:'Roboto Condensed, Light'"
         id="path4787" />
      <path
         d="m 138.00869,522.25946 -3.07129,0 0,5.47412 -1.03881,0 0,-13.15234 3.60424,0 q 1.79761,0 2.78223,1.02978 0.99365,1.02075 0.99365,2.84546 0,1.27368 -0.61425,2.24024 -0.61426,0.95752 -1.65308,1.32788 l 2.73706,5.59155 0,0.11743 -1.10205,0 -2.6377,-5.47412 z m -3.07129,-0.95752 2.7461,0 q 1.16528,0 1.86084,-0.79492 0.69555,-0.80396 0.69555,-2.05054 0,-1.38208 -0.72265,-2.14087 -0.72266,-0.75879 -2.02344,-0.75879 l -2.5564,0 0,5.74512 z"
         style="font-style:normal;font-variant:normal;font-weight:300;font-stretch:normal;font-size:18.5px;font-family:'Roboto Condensed';-inkscape-font-specification:'Roboto Condensed, Light'"
         id="path4789" />
      <path
         d="m 154.24136,524.05707 -4.93213,0 -1.12012,3.67651 -1.07495,0 4.19141,-13.15234 0.95752,0 4.1914,13.15234 -1.07495,0 -1.13818,-3.67651 z m -4.63403,-0.96655 4.33593,0 -2.16796,-7.05494 -2.16797,7.05494 z"
         style="font-style:normal;font-variant:normal;font-weight:300;font-stretch:normal;font-size:18.5px;font-family:'Roboto Condensed';-inkscape-font-specification:'Roboto Condensed, Light'"
         id="path4791" />
      <path
         d="m 166.68911,527.73358 -1.02978,0 -6.20581,-11.20117 0,11.20117 -1.03882,0 0,-13.15234 1.03882,0 6.21484,11.21924 0,-11.21924 1.02075,0 0,13.15234 z"
         style="font-style:normal;font-variant:normal;font-weight:300;font-stretch:normal;font-size:18.5px;font-family:'Roboto Condensed';-inkscape-font-specification:'Roboto Condensed, Light'"
         id="path4793" />
      <path
         d="m 169.83267,527.73358 0,-13.15234 3.09839,0 q 2.14087,0 3.38745,1.37304 1.24658,1.36402 1.28271,3.76685 l 0,2.75513 q 0,2.47509 -1.26465,3.86621 -1.25561,1.39111 -3.53198,1.39111 l -2.97192,0 z m 1.02978,-12.17676 0,11.21924 1.99634,0 q 1.76148,0 2.72803,-1.08398 0.96655,-1.09302 0.99365,-3.11646 l 0,-2.75512 q 0,-2.02344 -0.94849,-3.14356 -0.93945,-1.12012 -2.72802,-1.12012 l -2.04151,0 z"
         style="font-style:normal;font-variant:normal;font-weight:300;font-stretch:normal;font-size:18.5px;font-family:'Roboto Condensed';-inkscape-font-specification:'Roboto Condensed, Light'"
         id="path4795" />
      <path
         d="m 186.64346,524.15643 0.31616,1.95117 0.39746,-1.86083 2.35767,-9.66553 0.92139,0 2.32153,9.66553 0.38843,1.8789 0.34326,-1.96924 1.94214,-9.57519 1.04785,0 -2.80029,13.15234 -0.97559,0 -2.46607,-10.25268 -0.26196,-1.21949 -0.25293,1.21949 -2.52026,10.25268 -0.98462,0 -2.79126,-13.15234 1.05688,0 1.96021,9.57519 z"
         style="font-style:normal;font-variant:normal;font-weight:300;font-stretch:normal;font-size:18.5px;font-family:'Roboto Condensed';-inkscape-font-specification:'Roboto Condensed, Light'"
         id="path4797" />
      <path
         d="m 206.96817,522.58466 q 0,2.54736 -1.12012,3.93847 -1.11108,1.39112 -3.12549,1.39112 -1.99634,0 -3.13452,-1.39112 -1.12915,-1.39111 -1.13818,-3.91137 l 0,-2.86353 q 0,-2.53833 1.12915,-3.93848 1.12915,-1.40918 3.12548,-1.40918 2.02344,0 3.14356,1.40918 1.12012,1.40918 1.12012,3.96558 l 0,2.80933 z m -1.03882,-2.8545 q 0,-2.15893 -0.83106,-3.24292 -0.83105,-1.08398 -2.3938,-1.08398 -1.50854,0 -2.35766,1.06592 -0.84912,1.05688 -0.86719,3.17065 l 0,2.94483 q 0,2.16796 0.85816,3.26098 0.85815,1.08399 2.38476,1.08399 1.57178,0 2.38477,-1.08399 0.82202,-1.08398 0.82202,-3.26098 l 0,-2.8545 z"
         style="font-style:normal;font-variant:normal;font-weight:300;font-stretch:normal;font-size:18.5px;font-family:'Roboto Condensed';-inkscape-font-specification:'Roboto Condensed, Light'"
         id="path4799" />
      <path
         d="m 213.81533,522.25946 -3.07128,0 0,5.47412 -1.03882,0 0,-13.15234 3.60424,0 q 1.79761,0 2.78223,1.02978 0.99365,1.02075 0.99365,2.84546 0,1.27368 -0.61425,2.24024 -0.61426,0.95752 -1.65308,1.32788 l 2.73706,5.59155 0,0.11743 -1.10205,0 -2.6377,-5.47412 z m -3.07128,-0.95752 2.74609,0 q 1.16528,0 1.86084,-0.79492 0.69556,-0.80396 0.69556,-2.05054 0,-1.38208 -0.72266,-2.14087 -0.72266,-0.75879 -2.02344,-0.75879 l -2.55639,0 0,5.74512 z"
         style="font-style:normal;font-variant:normal;font-weight:300;font-stretch:normal;font-size:18.5px;font-family:'Roboto Condensed';-inkscape-font-specification:'Roboto Condensed, Light'"
         id="path4801" />
      <path
         d="m 222.46914,521.24774 -1.52661,1.77051 0,4.71533 -1.02978,0 0,-13.15234 1.02978,0 0,7.00976 1.44531,-1.80664 4.07398,-5.20312 1.29175,0 -4.58887,5.85351 4.94116,7.29883 -1.25561,0 -4.38111,-6.48584 z"
         style="font-style:normal;font-variant:normal;font-weight:300;font-stretch:normal;font-size:18.5px;font-family:'Roboto Condensed';-inkscape-font-specification:'Roboto Condensed, Light'"
         id="path4803" />
      <path
         d="m 231.28555,527.73358 -1.02979,0 0,-13.15234 1.02979,0 0,13.15234 z"
         style="font-style:normal;font-variant:normal;font-weight:300;font-stretch:normal;font-size:18.5px;font-family:'Roboto Condensed';-inkscape-font-specification:'Roboto Condensed, Light'"
         id="path4805" />
      <path
         d="m 242.85708,527.73358 -1.02978,0 -6.20581,-11.20117 0,11.20117 -1.03882,0 0,-13.15234 1.03882,0 6.21484,11.21924 0,-11.21924 1.02075,0 0,13.15234 z"
         style="font-style:normal;font-variant:normal;font-weight:300;font-stretch:normal;font-size:18.5px;font-family:'Roboto Condensed';-inkscape-font-specification:'Roboto Condensed, Light'"
         id="path4807" />
      <path
         d="m 254.01309,526.20697 q -0.65943,0.84912 -1.66211,1.28272 -1.00269,0.42456 -2.19507,0.42456 -2.02344,0 -3.17969,-1.35498 -1.15625,-1.35499 -1.20141,-3.75782 l 0,-3.19775 q 0,-2.52026 1.09301,-3.85718 1.10206,-1.34595 3.13453,-1.34595 1.81567,0 2.84546,1.00269 1.02978,1.00268 1.15625,2.89062 l -1.02979,0 q -0.1626,-1.51757 -0.89429,-2.21313 -0.72265,-0.70459 -2.0686,-0.70459 -1.60791,0 -2.41187,1.07495 -0.79492,1.06592 -0.79492,3.13452 l 0,3.03516 q 0,2.05957 0.87622,3.19775 0.88526,1.13819 2.4751,1.13819 1.72534,0 2.81836,-1.09302 l 0,-3.42359 -2.88159,0 0,-0.96655 3.92041,0 0,4.7334 z"
         style="font-style:normal;font-variant:normal;font-weight:300;font-stretch:normal;font-size:18.5px;font-family:'Roboto Condensed';-inkscape-font-specification:'Roboto Condensed, Light'"
         id="path4809" />
      <path
         d="m 259.61367,522.40399 -3.64941,0 0,-0.93042 3.64941,0 0,0.93042 z"
         style="font-style:normal;font-variant:normal;font-weight:300;font-stretch:normal;font-size:18.5px;font-family:'Roboto Condensed';-inkscape-font-specification:'Roboto Condensed, Light'"
         id="path4811" />
      <path
         d="m 269.64053,523.63251 q -0.14453,2.21313 -1.19238,3.25195 -1.04785,1.02979 -2.89966,1.02979 -1.90601,0 -3.00806,-1.43628 -1.10205,-1.44532 -1.11108,-3.92041 l 0,-2.8545 q 0,-2.48413 1.12012,-3.89331 1.12915,-1.40918 3.08032,-1.40918 1.84277,0 2.85449,1.05689 1.01172,1.05688 1.15625,3.24292 l -1.04785,0 q -0.14453,-1.78858 -0.84912,-2.5564 -0.69556,-0.76782 -2.11377,-0.76782 -1.49048,0 -2.32154,1.11108 -0.83105,1.11109 -0.83105,3.22486 l 0,2.81836 q 0,2.0957 0.80395,3.26098 0.80396,1.16529 2.26734,1.16529 1.53564,0 2.22217,-0.76783 0.68652,-0.76782 0.82202,-2.55639 l 1.04785,0 z"
         style="font-style:normal;font-variant:normal;font-weight:300;font-stretch:normal;font-size:18.5px;font-family:'Roboto Condensed';-inkscape-font-specification:'Roboto Condensed, Light'"
         id="path4813" />
      <path
         d="m 273.27188,526.77606 5.41992,0 0,0.95752 -6.45874,0 0,-13.15234 1.03882,0 0,12.19482 z"
         style="font-style:normal;font-variant:normal;font-weight:300;font-stretch:normal;font-size:18.5px;font-family:'Roboto Condensed';-inkscape-font-specification:'Roboto Condensed, Light'"
         id="path4815" />
      <path
         d="m 286.99331,524.05707 -4.93213,0 -1.12011,3.67651 -1.07495,0 4.1914,-13.15234 0.95752,0 4.19141,13.15234 -1.07495,0 -1.13819,-3.67651 z m -4.63403,-0.96655 4.33594,0 -2.16797,-7.05494 -2.16797,7.05494 z"
         style="font-style:normal;font-variant:normal;font-weight:300;font-stretch:normal;font-size:18.5px;font-family:'Roboto Condensed';-inkscape-font-specification:'Roboto Condensed, Light'"
         id="path4817" />
      <path
         d="m 297.34536,524.49969 q 0,-1.10205 -0.63232,-1.73437 -0.62329,-0.63232 -2.3396,-1.21045 -1.71631,-0.57812 -2.52026,-1.29175 -1.05689,-0.93042 -1.05689,-2.45703 0,-1.50854 1.03882,-2.45703 1.03882,-0.94849 2.68286,-0.94849 1.68018,0 2.74609,1.10205 1.06592,1.10206 1.06592,2.83643 l -1.03882,0 q 0,-1.32788 -0.74975,-2.14087 -0.74072,-0.82202 -2.02344,-0.82202 -1.24658,0 -1.96924,0.67749 -0.71362,0.66846 -0.71362,1.73437 0,0.99366 0.67749,1.62598 0.67749,0.63233 2.15894,1.12915 1.48144,0.48779 2.24023,1.02075 0.75879,0.52393 1.12012,1.23755 0.36133,0.71363 0.36133,1.68018 0,1.54468 -1.04786,2.49316 -1.03881,0.93946 -2.75512,0.93946 -1.15625,0 -2.11377,-0.46973 -0.94849,-0.47876 -1.49048,-1.36401 -0.53296,-0.89429 -0.53296,-2.10474 l 1.02978,0 q 0,1.39111 0.84009,2.18603 0.84009,0.79493 2.26734,0.79493 1.24658,0 1.99633,-0.66846 0.75879,-0.66846 0.75879,-1.78858 z"
         style="font-style:normal;font-variant:normal;font-weight:300;font-stretch:normal;font-size:18.5px;font-family:'Roboto Condensed';-inkscape-font-specification:'Roboto Condensed, Light'"
         id="path4819" />
      <path
         d="m 306.92056,524.49969 q 0,-1.10205 -0.63233,-1.73437 -0.62329,-0.63232 -2.33959,-1.21045 -1.71631,-0.57812 -2.52027,-1.29175 -1.05688,-0.93042 -1.05688,-2.45703 0,-1.50854 1.03882,-2.45703 1.03881,-0.94849 2.68286,-0.94849 1.68017,0 2.74609,1.10205 1.06592,1.10206 1.06592,2.83643 l -1.03882,0 q 0,-1.32788 -0.74976,-2.14087 -0.74072,-0.82202 -2.02343,-0.82202 -1.24659,0 -1.96924,0.67749 -0.71362,0.66846 -0.71362,1.73437 0,0.99366 0.67749,1.62598 0.67749,0.63233 2.15893,1.12915 1.48145,0.48779 2.24024,1.02075 0.75878,0.52393 1.12011,1.23755 0.36133,0.71363 0.36133,1.68018 0,1.54468 -1.04785,2.49316 -1.03882,0.93946 -2.75513,0.93946 -1.15625,0 -2.11377,-0.46973 -0.94848,-0.47876 -1.49048,-1.36401 -0.53296,-0.89429 -0.53296,-2.10474 l 1.02979,0 q 0,1.39111 0.84009,2.18603 0.84009,0.79493 2.26733,0.79493 1.24658,0 1.99634,-0.66846 0.75879,-0.66846 0.75879,-1.78858 z"
         style="font-style:normal;font-variant:normal;font-weight:300;font-stretch:normal;font-size:18.5px;font-family:'Roboto Condensed';-inkscape-font-specification:'Roboto Condensed, Light'"
         id="path4821" />
      <path
         d="m 322.71963,527.73358 -1.03882,0 0,-6.29614 -6.17871,0 0,6.29614 -1.02978,0 0,-13.15234 1.02978,0 0,5.89868 6.17871,0 0,-5.89868 1.03882,0 0,13.15234 z"
         style="font-style:normal;font-variant:normal;font-weight:300;font-stretch:normal;font-size:18.5px;font-family:'Roboto Condensed';-inkscape-font-specification:'Roboto Condensed, Light'"
         id="path4823" />
      <path
         d="m 327.07364,527.73358 -1.02979,0 0,-13.15234 1.02979,0 0,13.15234 z"
         style="font-style:normal;font-variant:normal;font-weight:300;font-stretch:normal;font-size:18.5px;font-family:'Roboto Condensed';-inkscape-font-specification:'Roboto Condensed, Light'"
         id="path4825" />
      <path
         d="m 336.54947,524.49969 q 0,-1.10205 -0.63233,-1.73437 -0.62329,-0.63232 -2.3396,-1.21045 -1.71631,-0.57812 -2.52026,-1.29175 -1.05689,-0.93042 -1.05689,-2.45703 0,-1.50854 1.03882,-2.45703 1.03882,-0.94849 2.68286,-0.94849 1.68018,0 2.7461,1.10205 1.06591,1.10206 1.06591,2.83643 l -1.03881,0 q 0,-1.32788 -0.74976,-2.14087 -0.74072,-0.82202 -2.02344,-0.82202 -1.24658,0 -1.96924,0.67749 -0.71362,0.66846 -0.71362,1.73437 0,0.99366 0.67749,1.62598 0.67749,0.63233 2.15894,1.12915 1.48144,0.48779 2.24023,1.02075 0.75879,0.52393 1.12012,1.23755 0.36133,0.71363 0.36133,1.68018 0,1.54468 -1.04785,2.49316 -1.03882,0.93946 -2.75513,0.93946 -1.15625,0 -2.11377,-0.46973 -0.94849,-0.47876 -1.49048,-1.36401 -0.53296,-0.89429 -0.53296,-2.10474 l 1.02979,0 q 0,1.39111 0.84008,2.18603 0.84009,0.79493 2.26734,0.79493 1.24658,0 1.99634,-0.66846 0.75879,-0.66846 0.75879,-1.78858 z"
         style="font-style:normal;font-variant:normal;font-weight:300;font-stretch:normal;font-size:18.5px;font-family:'Roboto Condensed';-inkscape-font-specification:'Roboto Condensed, Light'"
         id="path4827" />
      <path
         d="m 347.47061,515.55682 -3.73975,0 0,12.17676 -1.03882,0 0,-12.17676 -3.73071,0 0,-0.97558 8.50928,0 0,0.97558 z"
         style="font-style:normal;font-variant:normal;font-weight:300;font-stretch:normal;font-size:18.5px;font-family:'Roboto Condensed';-inkscape-font-specification:'Roboto Condensed, Light'"
         id="path4829" />
      <path
         d="m 357.49746,522.58466 q 0,2.54736 -1.12011,3.93847 -1.11109,1.39112 -3.12549,1.39112 -1.99634,0 -3.13452,-1.39112 -1.12915,-1.39111 -1.13819,-3.91137 l 0,-2.86353 q 0,-2.53833 1.12915,-3.93848 1.12915,-1.40918 3.12549,-1.40918 2.02344,0 3.14356,1.40918 1.12011,1.40918 1.12011,3.96558 l 0,2.80933 z m -1.03882,-2.8545 q 0,-2.15893 -0.83105,-3.24292 -0.83105,-1.08398 -2.3938,-1.08398 -1.50854,0 -2.35766,1.06592 -0.84913,1.05688 -0.86719,3.17065 l 0,2.94483 q 0,2.16796 0.85815,3.26098 0.85816,1.08399 2.38477,1.08399 1.57178,0 2.38476,-1.08399 0.82202,-1.08398 0.82202,-3.26098 l 0,-2.8545 z"
         style="font-style:normal;font-variant:normal;font-weight:300;font-stretch:normal;font-size:18.5px;font-family:'Roboto Condensed';-inkscape-font-specification:'Roboto Condensed, Light'"
         id="path4831" />
      <path
         d="m 364.34463,522.25946 -3.07129,0 0,5.47412 -1.03882,0 0,-13.15234 3.60425,0 q 1.79761,0 2.78223,1.02978 0.99365,1.02075 0.99365,2.84546 0,1.27368 -0.61426,2.24024 -0.61425,0.95752 -1.65307,1.32788 l 2.73706,5.59155 0,0.11743 -1.10205,0 -2.6377,-5.47412 z m -3.07129,-0.95752 2.7461,0 q 1.16528,0 1.86084,-0.79492 0.69555,-0.80396 0.69555,-2.05054 0,-1.38208 -0.72265,-2.14087 -0.72266,-0.75879 -2.02344,-0.75879 l -2.5564,0 0,5.74512 z"
         style="font-style:normal;font-variant:normal;font-weight:300;font-stretch:normal;font-size:18.5px;font-family:'Roboto Condensed';-inkscape-font-specification:'Roboto Condensed, Light'"
         id="path4833" />
      <path
         d="m 373.27847,521.73553 3.27905,-7.15429 1.18335,0 -3.95654,8.20215 0,4.95019 -1.02979,0 0,-4.95019 -3.94751,-8.20215 1.21045,0 3.26099,7.15429 z"
         style="font-style:normal;font-variant:normal;font-weight:300;font-stretch:normal;font-size:18.5px;font-family:'Roboto Condensed';-inkscape-font-specification:'Roboto Condensed, Light'"
         id="path4835" />
      <path
         d="m 389.8273,524.05707 -4.93213,0 -1.12012,3.67651 -1.07495,0 4.19141,-13.15234 0.95752,0 4.1914,13.15234 -1.07495,0 -1.13818,-3.67651 z m -4.63404,-0.96655 4.33594,0 -2.16797,-7.05494 -2.16797,7.05494 z"
         style="font-style:normal;font-variant:normal;font-weight:300;font-stretch:normal;font-size:18.5px;font-family:'Roboto Condensed';-inkscape-font-specification:'Roboto Condensed, Light'"
         id="path4837" />
      <path
         d="m 400.17935,524.49969 q 0,-1.10205 -0.63233,-1.73437 -0.62329,-0.63232 -2.3396,-1.21045 -1.7163,-0.57812 -2.52026,-1.29175 -1.05688,-0.93042 -1.05688,-2.45703 0,-1.50854 1.03881,-2.45703 1.03882,-0.94849 2.68287,-0.94849 1.68017,0 2.74609,1.10205 1.06592,1.10206 1.06592,2.83643 l -1.03882,0 q 0,-1.32788 -0.74976,-2.14087 -0.74072,-0.82202 -2.02343,-0.82202 -1.24659,0 -1.96924,0.67749 -0.71363,0.66846 -0.71363,1.73437 0,0.99366 0.67749,1.62598 0.67749,0.63233 2.15894,1.12915 1.48145,0.48779 2.24023,1.02075 0.75879,0.52393 1.12012,1.23755 0.36133,0.71363 0.36133,1.68018 0,1.54468 -1.04785,2.49316 -1.03882,0.93946 -2.75513,0.93946 -1.15625,0 -2.11377,-0.46973 -0.94848,-0.47876 -1.49048,-1.36401 -0.53296,-0.89429 -0.53296,-2.10474 l 1.02979,0 q 0,1.39111 0.84009,2.18603 0.84008,0.79493 2.26733,0.79493 1.24658,0 1.99634,-0.66846 0.75879,-0.66846 0.75879,-1.78858 z"
         style="font-style:normal;font-variant:normal;font-weight:300;font-stretch:normal;font-size:18.5px;font-family:'Roboto Condensed';-inkscape-font-specification:'Roboto Condensed, Light'"
         id="path4839" />
      <path
         d="m 409.75454,524.49969 q 0,-1.10205 -0.63232,-1.73437 -0.62329,-0.63232 -2.3396,-1.21045 -1.71631,-0.57812 -2.52026,-1.29175 -1.05689,-0.93042 -1.05689,-2.45703 0,-1.50854 1.03882,-2.45703 1.03882,-0.94849 2.68286,-0.94849 1.68018,0 2.74609,1.10205 1.06592,1.10206 1.06592,2.83643 l -1.03882,0 q 0,-1.32788 -0.74975,-2.14087 -0.74072,-0.82202 -2.02344,-0.82202 -1.24658,0 -1.96924,0.67749 -0.71362,0.66846 -0.71362,1.73437 0,0.99366 0.67749,1.62598 0.67749,0.63233 2.15894,1.12915 1.48144,0.48779 2.24023,1.02075 0.75879,0.52393 1.12012,1.23755 0.36132,0.71363 0.36132,1.68018 0,1.54468 -1.04785,2.49316 -1.03882,0.93946 -2.75512,0.93946 -1.15625,0 -2.11377,-0.46973 -0.94849,-0.47876 -1.49048,-1.36401 -0.53296,-0.89429 -0.53296,-2.10474 l 1.02978,0 q 0,1.39111 0.84009,2.18603 0.84009,0.79493 2.26734,0.79493 1.24658,0 1.99633,-0.66846 0.75879,-0.66846 0.75879,-1.78858 z"
         style="font-style:normal;font-variant:normal;font-weight:300;font-stretch:normal;font-size:18.5px;font-family:'Roboto Condensed';-inkscape-font-specification:'Roboto Condensed, Light'"
         id="path4841" />
      <path
         d="m 421.30801,522.58466 q 0,2.54736 -1.12012,3.93847 -1.11108,1.39112 -3.12549,1.39112 -1.99633,0 -3.13452,-1.39112 -1.12915,-1.39111 -1.13818,-3.91137 l 0,-2.86353 q 0,-2.53833 1.12915,-3.93848 1.12915,-1.40918 3.12549,-1.40918 2.02344,0 3.14355,1.40918 1.12012,1.40918 1.12012,3.96558 l 0,2.80933 z m -1.03882,-2.8545 q 0,-2.15893 -0.83105,-3.24292 -0.83106,-1.08398 -2.3938,-1.08398 -1.50855,0 -2.35767,1.06592 -0.84912,1.05688 -0.86719,3.17065 l 0,2.94483 q 0,2.16796 0.85816,3.26098 0.85815,1.08399 2.38476,1.08399 1.57178,0 2.38477,-1.08399 0.82202,-1.08398 0.82202,-3.26098 l 0,-2.8545 z"
         style="font-style:normal;font-variant:normal;font-weight:300;font-stretch:normal;font-size:18.5px;font-family:'Roboto Condensed';-inkscape-font-specification:'Roboto Condensed, Light'"
         id="path4843" />
      <path
         d="m 431.94912,523.63251 q -0.14453,2.21313 -1.19238,3.25195 -1.04785,1.02979 -2.89966,1.02979 -1.906,0 -3.00805,-1.43628 -1.10206,-1.44532 -1.11109,-3.92041 l 0,-2.8545 q 0,-2.48413 1.12012,-3.89331 1.12915,-1.40918 3.08032,-1.40918 1.84277,0 2.85449,1.05689 1.01172,1.05688 1.15625,3.24292 l -1.04785,0 q -0.14453,-1.78858 -0.84912,-2.5564 -0.69556,-0.76782 -2.11377,-0.76782 -1.49048,0 -2.32153,1.11108 -0.83106,1.11109 -0.83106,3.22486 l 0,2.81836 q 0,2.0957 0.80396,3.26098 0.80395,1.16529 2.26733,1.16529 1.53565,0 2.22217,-0.76783 0.68652,-0.76782 0.82202,-2.55639 l 1.04785,0 z"
         style="font-style:normal;font-variant:normal;font-weight:300;font-stretch:normal;font-size:18.5px;font-family:'Roboto Condensed';-inkscape-font-specification:'Roboto Condensed, Light'"
         id="path4845" />
      <path
         d="m 435.76114,527.73358 -1.02979,0 0,-13.15234 1.02979,0 0,13.15234 z"
         style="font-style:normal;font-variant:normal;font-weight:300;font-stretch:normal;font-size:18.5px;font-family:'Roboto Condensed';-inkscape-font-specification:'Roboto Condensed, Light'"
         id="path4847" />
      <path
         d="m 445.2189,524.05707 -4.93213,0 -1.12012,3.67651 -1.07495,0 4.19141,-13.15234 0.95752,0 4.1914,13.15234 -1.07495,0 -1.13818,-3.67651 z m -4.63403,-0.96655 4.33593,0 -2.16797,-7.05494 -2.16796,7.05494 z"
         style="font-style:normal;font-variant:normal;font-weight:300;font-stretch:normal;font-size:18.5px;font-family:'Roboto Condensed';-inkscape-font-specification:'Roboto Condensed, Light'"
         id="path4849" />
      <path
         d="m 455.76065,515.55682 -3.73975,0 0,12.17676 -1.03882,0 0,-12.17676 -3.73071,0 0,-0.97558 8.50928,0 0,0.97558 z"
         style="font-style:normal;font-variant:normal;font-weight:300;font-stretch:normal;font-size:18.5px;font-family:'Roboto Condensed';-inkscape-font-specification:'Roboto Condensed, Light'"
         id="path4851" />
      <path
         d="m 459.10293,527.73358 -1.02978,0 0,-13.15234 1.02978,0 0,13.15234 z"
         style="font-style:normal;font-variant:normal;font-weight:300;font-stretch:normal;font-size:18.5px;font-family:'Roboto Condensed';-inkscape-font-specification:'Roboto Condensed, Light'"
         id="path4853" />
      <path
         d="m 470.55703,522.58466 q 0,2.54736 -1.12011,3.93847 -1.11109,1.39112 -3.12549,1.39112 -1.99634,0 -3.13452,-1.39112 -1.12915,-1.39111 -1.13819,-3.91137 l 0,-2.86353 q 0,-2.53833 1.12915,-3.93848 1.12915,-1.40918 3.12549,-1.40918 2.02344,0 3.14356,1.40918 1.12011,1.40918 1.12011,3.96558 l 0,2.80933 z m -1.03881,-2.8545 q 0,-2.15893 -0.83106,-3.24292 -0.83105,-1.08398 -2.3938,-1.08398 -1.50854,0 -2.35766,1.06592 -0.84913,1.05688 -0.86719,3.17065 l 0,2.94483 q 0,2.16796 0.85815,3.26098 0.85816,1.08399 2.38477,1.08399 1.57178,0 2.38476,-1.08399 0.82203,-1.08398 0.82203,-3.26098 l 0,-2.8545 z"
         style="font-style:normal;font-variant:normal;font-weight:300;font-stretch:normal;font-size:18.5px;font-family:'Roboto Condensed';-inkscape-font-specification:'Roboto Condensed, Light'"
         id="path4855" />
      <path
         d="m 481.58657,527.73358 -1.02978,0 -6.20581,-11.20117 0,11.20117 -1.03882,0 0,-13.15234 1.03882,0 6.21484,11.21924 0,-11.21924 1.02075,0 0,13.15234 z"
         style="font-style:normal;font-variant:normal;font-weight:300;font-stretch:normal;font-size:18.5px;font-family:'Roboto Condensed';-inkscape-font-specification:'Roboto Condensed, Light'"
         id="path4857" />
    </g>
    <path
       style="fill:none;fill-rule:evenodd;stroke:#000000;stroke-width:0.99402678px;stroke-linecap:butt;stroke-linejoin:miter;stroke-opacity:1"
       d="m 58.965871,505.7336 423.466829,0"
       id="path4148"
       inkscape:connector-curvature="0" />
    <path
       style="fill:none;fill-rule:evenodd;stroke:#000000;stroke-width:0.99428725px;stroke-linecap:butt;stroke-linejoin:miter;stroke-opacity:1"
       d="m 58.708261,536.7336 423.688719,0"
       id="path4148-4"
       inkscape:connector-curvature="0" />
  </g>
</svg>
