<?xml version="1.0" encoding="UTF-8" standalone="no"?>
<!-- Created with Inkscape (http://www.inkscape.org/) -->
<svg id="svg4206" xmlns:rdf="http://www.w3.org/1999/02/22-rdf-syntax-ns#" xmlns="http://www.w3.org/2000/svg" height="37.291mm" width="119.61mm" version="1.1" xmlns:cc="http://creativecommons.org/ns#" xmlns:dc="http://purl.org/dc/elements/1.1/" viewBox="0 0 423.79755 132.13375">
 <metadata id="metadata4211">
  <rdf:RDF>
   <cc:Work rdf:about="">
    <dc:format>image/svg+xml</dc:format>
    <dc:type rdf:resource="http://purl.org/dc/dcmitype/StillImage"/>
    <dc:title/>
   </cc:Work>
  </rdf:RDF>
 </metadata>
 <g id="layer1" transform="translate(-58.708 -405.1)">
  <g id="flowRoot4136" transform="translate(15.647 280.88)">
   <path fill="#fff" id="path4860" d="m88.983 215.08h-45.504v-89.424h24.624v69.408h22.32l-1.44 20.016z"/>
   <path fill="#fff" id="path4862" d="m159.73 215.08h-24.048l-2.736-14.112h-16.992l-2.736 14.112h-22.896l16.416-89.424h36.576l16.416 89.424zm-29.52-30.96-5.04-31.968h-1.008l-5.04 31.968h11.088z"/>
   <path fill="#fff" id="path4864" d="m256.08 125.66-8.064 89.424h-29.664l-7.776-39.6h-1.152l-6.48 39.6h-29.808l-9.36-89.424h23.616l3.744 47.376h1.44l6.048-47.376h24.048l6.624 47.376h1.44l2.592-47.376h22.752z"/>
   <path fill="#fff" id="path4866" d="m287.56 171.31q0 12.672 2.448 18.144 2.592 5.328 8.352 5.328t16.272-2.736l3.744 20.304q-11.376 4.176-22.896 4.176-17.28 0-25.2-11.376-7.776-11.52-7.776-34.128 0-22.752 8.208-34.704 8.208-12.096 26.784-12.096 10.944 0 20.88 4.608l-3.888 22.32q-11.232-3.744-15.696-3.744-6.336 0-8.784 5.616-2.448 5.472-2.448 18.288z"/>
   <path fill="#fff" id="path4868" d="m390.54 215.08h-24.48v-33.84h-16.848v33.84h-24.768v-89.424h24.768v35.136h16.848v-35.136h24.48v89.424z"/>
   <path fill="#fff" id="path4870" d="m466.86 215.08h-24.048l-2.736-14.112h-16.992l-2.736 14.112h-22.896l16.416-89.424h36.576l16.416 89.424zm-29.52-30.96-5.04-31.968h-1.008l-5.04 31.968h11.088z"/>
  </g>
  <g id="text4144">
   <path fill="#fff" id="path4775" d="m67.297 515.56h-3.7397v12.177h-1.0388v-12.177h-3.7307v-0.97558h8.5093v0.97558z"/>
   <path fill="#fff" id="path4777" d="m77.667 527.73h-1.0388v-6.2961h-6.1787v6.2961h-1.0298v-13.152h1.0298v5.8987h6.1787v-5.8987h1.0388v13.152z"/>
   <path fill="#fff" id="path4779" d="m86.935 521.44h-5.1038v5.3386h5.8716v0.95752h-6.9014v-13.152h6.8562v0.97558h-5.8264v4.9231h5.1038v0.95752z"/>
   <path fill="#fff" id="path4781" d="m95.209 526.78h5.4199v0.95752h-6.4587v-13.152h1.0388v12.195z"/>
   <path fill="#fff" id="path4783" d="m108.93 524.06h-4.9321l-1.1201 3.6765h-1.075l4.1914-13.152h0.95752l4.1914 13.152h-1.075l-1.1382-3.6765zm-4.634-0.96655h4.3359l-2.168-7.0549-2.168 7.0549z"/>
   <path fill="#fff" id="path4785" d="m113.1 527.73v-13.152h3.3332q1.7796 0 2.6919 0.87622 0.92139 0.86719 0.92139 2.5654 0 1.0117-0.46973 1.7615-0.46973 0.74976-1.3008 1.084 0.95752 0.24389 1.5447 1.1201 0.59619 0.86719 0.59619 2.0415 0 1.7163-0.93946 2.71-0.93945 0.99365-2.6648 0.99365h-3.7126zm1.0298-6.3142v5.3567h2.728q1.1743 0 1.8518-0.72265 0.67749-0.72266 0.67749-2.0054 0-1.1924-0.63232-1.897-0.62329-0.70459-1.7434-0.73169h-2.8816zm0-0.94848h2.3938q1.1743 0 1.8247-0.62329 0.65039-0.6233 0.65039-1.8518 0-1.2556-0.64135-1.8428-0.63233-0.5962-1.9241-0.5962h-2.3035v4.9141z"/>
   <path fill="#fff" id="path4787" d="m131.16 522.58q0 2.5474-1.1201 3.9385-1.1111 1.3911-3.1255 1.3911-1.9963 0-3.1345-1.3911-1.1292-1.3911-1.1382-3.9114v-2.8635q0-2.5383 1.1292-3.9385 1.1292-1.4092 3.1255-1.4092 2.0234 0 3.1436 1.4092 1.1201 1.4092 1.1201 3.9656v2.8093zm-1.0388-2.8545q0-2.1589-0.83106-3.2429-0.83105-1.084-2.3938-1.084-1.5085 0-2.3577 1.0659-0.84912 1.0569-0.86719 3.1706v2.9448q0 2.168 0.85815 3.261 0.85816 1.084 2.3848 1.084 1.5718 0 2.3848-1.084 0.82202-1.084 0.82202-3.261v-2.8545z"/>
   <path fill="#fff" id="path4789" d="m138.01 522.26h-3.0713v5.4741h-1.0388v-13.152h3.6042q1.7976 0 2.7822 1.0298 0.99365 1.0208 0.99365 2.8455 0 1.2737-0.61425 2.2402-0.61426 0.95752-1.6531 1.3279l2.7371 5.5916v0.11743h-1.102l-2.6377-5.4741zm-3.0713-0.95752h2.7461q1.1653 0 1.8608-0.79492 0.69555-0.80396 0.69555-2.0505 0-1.3821-0.72265-2.1409-0.72266-0.75879-2.0234-0.75879h-2.5564v5.7451z"/>
   <path fill="#fff" id="path4791" d="m154.24 524.06h-4.9321l-1.1201 3.6765h-1.075l4.1914-13.152h0.95752l4.1914 13.152h-1.075l-1.1382-3.6765zm-4.634-0.96655h4.3359l-2.168-7.0549-2.168 7.0549z"/>
   <path fill="#fff" id="path4793" d="m166.69 527.73h-1.0298l-6.2058-11.201v11.201h-1.0388v-13.152h1.0388l6.2148 11.219v-11.219h1.0208v13.152z"/>
   <path fill="#fff" id="path4795" d="m169.83 527.73v-13.152h3.0984q2.1409 0 3.3874 1.373 1.2466 1.364 1.2827 3.7668v2.7551q0 2.4751-1.2646 3.8662-1.2556 1.3911-3.532 1.3911h-2.9719zm1.0298-12.177v11.219h1.9963q1.7615 0 2.728-1.084 0.96655-1.093 0.99365-3.1165v-2.7551q0-2.0234-0.94849-3.1436-0.93945-1.1201-2.728-1.1201h-2.0415z"/>
   <path fill="#fff" id="path4797" d="m186.64 524.16 0.31616 1.9512 0.39746-1.8608 2.3577-9.6655h0.92139l2.3215 9.6655 0.38843 1.8789 0.34326-1.9692 1.9421-9.5752h1.0478l-2.8003 13.152h-0.97559l-2.4661-10.253-0.26196-1.2195-0.25293 1.2195-2.5203 10.253h-0.98462l-2.7913-13.152h1.0569l1.9602 9.5752z"/>
   <path fill="#fff" id="path4799" d="m206.97 522.58q0 2.5474-1.1201 3.9385-1.1111 1.3911-3.1255 1.3911-1.9963 0-3.1345-1.3911-1.1292-1.3911-1.1382-3.9114v-2.8635q0-2.5383 1.1292-3.9385 1.1292-1.4092 3.1255-1.4092 2.0234 0 3.1436 1.4092 1.1201 1.4092 1.1201 3.9656v2.8093zm-1.0388-2.8545q0-2.1589-0.83106-3.2429-0.83105-1.084-2.3938-1.084-1.5085 0-2.3577 1.0659-0.84912 1.0569-0.86719 3.1706v2.9448q0 2.168 0.85816 3.261 0.85815 1.084 2.3848 1.084 1.5718 0 2.3848-1.084 0.82202-1.084 0.82202-3.261v-2.8545z"/>
   <path fill="#fff" id="path4801" d="m213.82 522.26h-3.0713v5.4741h-1.0388v-13.152h3.6042q1.7976 0 2.7822 1.0298 0.99365 1.0208 0.99365 2.8455 0 1.2737-0.61425 2.2402-0.61426 0.95752-1.6531 1.3279l2.7371 5.5916v0.11743h-1.102l-2.6377-5.4741zm-3.0713-0.95752h2.7461q1.1653 0 1.8608-0.79492 0.69556-0.80396 0.69556-2.0505 0-1.3821-0.72266-2.1409-0.72266-0.75879-2.0234-0.75879h-2.5564v5.7451z"/>
   <path fill="#fff" id="path4803" d="m222.47 521.25-1.5266 1.7705v4.7153h-1.0298v-13.152h1.0298v7.0098l1.4453-1.8066 4.074-5.2031h1.2918l-4.5889 5.8535 4.9412 7.2988h-1.2556l-4.3811-6.4858z"/>
   <path fill="#fff" id="path4805" d="m231.29 527.73h-1.0298v-13.152h1.0298v13.152z"/>
   <path fill="#fff" id="path4807" d="m242.86 527.73h-1.0298l-6.2058-11.201v11.201h-1.0388v-13.152h1.0388l6.2148 11.219v-11.219h1.0208v13.152z"/>
   <path fill="#fff" id="path4809" d="m254.01 526.21q-0.65943 0.84912-1.6621 1.2827-1.0027 0.42456-2.1951 0.42456-2.0234 0-3.1797-1.355-1.1562-1.355-1.2014-3.7578v-3.1978q0-2.5203 1.093-3.8572 1.1021-1.346 3.1345-1.346 1.8157 0 2.8455 1.0027t1.1562 2.8906h-1.0298q-0.1626-1.5176-0.89429-2.2131-0.72265-0.70459-2.0686-0.70459-1.6079 0-2.4119 1.075-0.79492 1.0659-0.79492 3.1345v3.0352q0 2.0596 0.87622 3.1978 0.88526 1.1382 2.4751 1.1382 1.7253 0 2.8184-1.093v-3.4236h-2.8816v-0.96655h3.9204v4.7334z"/>
   <path fill="#fff" id="path4811" d="m259.61 522.4h-3.6494v-0.93042h3.6494v0.93042z"/>
   <path fill="#fff" id="path4813" d="m269.64 523.63q-0.14453 2.2131-1.1924 3.252-1.0478 1.0298-2.8997 1.0298-1.906 0-3.0081-1.4363-1.102-1.4453-1.1111-3.9204v-2.8545q0-2.4841 1.1201-3.8933 1.1292-1.4092 3.0803-1.4092 1.8428 0 2.8545 1.0569t1.1562 3.2429h-1.0478q-0.14453-1.7886-0.84912-2.5564-0.69556-0.76782-2.1138-0.76782-1.4905 0-2.3215 1.1111-0.83105 1.1111-0.83105 3.2249v2.8184q0 2.0957 0.80395 3.261 0.80396 1.1653 2.2673 1.1653 1.5356 0 2.2222-0.76783 0.68652-0.76782 0.82202-2.5564h1.0478z"/>
   <path fill="#fff" id="path4815" d="m273.27 526.78h5.4199v0.95752h-6.4587v-13.152h1.0388v12.195z"/>
   <path fill="#fff" id="path4817" d="m286.99 524.06h-4.9321l-1.1201 3.6765h-1.075l4.1914-13.152h0.95752l4.1914 13.152h-1.075l-1.1382-3.6765zm-4.634-0.96655h4.3359l-2.168-7.0549-2.168 7.0549z"/>
   <path fill="#fff" id="path4819" d="m297.35 524.5q0-1.102-0.63232-1.7344-0.62329-0.63232-2.3396-1.2104-1.7163-0.57812-2.5203-1.2918-1.0569-0.93042-1.0569-2.457 0-1.5085 1.0388-2.457 1.0388-0.94849 2.6829-0.94849 1.6802 0 2.7461 1.102 1.0659 1.1021 1.0659 2.8364h-1.0388q0-1.3279-0.74975-2.1409-0.74072-0.82202-2.0234-0.82202-1.2466 0-1.9692 0.67749-0.71362 0.66846-0.71362 1.7344 0 0.99366 0.67749 1.626 0.67749 0.63233 2.1589 1.1292 1.4814 0.48779 2.2402 1.0208 0.75879 0.52393 1.1201 1.2376 0.36133 0.71363 0.36133 1.6802 0 1.5447-1.0479 2.4932-1.0388 0.93946-2.7551 0.93946-1.1562 0-2.1138-0.46973-0.94849-0.47876-1.4905-1.364-0.53296-0.89429-0.53296-2.1047h1.0298q0 1.3911 0.84009 2.186 0.84009 0.79493 2.2673 0.79493 1.2466 0 1.9963-0.66846 0.75879-0.66846 0.75879-1.7886z"/>
   <path fill="#fff" id="path4821" d="m306.92 524.5q0-1.102-0.63233-1.7344-0.62329-0.63232-2.3396-1.2104-1.7163-0.57812-2.5203-1.2918-1.0569-0.93042-1.0569-2.457 0-1.5085 1.0388-2.457 1.0388-0.94849 2.6829-0.94849 1.6802 0 2.7461 1.102 1.0659 1.1021 1.0659 2.8364h-1.0388q0-1.3279-0.74976-2.1409-0.74072-0.82202-2.0234-0.82202-1.2466 0-1.9692 0.67749-0.71362 0.66846-0.71362 1.7344 0 0.99366 0.67749 1.626 0.67749 0.63233 2.1589 1.1292 1.4814 0.48779 2.2402 1.0208 0.75878 0.52393 1.1201 1.2376 0.36133 0.71363 0.36133 1.6802 0 1.5447-1.0478 2.4932-1.0388 0.93946-2.7551 0.93946-1.1562 0-2.1138-0.46973-0.94848-0.47876-1.4905-1.364-0.53296-0.89429-0.53296-2.1047h1.0298q0 1.3911 0.84009 2.186 0.84009 0.79493 2.2673 0.79493 1.2466 0 1.9963-0.66846 0.75879-0.66846 0.75879-1.7886z"/>
   <path fill="#fff" id="path4823" d="m322.72 527.73h-1.0388v-6.2961h-6.1787v6.2961h-1.0298v-13.152h1.0298v5.8987h6.1787v-5.8987h1.0388v13.152z"/>
   <path fill="#fff" id="path4825" d="m327.07 527.73h-1.0298v-13.152h1.0298v13.152z"/>
   <path fill="#fff" id="path4827" d="m336.55 524.5q0-1.102-0.63233-1.7344-0.62329-0.63232-2.3396-1.2104-1.7163-0.57812-2.5203-1.2918-1.0569-0.93042-1.0569-2.457 0-1.5085 1.0388-2.457 1.0388-0.94849 2.6829-0.94849 1.6802 0 2.7461 1.102 1.0659 1.1021 1.0659 2.8364h-1.0388q0-1.3279-0.74976-2.1409-0.74072-0.82202-2.0234-0.82202-1.2466 0-1.9692 0.67749-0.71362 0.66846-0.71362 1.7344 0 0.99366 0.67749 1.626 0.67749 0.63233 2.1589 1.1292 1.4814 0.48779 2.2402 1.0208 0.75879 0.52393 1.1201 1.2376 0.36133 0.71363 0.36133 1.6802 0 1.5447-1.0478 2.4932-1.0388 0.93946-2.7551 0.93946-1.1562 0-2.1138-0.46973-0.94849-0.47876-1.4905-1.364-0.53296-0.89429-0.53296-2.1047h1.0298q0 1.3911 0.84008 2.186 0.84009 0.79493 2.2673 0.79493 1.2466 0 1.9963-0.66846 0.75879-0.66846 0.75879-1.7886z"/>
   <path fill="#fff" id="path4829" d="m347.47 515.56h-3.7398v12.177h-1.0388v-12.177h-3.7307v-0.97558h8.5093v0.97558z"/>
   <path fill="#fff" id="path4831" d="m357.5 522.58q0 2.5474-1.1201 3.9385-1.1111 1.3911-3.1255 1.3911-1.9963 0-3.1345-1.3911-1.1292-1.3911-1.1382-3.9114v-2.8635q0-2.5383 1.1292-3.9385 1.1292-1.4092 3.1255-1.4092 2.0234 0 3.1436 1.4092 1.1201 1.4092 1.1201 3.9656v2.8093zm-1.0388-2.8545q0-2.1589-0.83105-3.2429t-2.3938-1.084q-1.5085 0-2.3577 1.0659-0.84913 1.0569-0.86719 3.1706v2.9448q0 2.168 0.85815 3.261 0.85816 1.084 2.3848 1.084 1.5718 0 2.3848-1.084 0.82202-1.084 0.82202-3.261v-2.8545z"/>
   <path fill="#fff" id="path4833" d="m364.34 522.26h-3.0713v5.4741h-1.0388v-13.152h3.6042q1.7976 0 2.7822 1.0298 0.99365 1.0208 0.99365 2.8455 0 1.2737-0.61426 2.2402-0.61425 0.95752-1.6531 1.3279l2.7371 5.5916v0.11743h-1.102l-2.6377-5.4741zm-3.0713-0.95752h2.7461q1.1653 0 1.8608-0.79492 0.69555-0.80396 0.69555-2.0505 0-1.3821-0.72265-2.1409-0.72266-0.75879-2.0234-0.75879h-2.5564v5.7451z"/>
   <path fill="#fff" id="path4835" d="m373.28 521.74 3.279-7.1543h1.1834l-3.9565 8.2022v4.9502h-1.0298v-4.9502l-3.9475-8.2022h1.2104l3.261 7.1543z"/>
   <path fill="#fff" id="path4837" d="m389.83 524.06h-4.9321l-1.1201 3.6765h-1.075l4.1914-13.152h0.95752l4.1914 13.152h-1.075l-1.1382-3.6765zm-4.634-0.96655h4.3359l-2.168-7.0549-2.168 7.0549z"/>
   <path fill="#fff" id="path4839" d="m400.18 524.5q0-1.102-0.63233-1.7344-0.62329-0.63232-2.3396-1.2104-1.7163-0.57812-2.5203-1.2918-1.0569-0.93042-1.0569-2.457 0-1.5085 1.0388-2.457 1.0388-0.94849 2.6829-0.94849 1.6802 0 2.7461 1.102 1.0659 1.1021 1.0659 2.8364h-1.0388q0-1.3279-0.74976-2.1409-0.74072-0.82202-2.0234-0.82202-1.2466 0-1.9692 0.67749-0.71363 0.66846-0.71363 1.7344 0 0.99366 0.67749 1.626 0.67749 0.63233 2.1589 1.1292 1.4814 0.48779 2.2402 1.0208 0.75879 0.52393 1.1201 1.2376 0.36133 0.71363 0.36133 1.6802 0 1.5447-1.0478 2.4932-1.0388 0.93946-2.7551 0.93946-1.1562 0-2.1138-0.46973-0.94848-0.47876-1.4905-1.364-0.53296-0.89429-0.53296-2.1047h1.0298q0 1.3911 0.84009 2.186 0.84008 0.79493 2.2673 0.79493 1.2466 0 1.9963-0.66846 0.75879-0.66846 0.75879-1.7886z"/>
   <path fill="#fff" id="path4841" d="m409.75 524.5q0-1.102-0.63232-1.7344-0.62329-0.63232-2.3396-1.2104-1.7163-0.57812-2.5203-1.2918-1.0569-0.93042-1.0569-2.457 0-1.5085 1.0388-2.457 1.0388-0.94849 2.6829-0.94849 1.6802 0 2.7461 1.102 1.0659 1.1021 1.0659 2.8364h-1.0388q0-1.3279-0.74975-2.1409-0.74072-0.82202-2.0234-0.82202-1.2466 0-1.9692 0.67749-0.71362 0.66846-0.71362 1.7344 0 0.99366 0.67749 1.626 0.67749 0.63233 2.1589 1.1292 1.4814 0.48779 2.2402 1.0208 0.75879 0.52393 1.1201 1.2376 0.36132 0.71363 0.36132 1.6802 0 1.5447-1.0478 2.4932-1.0388 0.93946-2.7551 0.93946-1.1562 0-2.1138-0.46973-0.94849-0.47876-1.4905-1.364-0.53296-0.89429-0.53296-2.1047h1.0298q0 1.3911 0.84009 2.186 0.84009 0.79493 2.2673 0.79493 1.2466 0 1.9963-0.66846 0.75879-0.66846 0.75879-1.7886z"/>
   <path fill="#fff" id="path4843" d="m421.31 522.58q0 2.5474-1.1201 3.9385-1.1111 1.3911-3.1255 1.3911-1.9963 0-3.1345-1.3911-1.1292-1.3911-1.1382-3.9114v-2.8635q0-2.5383 1.1292-3.9385 1.1292-1.4092 3.1255-1.4092 2.0234 0 3.1436 1.4092 1.1201 1.4092 1.1201 3.9656v2.8093zm-1.0388-2.8545q0-2.1589-0.83105-3.2429-0.83106-1.084-2.3938-1.084-1.5086 0-2.3577 1.0659-0.84912 1.0569-0.86719 3.1706v2.9448q0 2.168 0.85816 3.261 0.85815 1.084 2.3848 1.084 1.5718 0 2.3848-1.084 0.82202-1.084 0.82202-3.261v-2.8545z"/>
   <path fill="#fff" id="path4845" d="m431.95 523.63q-0.14453 2.2131-1.1924 3.252-1.0478 1.0298-2.8997 1.0298-1.906 0-3.008-1.4363-1.1021-1.4453-1.1111-3.9204v-2.8545q0-2.4841 1.1201-3.8933 1.1292-1.4092 3.0803-1.4092 1.8428 0 2.8545 1.0569t1.1562 3.2429h-1.0478q-0.14453-1.7886-0.84912-2.5564-0.69556-0.76782-2.1138-0.76782-1.4905 0-2.3215 1.1111-0.83106 1.1111-0.83106 3.2249v2.8184q0 2.0957 0.80396 3.261 0.80395 1.1653 2.2673 1.1653 1.5356 0 2.2222-0.76783 0.68652-0.76782 0.82202-2.5564h1.0478z"/>
   <path fill="#fff" id="path4847" d="m435.76 527.73h-1.0298v-13.152h1.0298v13.152z"/>
   <path fill="#fff" id="path4849" d="m445.22 524.06h-4.9321l-1.1201 3.6765h-1.075l4.1914-13.152h0.95752l4.1914 13.152h-1.075l-1.1382-3.6765zm-4.634-0.96655h4.3359l-2.168-7.0549-2.168 7.0549z"/>
   <path fill="#fff" id="path4851" d="m455.76 515.56h-3.7398v12.177h-1.0388v-12.177h-3.7307v-0.97558h8.5093v0.97558z"/>
   <path fill="#fff" id="path4853" d="m459.1 527.73h-1.0298v-13.152h1.0298v13.152z"/>
   <path fill="#fff" id="path4855" d="m470.56 522.58q0 2.5474-1.1201 3.9385-1.1111 1.3911-3.1255 1.3911-1.9963 0-3.1345-1.3911-1.1292-1.3911-1.1382-3.9114v-2.8635q0-2.5383 1.1292-3.9385 1.1292-1.4092 3.1255-1.4092 2.0234 0 3.1436 1.4092 1.1201 1.4092 1.1201 3.9656v2.8093zm-1.0388-2.8545q0-2.1589-0.83106-3.2429-0.83105-1.084-2.3938-1.084-1.5085 0-2.3577 1.0659-0.84913 1.0569-0.86719 3.1706v2.9448q0 2.168 0.85815 3.261 0.85816 1.084 2.3848 1.084 1.5718 0 2.3848-1.084 0.82203-1.084 0.82203-3.261v-2.8545z"/>
   <path fill="#fff" id="path4857" d="m481.59 527.73h-1.0298l-6.2058-11.201v11.201h-1.0388v-13.152h1.0388l6.2148 11.219v-11.219h1.0208v13.152z"/>
  </g>
  <!--<path id="path4148" d="m58.966 505.73h423.47" stroke="#fff" stroke-width="3px" fill="none"/>-->
  <!--<path id="path4148-4" d="m58.708 536.73h423.69" stroke="#fff" stroke-width="2px" fill="none"/>-->
 </g>
</svg>
