<?xml version="1.0" encoding="UTF-8" standalone="no"?>
<!-- Created with Inkscape (http://www.inkscape.org/) -->

<svg
   xmlns:dc="http://purl.org/dc/elements/1.1/"
   xmlns:cc="http://creativecommons.org/ns#"
   xmlns:rdf="http://www.w3.org/1999/02/22-rdf-syntax-ns#"
   xmlns:svg="http://www.w3.org/2000/svg"
   xmlns="http://www.w3.org/2000/svg"
   xmlns:xlink="http://www.w3.org/1999/xlink"
   xmlns:sodipodi="http://sodipodi.sourceforge.net/DTD/sodipodi-0.dtd"
   xmlns:inkscape="http://www.inkscape.org/namespaces/inkscape"
   id="svg2"
   height="150"
   width="500"
   version="1.1"
   viewBox="0 0 500.00001 150"
   inkscape:version="0.91 r13725"
   sodipodi:docname="seattle-small-banner-pathified-compressor.svg"
   inkscape:export-filename="C:\Users\Ryan Poe\Desktop\seattle-small-banner-pathified-compressor.png"
   inkscape:export-xdpi="158.90675"
   inkscape:export-ydpi="158.90675">
  <sodipodi:namedview
     pagecolor="#ffffff"
     bordercolor="#666666"
     borderopacity="1"
     objecttolerance="10"
     gridtolerance="10"
     guidetolerance="10"
     inkscape:pageopacity="0"
     inkscape:pageshadow="2"
     inkscape:window-width="1686"
     inkscape:window-height="876"
     id="namedview165"
     showgrid="false"
     inkscape:zoom="0.576"
     inkscape:cx="30.381944"
     inkscape:cy="75"
     inkscape:window-x="0"
     inkscape:window-y="0"
     inkscape:window-maximized="0"
     inkscape:current-layer="svg2" />
  <defs
     id="defs4">
    <linearGradient
       id="linearGradient4158">
      <stop
         id="stop4160"
         stop-color="#eb3349"
         offset="0" />
      <stop
         id="stop4162"
         stop-color="#f45c43"
         offset="1" />
    </linearGradient>
    <linearGradient
       id="linearGradient4164"
       y2="668.5"
       xlink:href="#linearGradient4158"
       gradientUnits="userSpaceOnUse"
       x2="1156.2"
       y1="668.5"
       x1="42.424" />
  </defs>
  <metadata
     id="metadata7">
    <rdf:RDF>
      <cc:Work
         rdf:about="">
        <dc:format>image/svg+xml</dc:format>
        <dc:type
           rdf:resource="http://purl.org/dc/dcmitype/StillImage" />
        <dc:title />
      </cc:Work>
    </rdf:RDF>
  </metadata>
  <g
     id="layer2">
    <g
       id="g6"
       transform="matrix(.15873 0 0 .18719 425.93 115.3)"
       fill="#eb3349">
      <path
         id="path2639"
         d="m-461.46-133.38c9.6298-3.3608 19.519-5.9301 28.991-9.6698 9.7517-0.91275 18.26-5.7843 27.447-8.6012 4.6989-1.9878 12.788-5.2912 14.843-5.1808 2.0546-0.1442 10.298 0.5788 15.306 2.0597 9.4314-0.0699 14.68-9.5856 25.786-11.204 8.4803-5.7522 18.691-2.8657 28.079-5.1911 10.541-0.81346 17.675-10.368 28.623-9.7572 9.3791-1.1035 19.394-2.9599 27.82-7.0042 10.398-2.6166 17.903-6.395 27.722-7.5904 11.137 0.77692 27.258 6.4931 36.067-1.4006 7.741-4.8469 16.4-7.6549 24.386-12.034 8.7083-2.5345 16.563-7.2412 24.583-11.221 4.4085-1.234 7.7588-3.9489 10.754-7.1367 2.9953-3.1878 5.6358-6.8484 8.6248-9.9738 8.6013-3.7233 15.558-9.1424 21.896-15.997 4.225-5.018 5.928-12.401 13.711-13.726 6.179-6.1417 13.027-11.443 19.559-17.234 2.9314-9.0299 13.724-11.024 21.234-15.182 4.3711-1.9486 8.4728-2.509 12.573-3.3306 4.1004 0.83375 8.1996 2.6797 12.056 5.2892 1.3762 0.84296 11.67-0.79061 13.086-0.14257 0.89889 0.45136 3.5892 3.1603 6.5309 4.4081 2.687 0.3565 6.1348 1.0346 6.5111 1.7536 0.74909 1.648 0.71103 1.4506 1.4633 2.4802 8.4778 3.603 17.32 8.8888 20.976 11.37 4.4125 1.6038 8.7754 3.3159 13.076 5.181 4.3001 1.8651 8.5375 3.8832 12.699 6.0986 7.8215 0.62811 8.5412 12.754 19.72 16.959 7.4128 7.8579 17.668 11.406 25.148 19.013 9.3398 5.1649 18.846 8.6489 29.958 7.5809 7.226 0.3257 15.79 12.358 23.407 17.251 7.5101 2.0111 15.774 1.0949 22.647 6.5056 8.0688 6.0426 15.592 11.311 22.777 18.442 6.0709 7.4717 14.775 12.037 24.633 9.6502 10.374 0.15739 19.705-6.0244 30.191-2.1935 12.783 1.6002 24.733 6.8327 35.997 12.896 8.6044 3.1874 15.203 11.927 25.18 10.545 12.123 0.97512 24.612 1.1518 35.911 6.2747 8.7576 3.3615 18.648 1.6809 26.825 6.747 12.988 4.9201 16.32 6.4477 28.789 12.918 9.9542 3.6028 24.359 7.4406 31.496 13.9 7.9744 5.8646 17.047 9.4672 25.91 13.167 9.2572 8.0411-19.456 2.7912-23.691 3.0087-17.6-0.39243-28.677 8.3758-38.283 10.9-10.686 3.7159-19.951 4.6121-29.339-0.27089-10.724-3.2982-22.113-3.7473-33.226-4.5169-6.4105 0.6301-16.854-5.6079-20.985-0.59498 2.5239 9.6348 4.2414 13.946-8.2979 10.255-9.873-3.2887-19.303-7.5683-28.88-11.58-12.327-3.2894-24.197-9.5508-37.338-8.267-11.514-0.71849-22.908 0.91526-34.309 1.3774-12.446-0.37101-25.25-1.5741-37.337 2.1766-9.9708 2.7716-19.998 5.4002-29.818 8.4668-11.068 7.3303-24.985 3.2896-37.312 3.2155-10.861-0.39755-21.532-1.835-31.81-5.5188-17.954-5.6191-36.579-8.4257-54.937-12.313-12.118-2.6068-24.328-5.3545-35.286-11.392-8.2323-3.6874-16.166-8.0142-24.476-11.379-6.8235-4.5042-17.437-12.706-23.935-3.4994-8.9107 4.3281-19.105 4.2421-26.66 11.454-5.4033 9.2964-14.437 14.641-25.5 12.468-10.243 2.6205-20.411 0.0639-30.483-2.0297-11.423-2.4704-22.444-6.5293-34.196-7.2887-10.395-2.1943-20.955-3.3128-31.511-4.397-11.024-1.3914-22.875 0.42931-32.94-5.2517-11.678-1.6488 10.089-11.701-2.764-11.638-13.165-0.54931-26.928-0.20618-39.068 5.4322-9.776 4.7416-23.165-2.8196-31.105 4.998-3.388 9.2275-14.542 5.4951-21.946 7.277-9.595 4.7652-20.36 4.6582-30.698 6.3787-8.5288 1.7155-17.248 2.7894-25.632-0.84581-14.222-4.0616-28.338-10.457-43.463-9.0838-12.183-0.006-24.36 1.746-36.534 0.9152 8.9692-2.4848 16.884-7.1382 24.18-12.916 1.4455-0.89844 2.9273-1.8137 4.5868-2.2609z"
         stroke-opacity=".66071"
         fill-rule="evenodd"
         stroke-width="1px"
         fill="#eb3349" />
    </g>
  </g>
  <g
     id="layer1"
     transform="translate(0 -902.36)"
     display="none">
    <g
       id="layer1-6"
       fill="url(#linearGradient4164)"
       transform="matrix(.52110 -.0020678 .0020678 .52110 -40.132 658.46)">
      <path
         id="path4147"
         d="m630.18 284.18c-0.11974-0.008-0.28499 0.61837-0.52148 1.7617-0.40954 1.98-0.76838 5.6964-0.79687 8.2598-0.0557 5.0009-1.5885 7.4902-4.6152 7.4902-0.95464 0-1.7363 0.40539-1.7363 0.90039s-0.60711 0.89844-1.3496 0.89844c-1.7904 0-1.707 0.8789 0.22461 2.3594 1.377 1.0553 1.4049 1.3214 0.22461 2.1113-0.7425 0.49694-3.4379 1.5173-5.9902 2.2676-3.9167 1.1514-4.5671 1.6434-4.1699 3.1621 0.3709 1.4183 0.0187 1.8098-1.6602 1.8418-1.1715 0.0223-3.3451 0.57881-4.8301 1.2383l-2.6992 1.1992 2.5332 1.0098c1.3935 0.55571 3.2749 1.0117 4.1797 1.0117 2.0091 0 2.9667 2.1092 1.5859 3.4902-1.3015 1.3015-0.2124 2.3001 3.957 3.6309 3.1926 1.019 3.2774 1.1662 4.2812 7.5332 3.7826 23.991 5.2281 48.559 3.8242 64.996-1.6732 19.59-3.9267 37.35-4.7402 37.35-0.42363 0-0.77149-12.15-0.77149-27v-27h-2.25c-2.25 0-2.25 0-2.25-9v-9h-14.85-14.85v9c0 8.4-0.12078 9-1.8008 9-1.7077 0-1.7988 0.59922-1.7988 11.699v11.701h-4.4473c-2.4458 0-4.698 0.40344-5.0039 0.89844-0.85835 1.3888-2.25 1.0652-2.25-0.52344 0-1.1913-1.0278-1.3751-6.3008-1.125l-6.3027 0.29883 0.002-11.43c0.002-8.8719-0.28109-11.592-1.2617-12.15-0.69489-0.39584-1.4028-1.7312-1.5742-2.9688-0.2304-1.6637-0.93245-2.3234-2.6934-2.5273-1.3098-0.15167-3.0942-1.0614-3.9648-2.0234-2.1864-2.416-8.5477-2.4276-10.053-0.0176-0.59522 0.9531-2.01 1.8647-3.1426 2.0254-1.6416 0.23284-2.0203 0.80346-1.8711 2.8106 0.11252 1.5137-0.33613 2.7188-1.125 3.0215-0.72169 0.27693-1.3125 1.4717-1.3125 2.6562 0 1.6973-0.47683 2.1543-2.25 2.1543-1.8 0-2.25 0.45-2.25 2.25 0 2.025-0.35961 2.25-3.5996 2.25h-3.5996v4.0488c0 4.05-0.00078 4.05-1.8008 2.25-1.1931-1.1931-1.8008-3.0002-1.8008-5.3594 0-3.3587-0.17759-3.5917-3.166-4.1523-1.7418-0.32677-6.0963-0.35762-9.6758-0.0684-3.5795 0.28926-8.432 0.53773-10.783 0.55273l-4.2734 0.0274v10.352c0 6.3-0.35256 10.35-0.90039 10.35-0.58182 0-0.90039-10.501-0.90039-29.701 0-23.598-0.23695-29.699-1.1562-29.699-0.84603 0-1.1212-1.6991-1.0195-6.3203 0.0765-3.4759-0.21244-6.5369-0.64258-6.8027-0.43013-0.26584-0.78792 2.6795-0.79492 6.5449-0.008 3.8655-0.31211 6.5709-0.67578 6.0117-1.1676-1.7952-10.315-3.1705-19.111-2.873-8.3442 0.28217-8.5571 0.34321-8.8652 2.5391-0.17365 1.2375-0.75265 2.5216-1.2871 2.8535-0.67131 0.41694-0.89982 9.6697-0.73828 29.926l0.23437 29.32h-9.0723c-8.4714 0-9.0703 0.11984-9.0703 1.8008 0 1.56-0.60001 1.8008-4.5 1.8008h-4.5v-8.9473c0-4.9938 0.39609-9.1934 0.89844-9.5039 0.495-0.30592 0.90039-1.7145 0.90039-3.1309 0-2.4974-0.17014-2.5922-5.625-3.1523-3.0938-0.31775-10.282-0.45145-15.975-0.29688-8.6428 0.23468-10.3 0.50354-10.045 1.6309 0.1683 0.7425 0.53224 4.2862 0.80664 7.875l0.49805 6.5254h-10.906-10.908l-1.373 2.6543c-0.79798 1.5431-1.373 4.995-1.373 8.2402 0 5.5272-0.0172 5.5674-1.7988 3.9551-1.4434-1.3063-1.8008-2.7718-1.8008-7.3984 0-9.0809-0.20728-9.252-11.25-9.252-11.237 0-11.25 0.0117-11.25 10.74 0 5.8026-0.27049 7.2832-1.3496 7.373-0.7425 0.0619-4.2099 0.16281-7.7051 0.22461l-6.3535 0.11133 0.13476-4.0488c0.20935-6.292 0.20392-6.3008-3.1016-6.3008-1.6912 0-3.2286-0.46525-3.418-1.0332-0.41705-1.2512-16.302-1.0937-16.75 0.16601-0.16095 0.45236-2.2952 1.0892-4.7441 1.4141-2.4489 0.32486-4.6699 0.94134-4.9355 1.3711-0.26561 0.42975-1.6751 0.7832-3.1309 0.7832-1.9899 0-2.6465-0.42027-2.6465-1.6914 0-3.2612-3.9076-3.8348-20.291-2.9746-8.4325 0.44282-15.641 0.45781-16.113 0.0332-1.0551-0.94813-5.3516-1.0125-6.2715-0.0937-0.3717 0.37126-5.5021 0.53133-11.4 0.35547l-10.723-0.31836-0.10547 5.7188c-0.0574 3.1459-0.28932 5.0124-0.51562 4.1465-0.4295-1.6433-2.1905-2.2756-7.4805-2.6836l-3.1484-0.24219-0.45117-13.951c-0.43953-13.625-0.49675-13.955-2.4746-14.236-1.1138-0.15817-2.0254-0.66442-2.0254-1.125 0-1.359-5.4104-0.95675-6.8789 0.51172-0.7425 0.7425-2.1313 1.3496-3.0859 1.3496-1.6617 0-1.7344 0.84523-1.7344 19.801v19.799h-5.4004c-5.16 0-5.4004 0.1-5.4004 2.25 0 1.2375-0.40539 2.25-0.90039 2.25s-0.89844-2.1995-0.89844-4.8887c0-4.2788-0.25325-4.9693-2.0254-5.5352-3.4775-1.1105-12.724-0.43386-13.824 1.0117-0.54958 0.72231-1.6179 1.3125-2.373 1.3125-0.75509 0-2.5333 0.60625-3.9512 1.3457-2.8072 1.4641-5.2046 1.7932-4.4766 0.61524 0.74391-1.2037-2.8869-3.7598-5.3398-3.7598-1.2474 0-2.5002 0.60711-2.7852 1.3496-0.72115 1.8793-5.1376 1.6898-6.9355-0.29688-0.81923-0.90523-1.4902-2.9538-1.4902-4.5527 0-1.709-0.37134-2.6785-0.90039-2.3516-0.495 0.30593-0.89844 1.5119-0.89844 2.6797 0 3.6069-0.97014 4.9707-3.5332 4.9707-2.2204 0-2.5154-0.408-3.2793-4.5508-0.46159-2.5033-1.2433-4.5527-1.7383-4.5527s-1.2767 2.0494-1.7383 4.5527l-0.83984 4.5508h-9.1504c-5.0325 0-12.248 0.26189-16.035 0.58203l-6.8867 0.58203v3.4688c0 3.0991-0.23928 3.4668-2.25 3.4668-2.1273 0-2.25-0.26922-2.25-4.9492v-4.9492h-20.25-20.25v5.3984 5.4004l-0.61057 36.365-7.0758 5.1027 0.0047 1.7349h1020.2c-0.037-4.096-0.043-9.5328-0.043-17.031v-28.729l-2.6992-0.59375c-1.485-0.32616-2.7012-1.1679-2.7012-1.8711 0-0.85519-1.0172-1.2773-3.0742-1.2773-1.6912 0-3.2099-0.39013-3.375-0.86523-0.1649-0.4751-3.54-1.1229-7.5-1.4414-5.4641-0.43942-8.1765-0.23543-11.25 0.84961-2.2275 0.78636-4.9625 1.4364-6.0762 1.4434-1.1138 0.007-2.0234 0.41711-2.0234 0.91211s-0.7993 0.90039-1.7754 0.90039c-1.6679 0-1.79 0.7437-2.0254 12.375-0.21 10.384-0.4642 12.327-1.584 12.08-0.734-0.16216-5.2966-0.46086-10.139-0.66407-7.7312-0.32447-9.3723-0.69493-13.477-3.0391-8.5233-4.8678-20.567-4.6113-27.625 0.58789-3.2349 2.3829-3.8245 2.4949-11.641 2.2207l-8.2344-0.2871v-5.8145c0-4.3381-0.34437-5.9475-1.3516-6.334-0.7425-0.28493-1.3496-1.461-1.3496-2.6152 0-1.7972-0.58041-2.1869-4.0488-2.707-3.1541-0.47299-4.0508-0.98242-4.0508-2.3047 0-1.5004-0.7241-1.6973-6.2363-1.6973-5.7832 0-6.2588 0.14785-6.5254 2.0254-0.23103 1.6266-0.95308 2.0784-3.6641 2.3027l-3.375 0.2793v10.799c0 6.97-0.31758 10.603-0.89844 10.244-0.5328-0.32927-0.90039-5.8609-0.90039-13.555v-12.996h-4.3691c-2.4024 0-6.8558-0.26012-9.8984-0.57813l-5.5332-0.57812v-8.7344-8.7324l-11.627-0.58789c-6.3948-0.32362-12.266-0.34334-13.049-0.043-1.1499 0.44128-1.4238 2.0837-1.4238 8.5508v8.0039h-3.5996c-3.5143 0-3.5996 0.0734-3.5996 3.1484 0 2.2-0.4087 3.1504-1.3516 3.1504-0.7425 0-1.3496-0.60711-1.3496-1.3496 0-1.6909-6.7486-1.768-15.299-0.17578l-5.8516 1.0879-0.24219 18.67-0.24414 18.668h-4.4805-4.4824v-17.1-17.1h-5.4004-5.4004v-3.6289c0-2.3949-0.45853-3.8045-1.3496-4.1465-0.7425-0.28493-1.3496-1.0819-1.3496-1.7715 0-0.88588-1.189-1.2539-4.0508-1.2539-3.45 0-4.0488-0.26745-4.0488-1.8008 0-1.4571-0.60039-1.7988-3.1504-1.7988-2.2 0-3.1504-0.40675-3.1504-1.3496 0-0.83999-0.84999-1.3516-2.25-1.3516-2.0767 0-2.25-0.32161-2.25-4.1758 0-5.7186-1.3593-6.5602-10.66-6.5957-6.1806-0.0236-7.9741 0.30239-10.125 1.834-2.5696 1.8298-2.6152 2.0056-2.6152 10.371v8.5078l-2.0508-1.3438c-1.7172-1.1252-2.4182-1.1534-4.2988-0.17773-2.607 1.3526-4.4492 0.98932-4.4492-0.875 0-2.0045-4.4701-10.369-5.2754-9.8711-0.39142 0.2419-1.4518 2.0801-2.3555 4.084-1.3621 3.0206-2.082 3.6426-4.207 3.6426h-2.5625v-12.502-12.502l-2.2109-0.55469c-2.0597-0.51694-2.2284-1.0018-2.4746-7.0742l-0.26368-6.5176-5.625-0.26758-5.625-0.26758-0.0137-8.7324c-0.0155-11.006-0.46555-12.781-3.2422-12.781-1.1798 0-2.1445-0.48686-2.1445-1.082 0-0.59519-1.2424-2.3661-2.7617-3.9336s-2.8735-3.6119-3.0078-4.543c-0.13589-0.9423-1.1056-1.8204-2.1875-1.9805-1.528-0.22611-1.9434 0.17163-1.9434 1.8574 0 1.2076-1.1786 3.2736-2.6992 4.7305-1.485 1.4227-2.7012 3.1196-2.7012 3.7695 0 0.69824-1.0456 1.1816-2.5566 1.1816h-2.5566l-0.5918 18.225c-0.32476 10.024-0.59089 25.211-0.59179 33.75-0.002 13.199-0.20384 15.525-1.3516 15.525-1.1398 0-1.3516-2.0948-1.3516-13.455 0-10.904-0.24993-13.597-1.3223-14.197-1.0459-0.58531-1.3772-3.3762-1.5762-13.318l-0.25-12.58h-12.602-12.6l-0.25781 7.7656-0.25977 7.7656-3.5664 0.57031-3.5664 0.57031v6.3496 6.3477l-2.4746-0.2832-2.4746-0.28516-0.19336-33.529c-0.23186-40.246 0.64677-37.421-11.496-36.965l-7.8281 0.29297 0.52344-3.1484c0.28788-1.7325 0.5282-3.8198 0.53321-4.6367 0.007-1.0356 1.374-1.8112 4.5137-2.5644 4.8561-1.165 6.1814-2.2757 4.5996-3.8574-1.8942-1.8942-0.99517-3.1058 2.6719-3.5977 2.0209-0.27106 3.932-0.75232 4.248-1.0684 0.88214-0.88214-1.6949-2.2144-5.5195-2.8535-2.7793-0.4644-3.362-0.89669-3.0117-2.2363 0.36162-1.3828-0.60835-1.9717-5.7793-3.5117-3.4169-1.0176-6.2109-2.1047-6.2109-2.416 0-0.31131 0.66903-1.3077 1.4883-2.2129 1.3992-1.5462 1.3727-1.6465-0.44922-1.6465-1.0667 0-1.9395-0.40344-1.9395-0.89844s-0.59319-0.90039-1.3164-0.90039c-0.72322 0-2.1392-0.88736-3.1484-1.9707-1.5292-1.6414-1.8532-3.2529-1.9394-9.6738-0.0548-4.0786-0.12661-5.8538-0.32618-5.8672zm6.9395 44.074c0.74888 0.0983 0.70056 1.1413 0.34961 4.7754-0.27145 2.8109-0.87054 9.4898-1.332 14.842-0.46148 5.352-1.0836 9.9762-1.3828 10.275-0.29924 0.29925-0.54492-6.1574-0.54492-14.35 0-14.341 0.07-14.914 1.877-15.387 0.44482-0.11632 0.78358-0.18902 1.0332-0.15625zm-12.438 0.4375c1.0291 0 1.3318 2.7833 1.5957 14.625 0.17931 8.0438 0.21588 14.794 0.0801 15-0.13579 0.20624-0.25533 0.20624-0.26563 0-0.0103-0.20625-0.60664-6.0446-1.3242-12.975-1.6404-15.843-1.6436-16.65-0.0859-16.65zm1.9648 78.375c0.19937-0.20624 0.36328 3.7429 0.36328 8.7754 0 5.5-0.35941 9.1484-0.90039 9.1484-0.495 0-0.90039 1.0125-0.90039 2.25s-0.43636 2.25-0.9707 2.25c-0.58324 0-0.76855-0.98872-0.46289-2.4746 0.28002-1.3612 0.95983-6.3229 1.5098-11.025 0.54993-4.7025 1.1619-8.7176 1.3613-8.9238zm456.68 60.443c-0.7145 0.008-0.918 1.292-0.918 5.084 0 5.2627-0.2219 4.1091-2.3763 4.1091-1.7711 0-2.1237 0.93187-2.1237-0.75752 0-1.9258-0.5081-2.2105-4.9355-2.7637-2.7138-0.3391-5.346-0.36204-5.8497-0.0508-0.361 0.22314-0.6609 2.2401-0.8105 4.9629h89.894v-1.7637l-17.324-0.24414c-13.143-0.18542-17.272-0.51213-17.106-1.3535 0.1209-0.61006-0.7906-1.364-2.0253-1.6738-1.2345-0.30986-2.2442-0.9239-2.2442-1.3652 0-0.44133-1.4179-0.80273-3.1504-0.80273s-3.1504 0.40539-3.1504 0.90039-0.5178 0.90039-1.1504 0.90039c-0.6324 0-1.8368 0.80305-2.6777 1.7852-1.2864 1.5024-2.2092 1.6917-5.8164 1.1973-2.358-0.32321-4.8306-1.1295-5.4941-1.793-0.6634-0.66345-1.5329-1.0043-1.9317-0.75781-0.3988 0.24648-0.9133-0.2758-1.1445-1.1602-0.2491-0.95266-1.9795-2.0748-4.2461-2.7539-2.104-0.63039-4.391-1.3638-5.082-1.6289-0.1239-0.0475-0.2359-0.0714-0.3379-0.0703z"
         transform="translate(0,287.36)"
         fill="url(#linearGradient4164)" />
    </g>
  </g>
  <g
     id="g4226"
     transform="translate(0 -902.36)">
    <g
       id="g4228"
       fill="url(#linearGradient4164)"
       transform="matrix(.52110 -.0020678 .0020678 .52110 -40.132 656.46)">
      <path
         id="path4230"
         d="m630.18 284.18c-0.11974-0.008-0.28499 0.61837-0.52148 1.7617-0.40954 1.98-0.76838 5.6964-0.79687 8.2598-0.0557 5.0009-1.5885 7.4902-4.6152 7.4902-0.95464 0-1.7363 0.40539-1.7363 0.90039s-0.60711 0.89844-1.3496 0.89844c-1.7904 0-1.707 0.8789 0.22461 2.3594 1.377 1.0553 1.4049 1.3214 0.22461 2.1113-0.7425 0.49694-3.4379 1.5173-5.9902 2.2676-3.9167 1.1514-4.5671 1.6434-4.1699 3.1621 0.3709 1.4183 0.0187 1.8098-1.6602 1.8418-1.1715 0.0223-3.3451 0.57881-4.8301 1.2383l-2.6992 1.1992 2.5332 1.0098c1.3935 0.55571 3.2749 1.0117 4.1797 1.0117 2.0091 0 2.9667 2.1092 1.5859 3.4902-1.3015 1.3015-0.2124 2.3001 3.957 3.6309 3.1926 1.019 3.2774 1.1662 4.2812 7.5332 3.7826 23.991 5.2281 48.559 3.8242 64.996-1.6732 19.59-3.9267 37.35-4.7402 37.35-0.42363 0-0.77149-12.15-0.77149-27v-27h-2.25c-2.25 0-2.25 0-2.25-9v-9h-14.85-14.85v9c0 8.4-0.12078 9-1.8008 9-1.7077 0-1.7988 0.59922-1.7988 11.699v11.701h-4.4473c-2.4458 0-4.698 0.40344-5.0039 0.89844-0.85835 1.3888-2.25 1.0652-2.25-0.52344 0-1.1913-1.0278-1.3751-6.3008-1.125l-6.3027 0.29883 0.002-11.43c0.002-8.8719-0.28109-11.592-1.2617-12.15-0.69489-0.39584-1.4028-1.7312-1.5742-2.9688-0.2304-1.6637-0.93245-2.3234-2.6934-2.5273-1.3098-0.15167-3.0942-1.0614-3.9648-2.0234-2.1864-2.416-8.5477-2.4276-10.053-0.0176-0.59522 0.9531-2.01 1.8647-3.1426 2.0254-1.6416 0.23284-2.0203 0.80346-1.8711 2.8106 0.11252 1.5137-0.33613 2.7188-1.125 3.0215-0.72169 0.27693-1.3125 1.4717-1.3125 2.6562 0 1.6973-0.47683 2.1543-2.25 2.1543-1.8 0-2.25 0.45-2.25 2.25 0 2.025-0.35961 2.25-3.5996 2.25h-3.5996v4.0488c0 4.05-0.00078 4.05-1.8008 2.25-1.1931-1.1931-1.8008-3.0002-1.8008-5.3594 0-3.3587-0.17759-3.5917-3.166-4.1523-1.7418-0.32677-6.0963-0.35762-9.6758-0.0684-3.5795 0.28926-8.432 0.53773-10.783 0.55273l-4.2734 0.0274v10.352c0 6.3-0.35256 10.35-0.90039 10.35-0.58182 0-0.90039-10.501-0.90039-29.701 0-23.598-0.23695-29.699-1.1562-29.699-0.84603 0-1.1212-1.6991-1.0195-6.3203 0.0765-3.4759-0.21244-6.5369-0.64258-6.8027-0.43013-0.26584-0.78792 2.6795-0.79492 6.5449-0.008 3.8655-0.31211 6.5709-0.67578 6.0117-1.1676-1.7952-10.315-3.1705-19.111-2.873-8.3442 0.28217-8.5571 0.34321-8.8652 2.5391-0.17365 1.2375-0.75265 2.5216-1.2871 2.8535-0.67131 0.41694-0.89982 9.6697-0.73828 29.926l0.23437 29.32h-9.0723c-8.4714 0-9.0703 0.11984-9.0703 1.8008 0 1.56-0.60001 1.8008-4.5 1.8008h-4.5v-8.9473c0-4.9938 0.39609-9.1934 0.89844-9.5039 0.495-0.30592 0.90039-1.7145 0.90039-3.1309 0-2.4974-0.17014-2.5922-5.625-3.1523-3.0938-0.31775-10.282-0.45145-15.975-0.29688-8.6428 0.23468-10.3 0.50354-10.045 1.6309 0.1683 0.7425 0.53224 4.2862 0.80664 7.875l0.49805 6.5254h-10.906-10.908l-1.373 2.6543c-0.79798 1.5431-1.373 4.995-1.373 8.2402 0 5.5272-0.0172 5.5674-1.7988 3.9551-1.4434-1.3063-1.8008-2.7718-1.8008-7.3984 0-9.0809-0.20728-9.252-11.25-9.252-11.237 0-11.25 0.0117-11.25 10.74 0 5.8026-0.27049 7.2832-1.3496 7.373-0.7425 0.0619-4.2099 0.16281-7.7051 0.22461l-6.3535 0.11133 0.13476-4.0488c0.20935-6.292 0.20392-6.3008-3.1016-6.3008-1.6912 0-3.2286-0.46525-3.418-1.0332-0.41705-1.2512-16.302-1.0937-16.75 0.16601-0.16095 0.45236-2.2952 1.0892-4.7441 1.4141-2.4489 0.32486-4.6699 0.94134-4.9355 1.3711-0.26561 0.42975-1.6751 0.7832-3.1309 0.7832-1.9899 0-2.6465-0.42027-2.6465-1.6914 0-3.2612-3.9076-3.8348-20.291-2.9746-8.4325 0.44282-15.641 0.45781-16.113 0.0332-1.0551-0.94813-5.3516-1.0125-6.2715-0.0937-0.3717 0.37126-5.5021 0.53133-11.4 0.35547l-10.723-0.31836-0.10547 5.7188c-0.0574 3.1459-0.28932 5.0124-0.51562 4.1465-0.4295-1.6433-2.1905-2.2756-7.4805-2.6836l-3.1484-0.24219-0.45117-13.951c-0.43953-13.625-0.49675-13.955-2.4746-14.236-1.1138-0.15817-2.0254-0.66442-2.0254-1.125 0-1.359-5.4104-0.95675-6.8789 0.51172-0.7425 0.7425-2.1313 1.3496-3.0859 1.3496-1.6617 0-1.7344 0.84523-1.7344 19.801v19.799h-5.4004c-5.16 0-5.4004 0.1-5.4004 2.25 0 1.2375-0.40539 2.25-0.90039 2.25s-0.89844-2.1995-0.89844-4.8887c0-4.2788-0.25325-4.9693-2.0254-5.5352-3.4775-1.1105-12.724-0.43386-13.824 1.0117-0.54958 0.72231-1.6179 1.3125-2.373 1.3125-0.75509 0-2.5333 0.60625-3.9512 1.3457-2.8072 1.4641-5.2046 1.7932-4.4766 0.61524 0.74391-1.2037-2.8869-3.7598-5.3398-3.7598-1.2474 0-2.5002 0.60711-2.7852 1.3496-0.72115 1.8793-5.1376 1.6898-6.9355-0.29688-0.81923-0.90523-1.4902-2.9538-1.4902-4.5527 0-1.709-0.37134-2.6785-0.90039-2.3516-0.495 0.30593-0.89844 1.5119-0.89844 2.6797 0 3.6069-0.97014 4.9707-3.5332 4.9707-2.2204 0-2.5154-0.408-3.2793-4.5508-0.46159-2.5033-1.2433-4.5527-1.7383-4.5527s-1.2767 2.0494-1.7383 4.5527l-0.83984 4.5508h-9.1504c-5.0325 0-12.248 0.26189-16.035 0.58203l-6.8867 0.58203v3.4688c0 3.0991-0.23928 3.4668-2.25 3.4668-2.1273 0-2.25-0.26922-2.25-4.9492v-4.9492h-20.25-20.25v5.3984 5.4004l-0.61057 36.365-7.0758 5.1027 0.0047 1.7349h1020.2c-0.037-4.096-0.043-9.5328-0.043-17.031v-28.729l-2.6992-0.59375c-1.485-0.32616-2.7012-1.1679-2.7012-1.8711 0-0.85519-1.0172-1.2773-3.0742-1.2773-1.6912 0-3.2099-0.39013-3.375-0.86523-0.1649-0.4751-3.54-1.1229-7.5-1.4414-5.4641-0.43942-8.1765-0.23543-11.25 0.84961-2.2275 0.78636-4.9625 1.4364-6.0762 1.4434-1.1138 0.007-2.0234 0.41711-2.0234 0.91211s-0.7993 0.90039-1.7754 0.90039c-1.6679 0-1.79 0.7437-2.0254 12.375-0.21 10.384-0.4642 12.327-1.584 12.08-0.734-0.16216-5.2966-0.46086-10.139-0.66407-7.7312-0.32447-9.3723-0.69493-13.477-3.0391-8.5233-4.8678-20.567-4.6113-27.625 0.58789-3.2349 2.3829-3.8245 2.4949-11.641 2.2207l-8.2344-0.2871v-5.8145c0-4.3381-0.34437-5.9475-1.3516-6.334-0.7425-0.28493-1.3496-1.461-1.3496-2.6152 0-1.7972-0.58041-2.1869-4.0488-2.707-3.1541-0.47299-4.0508-0.98242-4.0508-2.3047 0-1.5004-0.7241-1.6973-6.2363-1.6973-5.7832 0-6.2588 0.14785-6.5254 2.0254-0.23103 1.6266-0.95308 2.0784-3.6641 2.3027l-3.375 0.2793v10.799c0 6.97-0.31758 10.603-0.89844 10.244-0.5328-0.32927-0.90039-5.8609-0.90039-13.555v-12.996h-4.3691c-2.4024 0-6.8558-0.26012-9.8984-0.57813l-5.5332-0.57812v-8.7344-8.7324l-11.627-0.58789c-6.3948-0.32362-12.266-0.34334-13.049-0.043-1.1499 0.44128-1.4238 2.0837-1.4238 8.5508v8.0039h-3.5996c-3.5143 0-3.5996 0.0734-3.5996 3.1484 0 2.2-0.4087 3.1504-1.3516 3.1504-0.7425 0-1.3496-0.60711-1.3496-1.3496 0-1.6909-6.7486-1.768-15.299-0.17578l-5.8516 1.0879-0.24219 18.67-0.24414 18.668h-4.4805-4.4824v-17.1-17.1h-5.4004-5.4004v-3.6289c0-2.3949-0.45853-3.8045-1.3496-4.1465-0.7425-0.28493-1.3496-1.0819-1.3496-1.7715 0-0.88588-1.189-1.2539-4.0508-1.2539-3.45 0-4.0488-0.26745-4.0488-1.8008 0-1.4571-0.60039-1.7988-3.1504-1.7988-2.2 0-3.1504-0.40675-3.1504-1.3496 0-0.83999-0.84999-1.3516-2.25-1.3516-2.0767 0-2.25-0.32161-2.25-4.1758 0-5.7186-1.3593-6.5602-10.66-6.5957-6.1806-0.0236-7.9741 0.30239-10.125 1.834-2.5696 1.8298-2.6152 2.0056-2.6152 10.371v8.5078l-2.0508-1.3438c-1.7172-1.1252-2.4182-1.1534-4.2988-0.17773-2.607 1.3526-4.4492 0.98932-4.4492-0.875 0-2.0045-4.4701-10.369-5.2754-9.8711-0.39142 0.2419-1.4518 2.0801-2.3555 4.084-1.3621 3.0206-2.082 3.6426-4.207 3.6426h-2.5625v-12.502-12.502l-2.2109-0.55469c-2.0597-0.51694-2.2284-1.0018-2.4746-7.0742l-0.26368-6.5176-5.625-0.26758-5.625-0.26758-0.0137-8.7324c-0.0155-11.006-0.46555-12.781-3.2422-12.781-1.1798 0-2.1445-0.48686-2.1445-1.082 0-0.59519-1.2424-2.3661-2.7617-3.9336s-2.8735-3.6119-3.0078-4.543c-0.13589-0.9423-1.1056-1.8204-2.1875-1.9805-1.528-0.22611-1.9434 0.17163-1.9434 1.8574 0 1.2076-1.1786 3.2736-2.6992 4.7305-1.485 1.4227-2.7012 3.1196-2.7012 3.7695 0 0.69824-1.0456 1.1816-2.5566 1.1816h-2.5566l-0.5918 18.225c-0.32476 10.024-0.59089 25.211-0.59179 33.75-0.002 13.199-0.20384 15.525-1.3516 15.525-1.1398 0-1.3516-2.0948-1.3516-13.455 0-10.904-0.24993-13.597-1.3223-14.197-1.0459-0.58531-1.3772-3.3762-1.5762-13.318l-0.25-12.58h-12.602-12.6l-0.25781 7.7656-0.25977 7.7656-3.5664 0.57031-3.5664 0.57031v6.3496 6.3477l-2.4746-0.2832-2.4746-0.28516-0.19336-33.529c-0.23186-40.246 0.64677-37.421-11.496-36.965l-7.8281 0.29297 0.52344-3.1484c0.28788-1.7325 0.5282-3.8198 0.53321-4.6367 0.007-1.0356 1.374-1.8112 4.5137-2.5644 4.8561-1.165 6.1814-2.2757 4.5996-3.8574-1.8942-1.8942-0.99517-3.1058 2.6719-3.5977 2.0209-0.27106 3.932-0.75232 4.248-1.0684 0.88214-0.88214-1.6949-2.2144-5.5195-2.8535-2.7793-0.4644-3.362-0.89669-3.0117-2.2363 0.36162-1.3828-0.60835-1.9717-5.7793-3.5117-3.4169-1.0176-6.2109-2.1047-6.2109-2.416 0-0.31131 0.66903-1.3077 1.4883-2.2129 1.3992-1.5462 1.3727-1.6465-0.44922-1.6465-1.0667 0-1.9395-0.40344-1.9395-0.89844s-0.59319-0.90039-1.3164-0.90039c-0.72322 0-2.1392-0.88736-3.1484-1.9707-1.5292-1.6414-1.8532-3.2529-1.9394-9.6738-0.0548-4.0786-0.12661-5.8538-0.32618-5.8672zm6.9395 44.074c0.74888 0.0983 0.70056 1.1413 0.34961 4.7754-0.27145 2.8109-0.87054 9.4898-1.332 14.842-0.46148 5.352-1.0836 9.9762-1.3828 10.275-0.29924 0.29925-0.54492-6.1574-0.54492-14.35 0-14.341 0.07-14.914 1.877-15.387 0.44482-0.11632 0.78358-0.18902 1.0332-0.15625zm-12.438 0.4375c1.0291 0 1.3318 2.7833 1.5957 14.625 0.17931 8.0438 0.21588 14.794 0.0801 15-0.13579 0.20624-0.25533 0.20624-0.26563 0-0.0103-0.20625-0.60664-6.0446-1.3242-12.975-1.6404-15.843-1.6436-16.65-0.0859-16.65zm1.9648 78.375c0.19937-0.20624 0.36328 3.7429 0.36328 8.7754 0 5.5-0.35941 9.1484-0.90039 9.1484-0.495 0-0.90039 1.0125-0.90039 2.25s-0.43636 2.25-0.9707 2.25c-0.58324 0-0.76855-0.98872-0.46289-2.4746 0.28002-1.3612 0.95983-6.3229 1.5098-11.025 0.54993-4.7025 1.1619-8.7176 1.3613-8.9238zm456.68 60.443c-0.7145 0.008-0.918 1.292-0.918 5.084 0 5.2627-0.2219 4.1091-2.3763 4.1091-1.7711 0-2.1237 0.93187-2.1237-0.75752 0-1.9258-0.5081-2.2105-4.9355-2.7637-2.7138-0.3391-5.346-0.36204-5.8497-0.0508-0.361 0.22314-0.6609 2.2401-0.8105 4.9629h89.894v-1.7637l-17.324-0.24414c-13.143-0.18542-17.272-0.51213-17.106-1.3535 0.1209-0.61006-0.7906-1.364-2.0253-1.6738-1.2345-0.30986-2.2442-0.9239-2.2442-1.3652 0-0.44133-1.4179-0.80273-3.1504-0.80273s-3.1504 0.40539-3.1504 0.90039-0.5178 0.90039-1.1504 0.90039c-0.6324 0-1.8368 0.80305-2.6777 1.7852-1.2864 1.5024-2.2092 1.6917-5.8164 1.1973-2.358-0.32321-4.8306-1.1295-5.4941-1.793-0.6634-0.66345-1.5329-1.0043-1.9317-0.75781-0.3988 0.24648-0.9133-0.2758-1.1445-1.1602-0.2491-0.95266-1.9795-2.0748-4.2461-2.7539-2.104-0.63039-4.391-1.3638-5.082-1.6289-0.1239-0.0475-0.2359-0.0714-0.3379-0.0703z"
         transform="translate(0,287.36)"
         fill="url(#linearGradient4164)" />
    </g>
  </g>
  <g
     id="layer3">
    <g
       id="text4191">
      <path
         id="path4970"
         d="m30.829 30.696q0 2.6562-1.3477 4.7266-1.3477 2.0508-3.8867 3.2031-2.5391 1.1328-5.957 1.1328-2.8516 0-4.7852-0.39062-1.9336-0.41016-4.0234-1.4062v-6.875q2.207 1.1328 4.5898 1.7773 2.3828 0.625 4.375 0.625 1.7188 0 2.5195-0.58594 0.80078-0.60547 0.80078-1.543 0-0.58594-0.33203-1.0156-0.3125-0.44922-1.0352-0.89844-0.70312-0.44922-3.7891-1.8359-2.793-1.2695-4.1992-2.4609-1.3867-1.1914-2.0703-2.7344-0.66406-1.543-0.66406-3.6523 0-3.9453 2.8711-6.1523t7.8906-2.207q4.4336 0 9.043 2.0508l-2.364 5.956q-4.0039-1.8359-6.9141-1.8359-1.5039 0-2.1875 0.52734-0.68359 0.52734-0.68359 1.3086 0 0.83984 0.85938 1.5039 0.87891 0.66406 4.7266 2.4219 3.6914 1.6602 5.1172 3.5742 1.4453 1.8945 1.4453 4.7852z" />
      <path
         id="path4972"
         d="m44.911 39.759q-5.4297 0-8.2422-2.9297-2.793-2.9297-2.793-8.418 0-5.5078 3.0273-8.5352 3.0273-3.0273 8.6133-3.0273 3.8477 0 7.2461 1.6797l-2.2461 5.6445q-1.3867-0.60547-2.5586-0.95703-1.1719-0.37109-2.4414-0.37109-1.8555 0-2.8711 1.4453t-1.0156 4.082q0 5.3125 3.9258 5.3125 3.3594 0 6.4453-1.9531v6.0742q-2.9492 1.9531-7.0898 1.9531z" />
      <path
         id="path4974"
         d="m70.829 39.368-1.4648-2.9297h-0.15625q-1.543 1.9141-3.1445 2.6172-1.6016 0.70312-4.1406 0.70312-3.125 0-4.9219-1.875t-1.7969-5.2734q0-3.5352 2.4609-5.2539 2.4609-1.7383 7.1289-1.9531l3.6914-0.11719v-0.3125q0-2.7344-2.6953-2.7344-2.4219 0-6.1523 1.6406l-2.207-5.0391q3.8672-1.9922 9.7656-1.9922 4.2578 0 6.582 2.1094 2.3438 2.1094 2.3438 5.8984v14.512h-5.293zm-5.6641-5q1.3867 0 2.3633-0.87891 0.99609-0.87891 0.99609-2.2852v-1.7188l-1.7578 0.07813q-3.7695 0.13672-3.7695 2.7734 0 2.0312 2.168 2.0312z" />
      <path
         id="path4976"
         d="m88.954 39.368h-7.6367v-30.391h7.6367v30.391z" />
      <path
         id="path4978"
         d="m104.97 39.759q-5.5273 0-8.5938-2.9297-3.0469-2.9492-3.0469-8.3789 0-5.6055 2.832-8.5938 2.832-3.0078 8.0859-3.0078 5 0 7.7148 2.6172 2.7344 2.5977 2.7344 7.5v3.3984h-13.652q0.0781 1.8555 1.3476 2.9102 1.2891 1.0547 3.4961 1.0547 2.0117 0 3.6914-0.37109 1.6992-0.39062 3.6719-1.3086v5.4883q-1.7969 0.91797-3.7109 1.2695-1.9141 0.35156-4.5703 0.35156zm-0.44922-17.715q-1.3477 0-2.2656 0.85938-0.89843 0.83984-1.0547 2.6562h6.5625q-0.0391-1.6016-0.91797-2.5586-0.85938-0.95703-2.3242-0.95703z" />
      <path
         id="path4980"
         d="m136.14 32.571q0 3.5547-2.4219 5.3711t-6.9531 1.8164q-2.4609 0-4.2773-0.27344-1.8164-0.25391-3.7109-0.95703v-6.1133q1.7773 0.78125 3.8867 1.2891 2.1289 0.50781 3.7891 0.50781 2.4805 0 2.4805-1.1328 0-0.58594-0.70312-1.0352-0.6836-0.46875-4.0234-1.7969-3.0469-1.25-4.2578-2.832-1.2109-1.6016-1.2109-4.043 0-3.0859 2.3828-4.8047t6.7383-1.7188q2.1875 0 4.1016 0.48828 1.9336 0.46875 4.0039 1.3867l-2.0703 4.9219q-1.5234-0.68359-3.2227-1.1523-1.6992-0.48828-2.7734-0.48828-1.875 0-1.875 0.91797 0 0.56641 0.64454 0.97656 0.66406 0.39062 3.7891 1.6211 2.3242 0.95703 3.457 1.875 1.1523 0.91797 1.6797 2.168 0.54687 1.2305 0.54687 3.0078z" />
      <path
         id="path4982"
         d="m171.9 28.255q0 5.4297-2.9297 8.4766-2.9102 3.0273-8.1641 3.0273-5.0391 0-8.0273-3.1055-2.9688-3.1055-2.9688-8.3984 0-5.4102 2.9102-8.3984 2.9297-3.0078 8.2031-3.0078 3.2617 0 5.7617 1.3867t3.8476 3.9844q1.3672 2.5781 1.3672 6.0352zm-14.336 0q0 2.8516 0.76172 4.3555 0.76172 1.4844 2.5586 1.4844 1.7773 0 2.5-1.4844 0.74218-1.5039 0.74218-4.3555 0-2.832-0.74218-4.2773-0.74219-1.4453-2.5391-1.4453-1.7578 0-2.5195 1.4453-0.76172 1.4258-0.76172 4.2773z" />
      <path
         id="path4984"
         d="m189.75 22.962h-4.707v16.406h-7.6367v-16.406h-2.9297v-3.75l3.0859-1.875v-0.37109q0-4.375 1.7774-6.2891 1.7969-1.9141 5.7422-1.9141 1.5234 0 2.8711 0.23438 1.3672 0.23438 3.1641 0.82031l-1.6406 4.9414q-1.4062-0.39062-2.7539-0.39062-0.87891 0-1.2891 0.54688-0.39063 0.52734-0.39063 1.7383v0.58594h4.707v5.7227z" />
      <path
         id="path4986"
         d="m222.31 30.696q0 2.6562-1.3477 4.7266-1.3477 2.0508-3.8867 3.2031-2.5391 1.1328-5.957 1.1328-2.8516 0-4.7852-0.39062-1.9336-0.41016-4.0234-1.4062v-6.875q2.207 1.1328 4.5898 1.7773 2.3828 0.625 4.375 0.625 1.7188 0 2.5195-0.58594 0.80078-0.60547 0.80078-1.543 0-0.58594-0.33203-1.0156-0.3125-0.44922-1.0352-0.89844-0.70313-0.44922-3.7891-1.8359-2.793-1.2695-4.1992-2.4609-1.3867-1.1914-2.0703-2.7344-0.66406-1.543-0.66406-3.6523 0-3.9453 2.8711-6.1523t7.8906-2.207q4.4336 0 9.043 2.0508l-2.3633 5.957q-4.0039-1.8359-6.9141-1.8359-1.5039 0-2.1875 0.52734-0.68359 0.52734-0.68359 1.3086 0 0.83984 0.85937 1.5039 0.87891 0.66406 4.7266 2.4219 3.6914 1.6602 5.1172 3.5742 1.4453 1.8945 1.4453 4.7852z" />
      <path
         id="path4988"
         d="m237.16 33.723q1.543 0 3.6914-0.76172v5.5664q-1.543 0.66406-2.9492 0.9375-1.3867 0.29297-3.2617 0.29297-3.8477 0-5.5469-1.875-1.6992-1.8945-1.6992-5.8008v-9.1211h-2.6758v-3.1055l3.3984-2.4023 1.9726-4.6484h5v4.4336h5.4297v5.7227h-5.4297v8.6133q0 2.1484 2.0703 2.1484z" />
      <path
         id="path4990"
         d="m258.11 16.848q0.99609 0 1.8945 0.15625l0.42969 0.07813-0.6836 7.207q-0.9375-0.23438-2.5976-0.23438-2.5 0-3.6328 1.1523-1.1328 1.1328-1.1328 3.2812v10.879h-7.6367v-22.129h5.6836l1.1914 3.5352h0.3711q0.95703-1.7578 2.6562-2.832 1.7188-1.0938 3.457-1.0938z" />
      <path
         id="path4992"
         d="m279.27 39.368-0.95703-2.7539h-0.44922q-0.95703 1.5234-2.6758 2.3438-1.6992 0.80078-4.0039 0.80078-3.6523 0-5.6836-2.1094-2.0312-2.1289-2.0312-5.9961v-14.414h7.6367v12.09q0 2.168 0.60547 3.2812 0.625 1.1133 2.0312 1.1133 1.9726 0 2.8125-1.543 0.83984-1.5625 0.83984-5.2539v-9.6875h7.6367v22.129h-5.7617z" />
      <path
         id="path4994"
         d="m311.18 17.239v3.6914l-3.0273 1.1133q0.625 1.1328 0.625 2.6367 0 3.5742-2.5195 5.5469-2.5 1.9727-7.4805 1.9727-1.2305 0-1.9531-0.15625-0.27344 0.50781-0.27344 0.95703 0 0.56641 0.91797 0.87891 0.91797 0.29297 2.4023 0.29297h3.6719q7.4414 0 7.4414 6.2695 0 4.043-3.457 6.2891-3.4375 2.2461-9.668 2.2461-4.707 0-7.2656-1.582-2.5391-1.5625-2.5391-4.5117 0-3.9648 4.9219-5.1172-1.0156-0.42969-1.7773-1.3867-0.74219-0.95703-0.74219-1.8945 0-1.0352 0.5664-1.8164 0.56641-0.80078 2.3633-1.8945-1.7188-0.76172-2.7148-2.3828-0.97656-1.6211-0.97656-3.9453 0-3.6133 2.4609-5.6055t7.0312-1.9922q0.60547 0 2.0898 0.13672 1.4844 0.13672 2.1875 0.25391h7.7148zm-16.68 24.883q0 0.9375 1.0156 1.5039 1.0156 0.58594 2.7148 0.58594 2.7734 0 4.4336-0.70312 1.6797-0.68359 1.6797-1.7773 0-0.87891-1.0156-1.25-1.0156-0.35156-2.9102-0.35156h-2.9883q-1.2305 0-2.0898 0.56641-0.83984 0.58594-0.83984 1.4258zm2.4-17.637q0 3.3984 2.3633 3.3984 1.0938 0 1.6797-0.83984 0.60547-0.83984 0.60547-2.5195 0-3.4375-2.2852-3.4375-2.3633 0-2.3633 3.3984z" />
      <path
         id="path4996"
         d="m335.4 17.239v3.6914l-3.0273 1.1133q0.625 1.1328 0.625 2.6367 0 3.5742-2.5195 5.5469-2.5 1.9727-7.4805 1.9727-1.2305 0-1.9531-0.15625-0.27344 0.50781-0.27344 0.95703 0 0.56641 0.91797 0.87891 0.91797 0.29297 2.4023 0.29297h3.6719q7.4414 0 7.4414 6.2695 0 4.043-3.457 6.2891-3.4375 2.2461-9.668 2.2461-4.707 0-7.2656-1.582-2.5391-1.5625-2.5391-4.5117 0-3.9648 4.9219-5.1172-1.0156-0.42969-1.7773-1.3867-0.74219-0.95703-0.74219-1.8945 0-1.0352 0.5664-1.8164 0.56641-0.80078 2.3633-1.8945-1.7188-0.76172-2.7148-2.3828-0.97656-1.6211-0.97656-3.9453 0-3.6133 2.4609-5.6055t7.0312-1.9922q0.60547 0 2.0898 0.13672 1.4844 0.13672 2.1875 0.25391h7.7148zm-16.68 24.883q0 0.9375 1.0156 1.5039 1.0156 0.58594 2.7148 0.58594 2.7734 0 4.4336-0.70312 1.6797-0.68359 1.6797-1.7773 0-0.87891-1.0156-1.25-1.0156-0.35156-2.9102-0.35156h-2.9883q-1.2305 0-2.0898 0.56641-0.83984 0.58594-0.83984 1.4258zm2.4023-17.637q0 3.3984 2.3633 3.3984 1.0938 0 1.6797-0.83984 0.60547-0.83984 0.60547-2.5195 0-3.4375-2.2852-3.4375-2.3633 0-2.3633 3.3984z" />
      <path
         id="path4998"
         d="m346.38 39.368h-7.6367v-30.391h7.6367v30.391z" />
      <path
         id="path5000"
         d="m362.39 39.759q-5.5273 0-8.5938-2.9297-3.0469-2.9492-3.0469-8.3789 0-5.6055 2.832-8.5938 2.832-3.0078 8.0859-3.0078 5 0 7.7148 2.6172 2.7344 2.5977 2.7344 7.5v3.3984h-13.652q0.0781 1.8555 1.3477 2.9102 1.2891 1.0547 3.4961 1.0547 2.0117 0 3.6914-0.37109 1.6992-0.39062 3.6719-1.3086v5.4883q-1.7969 0.91797-3.7109 1.2695-1.9141 0.35156-4.5703 0.35156zm-0.44922-17.715q-1.3476 0-2.2656 0.85938-0.89844 0.83984-1.0547 2.6562h6.5625q-0.0391-1.6016-0.91797-2.5586-0.85937-0.95703-2.3242-0.95703z" />
    </g>
  </g>
  <g
     id="g4195">
    <g
       id="text4197"
       stroke="#fff"
       stroke-width="1px"
       fill="#eb3349">
      <path
         id="path4937"
         d="m29.334 29.201q0 2.6562-1.3477 4.7266-1.3477 2.0508-3.8867 3.2031-2.5391 1.1328-5.957 1.1328-2.8516 0-4.7852-0.39062-1.9336-0.41016-4.0234-1.4062v-6.875q2.207 1.1328 4.5898 1.7773 2.3828 0.625 4.375 0.625 1.7188 0 2.5195-0.58594 0.80078-0.60547 0.80078-1.543 0-0.58594-0.33203-1.0156-0.3125-0.44922-1.0352-0.89844-0.70312-0.44922-3.7891-1.8359-2.793-1.2695-4.1992-2.4609-1.3867-1.1914-2.0703-2.7344-0.66406-1.543-0.66406-3.6523 0-3.9453 2.8711-6.1523t7.8906-2.207q4.4336 0 9.043 2.0508l-2.3633 5.957q-4.0039-1.8359-6.9141-1.8359-1.5039 0-2.1875 0.52734-0.68359 0.52734-0.68359 1.3086 0 0.83984 0.85938 1.5039 0.87891 0.66406 4.7266 2.4219 3.6914 1.6602 5.1172 3.5742 1.4453 1.8945 1.4453 4.7852z" />
      <path
         id="path4939"
         d="m43.416 38.264q-5.4297 0-8.2422-2.9297-2.793-2.9297-2.793-8.418 0-5.5078 3.0273-8.5352 3.0273-3.0273 8.6133-3.0273 3.8477 0 7.2461 1.6797l-2.2461 5.6445q-1.3867-0.60547-2.5586-0.95703-1.1719-0.37109-2.4414-0.37109-1.8555 0-2.8711 1.4453t-1.0156 4.082q0 5.3125 3.9258 5.3125 3.3594 0 6.4453-1.9531v6.0742q-2.9492 1.9531-7.0898 1.9531z" />
      <path
         id="path4941"
         d="m69.334 37.873-1.4648-2.9297h-0.15625q-1.543 1.9141-3.1445 2.6172-1.6016 0.70312-4.1406 0.70312-3.125 0-4.9219-1.875t-1.7969-5.2734q0-3.5352 2.4609-5.2539 2.4609-1.7383 7.1289-1.9531l3.6914-0.11719v-0.3125q0-2.7344-2.6953-2.7344-2.4219 0-6.1523 1.6406l-2.206-5.038q3.8672-1.9922 9.7656-1.9922 4.2578 0 6.582 2.1094 2.3438 2.1094 2.3438 5.8984v14.512h-5.293zm-5.6641-5q1.3867 0 2.3633-0.87891 0.99609-0.87891 0.99609-2.2852v-1.7188l-1.7578 0.07813q-3.7695 0.13672-3.7695 2.7734 0 2.0312 2.168 2.0312z" />
      <path
         id="path4943"
         d="m87.459 37.873h-7.6367v-30.391h7.6367v30.391z" />
      <path
         id="path4945"
         d="m103.47 38.264q-5.5273 0-8.5937-2.9297-3.0469-2.9492-3.0469-8.3789 0-5.6055 2.832-8.5938 2.832-3.0078 8.0859-3.0078 5 0 7.7148 2.6172 2.7344 2.5977 2.7344 7.5v3.3984h-13.652q0.07813 1.8555 1.3477 2.9102 1.2891 1.0547 3.4961 1.0547 2.0117 0 3.6914-0.37109 1.6992-0.39062 3.6719-1.3086v5.4883q-1.7969 0.91797-3.7109 1.2695-1.9141 0.35156-4.5703 0.35156zm-0.44922-17.715q-1.3476 0-2.2656 0.85938-0.89844 0.83984-1.0547 2.6562h6.5625q-0.0391-1.6016-0.91797-2.5586-0.85937-0.95703-2.3242-0.95703z" />
      <path
         id="path4947"
         d="m134.65 31.076q0 3.5547-2.4219 5.3711t-6.9531 1.8164q-2.4609 0-4.2774-0.27344-1.8164-0.25391-3.7109-0.95703v-6.1133q1.7773 0.78125 3.8867 1.2891 2.1289 0.50781 3.7891 0.50781 2.4805 0 2.4805-1.1328 0-0.58594-0.70313-1.0352-0.68359-0.46875-4.0234-1.7969-3.0469-1.25-4.2578-2.832-1.2109-1.6016-1.2109-4.043 0-3.0859 2.3828-4.8047t6.7383-1.7188q2.1875 0 4.1016 0.48828 1.9336 0.46875 4.0039 1.3867l-2.0703 4.9219q-1.5234-0.68359-3.2226-1.1523-1.6992-0.48828-2.7734-0.48828-1.875 0-1.875 0.91797 0 0.56641 0.64453 0.97656 0.66406 0.39062 3.7891 1.6211 2.3242 0.95703 3.457 1.875 1.1523 0.91797 1.6797 2.168 0.54688 1.2305 0.54688 3.0078z" />
      <path
         id="path4949"
         d="m170.41 26.76q0 5.4297-2.9297 8.4766-2.9102 3.0273-8.1641 3.0273-5.0391 0-8.0274-3.1055-2.9688-3.1055-2.9688-8.3984 0-5.4102 2.9102-8.3984 2.9297-3.0078 8.2031-3.0078 3.2617 0 5.7617 1.3867t3.8477 3.9844q1.3672 2.5781 1.3672 6.0352zm-14.336 0q0 2.8516 0.76172 4.3555 0.76172 1.4844 2.5586 1.4844 1.7774 0 2.5-1.4844 0.74219-1.5039 0.74219-4.3555 0-2.832-0.74219-4.2773t-2.5391-1.4453q-1.7578 0-2.5195 1.4453-0.76172 1.4258-0.76172 4.2773z" />
      <path
         id="path4951"
         d="m188.26 21.467h-4.707v16.406h-7.6367v-16.406h-2.9297v-3.75l3.0859-1.875v-0.37109q0-4.375 1.7773-6.2891 1.7969-1.9141 5.7422-1.9141 1.5234 0 2.8711 0.23438 1.3672 0.23438 3.1641 0.82031l-1.6406 4.9414q-1.4062-0.39062-2.7539-0.39062-0.87891 0-1.2891 0.54688-0.39062 0.52734-0.39062 1.7383v0.58594h4.707v5.7227z" />
      <path
         id="path4953"
         d="m220.82 29.201q0 2.6562-1.3476 4.7266-1.3477 2.0508-3.8867 3.2031-2.5391 1.1328-5.957 1.1328-2.8516 0-4.7852-0.39062-1.9336-0.41016-4.0234-1.4062v-6.875q2.207 1.1328 4.5898 1.7773 2.3828 0.625 4.375 0.625 1.7188 0 2.5195-0.58594 0.80078-0.60547 0.80078-1.543 0-0.58594-0.33203-1.0156-0.3125-0.44922-1.0352-0.89844-0.70312-0.44922-3.7891-1.8359-2.793-1.2695-4.1992-2.4609-1.3867-1.1914-2.0703-2.7344-0.66406-1.543-0.66406-3.6523 0-3.9453 2.8711-6.1523t7.8906-2.207q4.4336 0 9.043 2.0508l-2.3633 5.957q-4.0039-1.8359-6.9141-1.8359-1.5039 0-2.1875 0.52734-0.68359 0.52734-0.68359 1.3086 0 0.83984 0.85937 1.5039 0.87891 0.66406 4.7266 2.4219 3.6914 1.6602 5.1172 3.5742 1.4453 1.8945 1.4453 4.7852z" />
      <path
         id="path4955"
         d="m235.66 32.229q1.543 0 3.6914-0.76172v5.5664q-1.543 0.66406-2.9492 0.9375-1.3867 0.29297-3.2617 0.29297-3.8476 0-5.5469-1.875-1.6992-1.8945-1.6992-5.8008v-9.1211h-2.6758v-3.1055l3.3984-2.4023 1.9727-4.6484h5v4.4336h5.4297v5.7227h-5.4297v8.6133q0 2.1484 2.0703 2.1484z" />
      <path
         id="path4957"
         d="m256.62 15.354q0.9961 0 1.8945 0.15625l0.42968 0.07813-0.68359 7.207q-0.9375-0.23438-2.5977-0.23438-2.5 0-3.6328 1.1523-1.1328 1.1328-1.1328 3.2812v10.879h-7.6367v-22.129h5.6836l1.1914 3.5352h0.37109q0.95703-1.7578 2.6562-2.832 1.7188-1.0938 3.457-1.0938z" />
      <path
         id="path4959"
         d="m277.77 37.873-0.95703-2.7539h-0.44922q-0.95703 1.5234-2.6758 2.3438-1.6992 0.80078-4.0039 0.80078-3.6523 0-5.6836-2.1094-2.0312-2.1289-2.0312-5.9961v-14.414h7.6367v12.09q0 2.168 0.60546 3.2812 0.625 1.1133 2.0312 1.1133 1.9727 0 2.8125-1.543 0.83985-1.5625 0.83985-5.2539v-9.6875h7.6367v22.129h-5.7617z" />
      <path
         id="path4961"
         d="m309.69 15.744v3.6914l-3.0273 1.1133q0.625 1.1328 0.625 2.6367 0 3.5742-2.5195 5.5469-2.5 1.9727-7.4805 1.9727-1.2305 0-1.9531-0.15625-0.27344 0.50781-0.27344 0.95703 0 0.56641 0.91797 0.87891 0.91797 0.29297 2.4024 0.29297h3.6719q7.4414 0 7.4414 6.2695 0 4.043-3.457 6.2891-3.4375 2.2461-9.668 2.2461-4.707 0-7.2656-1.582-2.5391-1.5625-2.5391-4.5117 0-3.9648 4.9219-5.1172-1.0156-0.42969-1.7774-1.3867-0.74219-0.95703-0.74219-1.8945 0-1.0352 0.56641-1.8164 0.56641-0.80078 2.3633-1.8945-1.7188-0.76172-2.7148-2.3828-0.97656-1.6211-0.97656-3.9453 0-3.6133 2.4609-5.6055t7.0312-1.9922q0.60547 0 2.0898 0.13672 1.4844 0.13672 2.1875 0.25391h7.7148zm-16.68 24.883q0 0.9375 1.0156 1.5039 1.0156 0.58594 2.7148 0.58594 2.7734 0 4.4336-0.70312 1.6797-0.68359 1.6797-1.7773 0-0.87891-1.0156-1.25-1.0156-0.35156-2.9102-0.35156h-2.9883q-1.2305 0-2.0898 0.56641-0.83985 0.58594-0.83985 1.4258zm2.4024-17.637q0 3.3984 2.3633 3.3984 1.0938 0 1.6797-0.83984 0.60546-0.83984 0.60546-2.5195 0-3.4375-2.2852-3.4375-2.3633 0-2.3633 3.3984z" />
      <path
         id="path4963"
         d="m333.9 15.744v3.6914l-3.0273 1.1133q0.625 1.1328 0.625 2.6367 0 3.5742-2.5195 5.5469-2.5 1.9727-7.4805 1.9727-1.2305 0-1.9531-0.15625-0.27344 0.50781-0.27344 0.95703 0 0.56641 0.91797 0.87891 0.91797 0.29297 2.4024 0.29297h3.6719q7.4414 0 7.4414 6.2695 0 4.043-3.457 6.2891-3.4375 2.2461-9.668 2.2461-4.707 0-7.2656-1.582-2.5391-1.5625-2.5391-4.5117 0-3.9648 4.9219-5.1172-1.0156-0.42969-1.7774-1.3867-0.74219-0.95703-0.74219-1.8945 0-1.0352 0.56641-1.8164 0.56641-0.80078 2.3633-1.8945-1.7188-0.76172-2.7148-2.3828-0.97656-1.6211-0.97656-3.9453 0-3.6133 2.4609-5.6055t7.0312-1.9922q0.60547 0 2.0898 0.13672 1.4844 0.13672 2.1875 0.25391h7.7148zm-16.68 24.883q0 0.9375 1.0156 1.5039 1.0156 0.58594 2.7148 0.58594 2.7734 0 4.4336-0.70312 1.6797-0.68359 1.6797-1.7773 0-0.87891-1.0156-1.25-1.0156-0.35156-2.9102-0.35156h-2.9883q-1.2305 0-2.0898 0.56641-0.83985 0.58594-0.83985 1.4258zm2.4024-17.637q0 3.3984 2.3633 3.3984 1.0938 0 1.6797-0.83984 0.60546-0.83984 0.60546-2.5195 0-3.4375-2.2852-3.4375-2.3633 0-2.3633 3.3984z" />
      <path
         id="path4965"
         d="m344.88 37.873h-7.6367v-30.391h7.6367v30.391z" />
      <path
         id="path4967"
         d="m360.9 38.264q-5.5274 0-8.5938-2.9297-3.0469-2.9492-3.0469-8.3789 0-5.6055 2.832-8.5938 2.832-3.0078 8.0859-3.0078 5 0 7.7148 2.6172 2.7344 2.5977 2.7344 7.5v3.3984h-13.652q0.0781 1.8555 1.3476 2.9102 1.2891 1.0547 3.4961 1.0547 2.0117 0 3.6914-0.37109 1.6992-0.39062 3.6719-1.3086v5.4883q-1.7969 0.91797-3.7109 1.2695-1.9141 0.35156-4.5703 0.35156zm-0.44922-17.715q-1.3477 0-2.2656 0.85938-0.89843 0.83984-1.0547 2.6562h6.5625q-0.0391-1.6016-0.91797-2.5586-0.85938-0.95703-2.3242-0.95703z" />
    </g>
    <g
       id="text4201">
      <path
         id="path4811"
         d="m15.712 43.968q-0.69288 0-1.0956 0.81132-0.39678 0.81132-0.39678 2.2563 0 3.0084 1.5693 3.0084 0.68696 0 1.4391-0.43823v1.4331q-0.63366 0.42047-1.6226 0.42047-1.4628 0-2.2504-1.1607-0.78171-1.1666-0.78171-3.2749t0.8054-3.2867q0.81132-1.1785 2.2504-1.1785 0.47376 0 0.90608 0.13029 0.43823 0.13028 0.93569 0.456l-0.53299 1.3088q-0.26649-0.18358-0.56852-0.33164-0.30202-0.15397-0.65735-0.15397z" />
      <path
         id="path4813"
         d="m24.222 47.001q0 2.1497-0.8054 3.3045t-2.3037 1.1548q-1.5042 0-2.3096-1.1489-0.8054-1.1548-0.8054-3.3223 0-2.1497 0.8054-3.2927 0.8054-1.1489 2.3214-1.1489 1.4983 0 2.2978 1.1548 0.79948 1.1489 0.79948 3.2986zm-4.5778 0q0 1.4805 0.37309 2.2563 0.37309 0.77579 1.0956 0.77579 1.4568 0 1.4568-3.0321t-1.445-3.0321q-0.73434 0-1.1074 0.77579-0.37309 0.76987-0.37309 2.2563z" />
      <path
         id="path4815"
         d="m28.58 51.341-1.6463-7.373h-0.06514q0.11252 0.85278 0.11252 1.5634v5.8095h-1.4924v-8.6581h2.4754l1.4805 6.8045h0.04738l1.4687-6.8045h2.511v8.6581h-1.5279v-5.8688q0-0.72842 0.08291-1.4924h-0.04738l-1.6404 7.3611h-1.7589z" />
      <path
         id="path4817"
         d="m38.103 51.341-1.6463-7.373h-0.06514q0.11252 0.85278 0.11252 1.5634v5.8095h-1.4924v-8.6581h2.4754l1.4805 6.8045h0.04738l1.4687-6.8045h2.511v8.6581h-1.5279v-5.8688q0-0.72842 0.08291-1.4924h-0.04738l-1.6404 7.3611h-1.7589z" />
      <path
         id="path4819"
         d="m49.858 42.683v5.6023q0 1.5457-0.6988 2.3629-0.6988 0.81132-2.0194 0.81132-1.291 0-1.9661-0.8054-0.67512-0.81132-0.67512-2.3925v-5.5786h1.599v5.697q0 1.6523 1.0956 1.6523 0.5093 0 0.78764-0.42047t0.27834-1.1963v-5.7326h1.599z" />
      <path
         id="path4821"
         d="m57.421 51.341h-1.9661l-2.6768-6.2715h-0.07699q0.14805 0.71657 0.14805 1.5397v4.7317h-1.4924v-8.6581h1.978l2.6531 6.2063h0.06514q-0.11252-0.62182-0.11252-1.4805v-4.7258h1.4805v8.6581z" />
      <path
         id="path4823"
         d="m59.251 51.341v-8.6581h1.516v8.6581h-1.516z" />
      <path
         id="path4825"
         d="m65.268 51.341h-1.6049v-7.2427h-1.6582v-1.4154h4.9212v1.4154h-1.6582v7.2427z" />
      <path
         id="path4827"
         d="m68.134 51.341v-8.6581h1.516v8.6581h-1.516z" />
      <path
         id="path4829"
         d="m75.394 51.341h-3.9026v-8.6581h3.9026v1.3917h-2.2918v2.0609h2.126v1.3976h-2.126v2.3984h2.2918v1.4095z" />
      <path
         id="path4831"
         d="m80.6 48.955q0 1.214-0.6159 1.8595-0.60997 0.6455-1.7648 0.6455-1.1311 0-1.9247-0.44416v-1.593q0.97122 0.63366 1.7825 0.63366 0.46192 0 0.69288-0.25465 0.23688-0.25465 0.23688-0.69288 0-0.43231-0.27834-0.78764-0.279-0.362-0.919-0.8-0.556-0.385-0.846-0.735-0.285-0.355-0.445-0.793-0.153-0.438-0.153-1.019 0-1.1133 0.6159-1.7648 0.62182-0.65143 1.6641-0.65143 0.99491 0 1.9128 0.55667l-0.53299 1.291q-0.28426-0.16582-0.59813-0.2961-0.30795-0.13028-0.66327-0.13028-0.39086 0-0.60405 0.26057-0.20727 0.25465-0.20727 0.6988 0 0.43823 0.24873 0.76395 0.25465 0.32571 0.88239 0.74026 0.84686 0.56852 1.1785 1.1607 0.33756 0.59221 0.33756 1.3502z" />
      <path
         id="path4833"
         d="m83.46 50.068q-0.30795 1.1963-1.0423 2.8367h-1.2022q0.38493-1.5753 0.59813-2.9729h1.5634l0.08291 0.13621z" />
      <path
         id="path4835"
         d="m91.046 51.341-1.6463-7.373h-0.06514q0.11252 0.85278 0.11252 1.5634v5.8095h-1.4924v-8.6581h2.4754l1.4805 6.8045h0.04738l1.4687-6.8045h2.511v8.6581h-1.5279v-5.8688q0-0.72842 0.08291-1.4924h-0.04738l-1.6404 7.3611h-1.7589z" />
      <path
         id="path4837"
         d="m103.44 47.001q0 2.1497-0.8054 3.3045t-2.3037 1.1548q-1.5042 0-2.3096-1.1489-0.8054-1.1548-0.8054-3.3223 0-2.1497 0.8054-3.2927 0.8054-1.1489 2.3214-1.1489 1.4983 0 2.2978 1.1548 0.79948 1.1489 0.79948 3.2986zm-4.5778 0q0 1.4805 0.37309 2.2563 0.37309 0.77579 1.0956 0.77579 1.4568 0 1.4568-3.0321t-1.445-3.0321q-0.73433 0-1.1074 0.77579-0.37309 0.76987-0.37309 2.2563z" />
      <path
         id="path4839"
         d="m108.24 42.683h1.6226l-2.0372 8.6581h-2.049l-2.0254-8.6581h1.6226l1.1311 5.2884q0.15398 0.67512 0.30203 1.9365 0.12436-1.0719 0.31387-1.9365l1.1193-5.2884z" />
      <path
         id="path4841"
         d="m114.53 51.341h-3.9026v-8.6581h3.9026v1.3917h-2.2918v2.0609h2.126v1.3976h-2.126v2.3984h2.2918v1.4095z" />
      <path
         id="path4843"
         d="m118.88 51.341-1.6463-7.373h-0.0652q0.11252 0.85278 0.11252 1.5634v5.8095h-1.4924v-8.6581h2.4754l1.4805 6.8045h0.0474l1.4687-6.8045h2.511v8.6581h-1.5279v-5.8688q0-0.72842 0.0829-1.4924h-0.0474l-1.6404 7.3611h-1.7588z" />
      <path
         id="path4845"
         d="m129.21 51.341h-3.9026v-8.6581h3.9026v1.3917h-2.2918v2.0609h2.126v1.3976h-2.126v2.3984h2.2918v1.4095z" />
      <path
         id="path4847"
         d="m136.54 51.341h-1.9661l-2.6768-6.2715h-0.077q0.14805 0.71657 0.14805 1.5397v4.7317h-1.4924v-8.6581h1.978l2.6531 6.2063h0.0651q-0.11252-0.62182-0.11252-1.4805v-4.7258h1.4805v8.6581z" />
      <path
         id="path4849"
         d="m140.74 51.341h-1.6049v-7.2427h-1.6582v-1.4154h4.9212v1.4154h-1.6582v7.2427z" />
      <path
         id="path4851"
         d="m147.26 48.955q0 1.214-0.61589 1.8595-0.60997 0.6455-1.7648 0.6455-1.1311 0-1.9247-0.44416v-1.593q0.97122 0.63366 1.7825 0.63366 0.46192 0 0.69288-0.25465 0.23689-0.25465 0.23689-0.69288 0-0.43231-0.27834-0.78764-0.27834-0.36125-0.91792-0.79948-0.55667-0.38493-0.84686-0.73434-0.28425-0.35532-0.44415-0.79356-0.15397-0.43823-0.15397-1.0186 0-1.1133 0.61589-1.7648 0.62182-0.65143 1.6641-0.65143 0.99491 0 1.9128 0.55667l-0.53299 1.291q-0.28426-0.16582-0.59813-0.2961-0.30794-0.13028-0.66327-0.13028-0.39085 0-0.60405 0.26057-0.20727 0.25465-0.20727 0.6988 0 0.43823 0.24873 0.76395 0.25465 0.32571 0.88238 0.74026 0.84686 0.56852 1.1785 1.1607 0.33755 0.59221 0.33755 1.3502z" />
      <path
         id="path4853"
         d="m150.12 50.068q-0.30795 1.1963-1.0423 2.8367h-1.2022q0.38493-1.5753 0.59813-2.9729h1.5634l0.0829 0.13621z" />
      <path
         id="path4855"
         d="m158.71 51.341-0.49746-2.1852h-2.2563l-0.49746 2.1852h-1.6108l2.1438-8.6936h2.1852l2.1497 8.6936h-1.6167zm-0.79948-3.6125-0.46192-2.0135q-0.0415-0.18358-0.18951-0.91792-0.14213-0.74026-0.17174-0.98898-0.077 0.5093-0.19543 1.1252-0.11844 0.60997-0.61589 2.7952h1.6345z" />
      <path
         id="path4857"
         d="m167.17 51.341h-1.9661l-2.6768-6.2715h-0.077q0.14805 0.71657 0.14805 1.5397v4.7317h-1.4924v-8.6581h1.978l2.6531 6.2063h0.0651q-0.11252-0.62182-0.11252-1.4805v-4.7258h1.4805v8.6581z" />
      <path
         id="path4859"
         d="m174.22 46.929q0 2.1438-0.87646 3.2808-0.87055 1.1311-2.511 1.1311h-2.1201v-8.6581h2.3155q1.5101 0 2.3511 1.1193 0.84093 1.1133 0.84093 3.1269zm-1.6522 0.04738q0-2.9018-1.599-2.9018h-0.64551v5.8569h0.52114q0.88239 0 1.3029-0.73434 0.42047-0.74026 0.42047-2.2208z" />
      <path
         id="path4861"
         d="m181.11 46.539h2.6472v4.4416q-1.1252 0.47969-2.3925 0.47969-1.5101 0-2.3274-1.1489-0.81133-1.1489-0.81133-3.3104 0-2.0846 0.92977-3.2631 0.93568-1.1785 2.6116-1.1785 1.0364 0 1.978 0.53299l-0.5093 1.3147q-0.73434-0.42639-1.3739-0.42639-0.91792 0-1.4568 0.82317-0.53298 0.81724-0.53298 2.2326 0 1.4568 0.38493 2.2326 0.39086 0.77579 1.1311 0.77579 0.39085 0 0.79355-0.10068v-1.9839h-1.0719v-1.4213z" />
      <path
         id="path4863"
         d="m185.08 51.341v-8.6581h1.6108v7.2486h2.2326v1.4095h-3.8434z" />
      <path
         id="path4865"
         d="m195.91 47.001q0 2.1497-0.8054 3.3045t-2.3037 1.1548q-1.5042 0-2.3096-1.1489-0.8054-1.1548-0.8054-3.3223 0-2.1497 0.8054-3.2927 0.8054-1.1489 2.3214-1.1489 1.4983 0 2.2978 1.1548 0.79948 1.1489 0.79948 3.2986zm-4.5778 0q0 1.4805 0.3731 2.2563 0.37309 0.77579 1.0956 0.77579 1.4568 0 1.4568-3.0321t-1.445-3.0321q-0.73433 0-1.1074 0.77579-0.3731 0.76987-0.3731 2.2563z" />
      <path
         id="path4867"
         d="m197.18 42.683h2.2089q1.3502 0 1.9661 0.52706 0.6159 0.52114 0.6159 1.6641 0 0.7521-0.32571 1.2614-0.32572 0.50338-0.88831 0.60997v0.05922q0.73433 0.18358 1.06 0.68696 0.32571 0.50338 0.32571 1.3384 0 1.1785-0.63366 1.8477-0.62774 0.66327-1.7233 0.66327h-2.6057v-8.6581zm1.516 3.4822h0.74026q0.50929 0 0.71657-0.27242 0.20727-0.27242 0.20727-0.81132 0-0.53891-0.23689-0.76987-0.23688-0.23688-0.74618-0.23688h-0.68103v2.0905zm0 1.3443v2.4221h0.81132q0.50338 0 0.74618-0.30795 0.24873-0.30795 0.24873-0.95345 0-1.1607-1.0186-1.1607h-0.78763z" />
      <path
         id="path4869"
         d="m207.44 51.341-0.49745-2.1852h-2.2563l-0.49746 2.1852h-1.6108l2.1438-8.6936h2.1852l2.1497 8.6936h-1.6167zm-0.79948-3.6125-0.46192-2.0135q-0.0415-0.18358-0.18951-0.91792-0.14213-0.74026-0.17174-0.98898-0.077 0.5093-0.19543 1.1252-0.11844 0.60997-0.61589 2.7952h1.6345z" />
      <path
         id="path4871"
         d="m209.83 51.341v-8.6581h1.6108v7.2486h2.2326v1.4095h-3.8434z" />
      <path
         id="path4873"
         d="m220.59 43.968q-0.69288 0-1.0956 0.81132-0.39678 0.81132-0.39678 2.2563 0 3.0084 1.5694 3.0084 0.68696 0 1.4391-0.43823v1.4331q-0.63366 0.42047-1.6226 0.42047-1.4628 0-2.2504-1.1607-0.78172-1.1666-0.78172-3.2749t0.80541-3.2867q0.81132-1.1785 2.2504-1.1785 0.47377 0 0.90608 0.13029 0.43823 0.13028 0.93568 0.456l-0.53298 1.3088q-0.2665-0.18358-0.56852-0.33164-0.30203-0.15397-0.65735-0.15397z" />
      <path
         id="path4875"
         d="m229.1 47.001q0 2.1497-0.8054 3.3045t-2.3037 1.1548q-1.5042 0-2.3096-1.1489-0.8054-1.1548-0.8054-3.3223 0-2.1497 0.8054-3.2927 0.8054-1.1489 2.3214-1.1489 1.4983 0 2.2978 1.1548 0.79948 1.1489 0.79948 3.2986zm-4.5778 0q0 1.4805 0.37309 2.2563 0.37309 0.77579 1.0956 0.77579 1.4568 0 1.4568-3.0321t-1.445-3.0321q-0.73434 0-1.1074 0.77579-0.37309 0.76987-0.37309 2.2563z" />
      <path
         id="path4877"
         d="m236.43 51.341h-1.9661l-2.6768-6.2715h-0.077q0.14805 0.71657 0.14805 1.5397v4.7317h-1.4924v-8.6581h1.978l2.6531 6.2063h0.0651q-0.11252-0.62182-0.11252-1.4805v-4.7258h1.4805v8.6581z" />
      <path
         id="path4879"
         d="m244.04 51.341h-1.9661l-2.6768-6.2715h-0.077q0.14805 0.71657 0.14805 1.5397v4.7317h-1.4924v-8.6581h1.978l2.6531 6.2063h0.0651q-0.11252-0.62182-0.11252-1.4805v-4.7258h1.4805v8.6581z" />
      <path
         id="path4881"
         d="m249.48 51.341h-3.9026v-8.6581h3.9026v1.3917h-2.2918v2.0609h2.126v1.3976h-2.126v2.3984h2.2918v1.4095z" />
      <path
         id="path4883"
         d="m253.61 43.968q-0.69288 0-1.0956 0.81132-0.39678 0.81132-0.39678 2.2563 0 3.0084 1.5694 3.0084 0.68696 0 1.4391-0.43823v1.4331q-0.63366 0.42047-1.6226 0.42047-1.4628 0-2.2504-1.1607-0.78171-1.1666-0.78171-3.2749t0.8054-3.2867q0.81132-1.1785 2.2504-1.1785 0.47377 0 0.90608 0.13029 0.43823 0.13028 0.93569 0.456l-0.53299 1.3088q-0.26649-0.18358-0.56852-0.33164-0.30202-0.15397-0.65735-0.15397z" />
      <path
         id="path4885"
         d="m259.01 51.341h-1.6049v-7.2427h-1.6582v-1.4154h4.9212v1.4154h-1.6582v7.2427z" />
      <path
         id="path4887"
         d="m261.88 51.341v-8.6581h1.516v8.6581h-1.516z" />
      <path
         id="path4889"
         d="m271.2 47.001q0 2.1497-0.8054 3.3045t-2.3037 1.1548q-1.5042 0-2.3096-1.1489-0.8054-1.1548-0.8054-3.3223 0-2.1497 0.8054-3.2927 0.8054-1.1489 2.3214-1.1489 1.4983 0 2.2978 1.1548 0.79948 1.1489 0.79948 3.2986zm-4.5778 0q0 1.4805 0.37309 2.2563 0.37309 0.77579 1.0956 0.77579 1.4568 0 1.4568-3.0321t-1.445-3.0321q-0.73434 0-1.1074 0.77579-0.37309 0.76987-0.37309 2.2563z" />
      <path
         id="path4891"
         d="m278.53 51.341h-1.9661l-2.6768-6.2715h-0.077q0.14805 0.71657 0.14805 1.5397v4.7317h-1.4924v-8.6581h1.978l2.6531 6.2063h0.0652q-0.11252-0.62182-0.11252-1.4805v-4.7258h1.4805v8.6581z" />
      <path
         id="path4893"
         d="m284.01 48.955q0 1.214-0.6159 1.8595-0.60997 0.6455-1.7648 0.6455-1.1311 0-1.9247-0.44416v-1.593q0.97121 0.63366 1.7825 0.63366 0.46192 0 0.69288-0.25465 0.23688-0.25465 0.23688-0.69288 0-0.43231-0.27834-0.78764-0.27833-0.36125-0.91792-0.79948-0.55667-0.38493-0.84685-0.73434-0.28426-0.35532-0.44416-0.79356-0.15397-0.43823-0.15397-1.0186 0-1.1133 0.6159-1.7648 0.62181-0.65143 1.6641-0.65143 0.9949 0 1.9128 0.55667l-0.53298 1.291q-0.28426-0.16582-0.59813-0.2961-0.30795-0.13028-0.66327-0.13028-0.39086 0-0.60405 0.26057-0.20728 0.25465-0.20728 0.6988 0 0.43823 0.24873 0.76395 0.25465 0.32571 0.88239 0.74026 0.84685 0.56852 1.1785 1.1607 0.33756 0.59221 0.33756 1.3502z" />
    </g>
  </g>
  <g
     id="layer4"
     opacity=".6">
    <g
       id="text4206">
      <path
         id="path4722"
         d="m70.334 78.02q-0.56934 0-0.90234-0.13428v-1.2729q0.34912 0.10742 0.66064 0.10742 0.4458 0 0.6499-0.28467 0.20947-0.28467 0.20947-0.84863v-7.686h1.4609v7.6108q0 0.77344-0.26318 1.3428-0.25781 0.56934-0.73584 0.86475-0.47266 0.30078-1.0796 0.30078z" />
      <path
         id="path4724"
         d="m76.957 75.754-0.17725-0.76807h-0.07519q-0.19873 0.4082-0.56934 0.64453-0.36523 0.23096-0.83789 0.23096-0.80566 0-1.2192-0.54785-0.41357-0.54785-0.41357-1.6382v-3.9048h1.4448v3.561q0 0.65527 0.15576 0.98828t0.50488 0.33301q0.46191 0 0.67139-0.46191 0.21484-0.46191 0.21484-1.5522v-2.8682h1.4448v5.9834h-1.144z" />
      <path
         id="path4726"
         d="m82.29 75.754v-3.5664q0-0.6499-0.15576-0.98291t-0.50488-0.33301q-0.46191 0-0.67676 0.46191-0.21484 0.45654-0.21484 1.5469v2.8735h-1.4287v-5.9834h1.1333l0.17188 0.76807h0.09131q0.19336-0.41357 0.55322-0.64453 0.35986-0.23633 0.84326-0.23633 0.81641 0 1.2192 0.55859 0.4082 0.55859 0.4082 1.6328v3.9048h-1.4395z" />
      <path
         id="path4728"
         d="m87.103 75.861q-1.1226 0-1.7725-0.79492-0.64453-0.80029-0.64453-2.2612 0-1.4824 0.58545-2.3149 0.58545-0.83252 1.6328-0.83252 0.97754 0 1.5415 0.71436 0.56396 0.70898 0.56396 1.9927v0.7627h-2.8735q0.01611 0.80029 0.32764 1.1924 0.31152 0.38672 0.85938 0.38672 0.69824 0 1.4287-0.43506v1.1763q-0.6875 0.41357-1.6489 0.41357zm-0.20947-5.1025q-0.30615 0-0.50488 0.32764-0.19873 0.32226-0.23096 1.0044h1.4502q-0.01074-0.65527-0.19873-0.99365t-0.51562-0.33838z" />
      <path
         id="path4730"
         d="m96.695 75.754h-4.2109v-1.0903l1.3965-1.9766q0.57471-0.81641 0.78955-1.2085 0.21484-0.39746 0.31689-0.75732 0.10205-0.36523 0.10205-0.75195 0-0.45117-0.2041-0.67676-0.19873-0.22559-0.521-0.22559-0.28467 0-0.53174 0.15039t-0.60156 0.54248l-0.81641-0.85938q0.56396-0.63916 1.0474-0.87549 0.4834-0.23633 1.0474-0.23633 0.95068 0 1.4824 0.55859 0.53711 0.55859 0.53711 1.5522 0 0.45117-0.09668 0.854t-0.29541 0.81104q-0.19336 0.40283-0.48877 0.84326-0.29541 0.43506-1.5254 2.0034v0.04297h2.5728v1.2998z" />
      <path
         id="path4732"
         d="m101.63 69.668q0 0.74121-0.36524 1.2461-0.36523 0.49951-1.0312 0.69287v0.04297q0.74121 0.11816 1.144 0.58008 0.4082 0.46191 0.4082 1.2568 0 1.085-0.67676 1.7295-0.67138 0.64453-1.8423 0.64453-1.042 0-1.751-0.3706v-1.3105q0.35449 0.21484 0.76807 0.33838 0.41357 0.12354 0.79492 0.12354 0.62305 0 0.93994-0.28467 0.31689-0.29004 0.31689-0.91309 0-1.1763-1.4448-1.1763h-0.4458v-1.0903h0.42432q0.63916 0 0.97754-0.30078 0.34376-0.30078 0.34376-0.89697 0-0.46728-0.22022-0.70361-0.21484-0.2417-0.6123-0.2417-0.60693 0-1.1816 0.51562l-0.656-0.967q0.79492-0.79492 2.0034-0.79492 0.99365 0 1.5522 0.50488 0.5586 0.49951 0.5586 1.375z" />
      <path
         id="path4734"
         d="m102.66 73.433v-1.2568h2.7017v1.2568h-2.7017z" />
      <path
         id="path4736"
         d="m110.36 75.754h-4.2109v-1.0903l1.3965-1.9766q0.57471-0.81641 0.78955-1.2085 0.21485-0.39746 0.3169-0.75732 0.10205-0.36523 0.10205-0.75195 0-0.45117-0.2041-0.67676-0.19873-0.22559-0.521-0.22559-0.28467 0-0.53174 0.15039t-0.60156 0.54248l-0.81641-0.85938q0.56397-0.63916 1.0474-0.87549 0.4834-0.23633 1.0474-0.23633 0.95068 0 1.4824 0.55859 0.53711 0.55859 0.53711 1.5522 0 0.45117-0.0967 0.854t-0.29541 0.81104q-0.19336 0.40283-0.48877 0.84326-0.29541 0.43506-1.5254 2.0034v0.04297h2.5728v1.2998z" />
      <path
         id="path4738"
         d="m113.53 70.839q0.88623 0 1.4072 0.61768 0.52636 0.61768 0.52636 1.6919 0 1.2837-0.65527 1.998-0.6499 0.71436-1.8101 0.71436-1.0312 0-1.6704-0.39209v-1.3643q0.27393 0.19873 0.70362 0.35449 0.43505 0.15039 0.80566 0.15039 1.1548 0 1.1548-1.3428 0-1.2515-1.1226-1.2515-0.4458 0-0.94532 0.17188l-0.47265-0.34912 0.2417-3.937h3.3516v1.3052h-2.1001l-0.10742 1.6973q0.30078-0.06445 0.69287-0.06445z" />
      <path
         id="path4740"
         d="m118.24 74.599q-0.2793 1.085-0.94531 2.5728h-1.0903q0.34912-1.4287 0.54248-2.6963h1.418l0.0752 0.12354z" />
      <path
         id="path4742"
         d="m126.24 75.754h-4.2109v-1.0903l1.3965-1.9766q0.5747-0.81641 0.78955-1.2085 0.21484-0.39746 0.31689-0.75732 0.10205-0.36523 0.10205-0.75195 0-0.45117-0.2041-0.67676-0.19873-0.22559-0.521-0.22559-0.28466 0-0.53173 0.15039t-0.60157 0.54248l-0.8164-0.85938q0.56396-0.63916 1.0474-0.87549 0.4834-0.23633 1.0474-0.23633 0.95069 0 1.4824 0.55859 0.5371 0.55859 0.5371 1.5522 0 0.45117-0.0967 0.854t-0.29542 0.81104q-0.19335 0.40283-0.48876 0.84326-0.29541 0.43506-1.5254 2.0034v0.04297h2.5728v1.2998z" />
      <path
         id="path4744"
         d="m131.41 71.828q0 2.1323-0.51562 3.083-0.51026 0.95068-1.6489 0.95068-1.1387 0-1.6382-0.95606-0.49414-0.95605-0.49414-3.0776 0-2.127 0.52099-3.0884 0.521-0.96143 1.6328-0.96143 1.1333 0 1.6382 0.93994 0.50488 0.93994 0.50488 3.1099zm-2.8359 0q0 1.6489 0.13964 2.2236 0.14502 0.56934 0.54248 0.56934 0.26856 0 0.41358-0.24707 0.15039-0.24707 0.21484-0.81641 0.0645-0.57471 0.0645-1.7295 0-1.6221-0.1504-2.2129-0.15039-0.59082-0.54248-0.59082-0.39746 0-0.54248 0.59082-0.13964 0.58545-0.13964 2.2129z" />
      <path
         id="path4746"
         d="m135.73 75.754h-1.4394v-4.6084q0-0.75195 0.0752-1.7295-0.0376 0.05371-0.27929 0.32764-0.23633 0.27393-0.9292 0.98291l-0.81641-0.8916 2.0894-1.9336h1.2998v7.8525z" />
      <path
         id="path4748"
         d="m137.87 75.754 2.2022-6.5474h-2.7393v-1.2944h4.2109v0.98828l-2.1646 6.8535h-1.5093z" />
      <path
         id="path4750"
         d="m39.601 81.651v5.0811q0 1.4019-0.63379 2.1431-0.63379 0.73584-1.8315 0.73584-1.1709 0-1.7832-0.73047-0.6123-0.73584-0.6123-2.1699v-5.0596h1.4502v5.167q0 1.4985 0.99365 1.4985 0.46191 0 0.71436-0.38135 0.25244-0.38135 0.25244-1.085v-5.1992h1.4502z" />
      <path
         id="path4752"
         d="m43.855 89.504v-3.5664q0-0.6499-0.15576-0.98291t-0.50488-0.33301q-0.46191 0-0.67676 0.46191-0.21484 0.45654-0.21484 1.5469v2.8735h-1.4287v-5.9834h1.1333l0.17188 0.76807h0.09131q0.19336-0.41357 0.55322-0.64453 0.35986-0.23633 0.84326-0.23633 0.81641 0 1.2192 0.55859 0.4082 0.55859 0.4082 1.6328v3.9048h-1.4395z" />
      <path
         id="path4754"
         d="m47.899 89.504h-1.4287v-5.9834h1.4287v5.9834zm-1.4878-7.5464q0-0.35449 0.2041-0.55859 0.20947-0.20947 0.58008-0.20947 0.34912 0 0.55859 0.20947 0.20947 0.2041 0.20947 0.55859 0 0.36524-0.21484 0.56934-0.21484 0.19873-0.55322 0.19873-0.35449 0-0.56934-0.19873-0.21484-0.2041-0.21484-0.56934z" />
      <path
         id="path4756"
         d="m50.08 89.504-1.563-5.9834h1.4824l0.7627 3.4644q0.04834 0.2417 0.11279 0.70898 0.06982 0.46191 0.08594 0.66602h0.02148q0.0054-0.16113 0.04297-0.46191 0.04297-0.30078 0.08594-0.55322t0.82715-3.8242h1.4824l-1.5684 5.9834h-1.7725z" />
      <path
         id="path4758"
         d="m56.23 89.611q-1.1226 0-1.7725-0.79492-0.64453-0.80029-0.64453-2.2612 0-1.4824 0.58545-2.3149 0.58545-0.83252 1.6328-0.83252 0.97754 0 1.5415 0.71436 0.56396 0.70898 0.56396 1.9927v0.7627h-2.8735q0.01611 0.80029 0.32764 1.1924 0.31152 0.38672 0.85938 0.38672 0.69824 0 1.4287-0.43506v1.1763q-0.6875 0.41357-1.6489 0.41357zm-0.21-5.102q-0.30615 0-0.50488 0.32764-0.19873 0.32226-0.23096 1.0044h1.4502q-0.01074-0.65527-0.19873-0.99365t-0.51562-0.33838z" />
      <path
         id="path4760"
         d="m61.644 83.408q0.26318 0 0.51562 0.08057l-0.1665 1.3857q-0.15039-0.05371-0.39209-0.05371-0.521 0-0.80029 0.41358-0.2793 0.4082-0.2793 1.1924v3.0776h-1.4287v-5.9834h1.1763l0.16113 0.93457h0.04834q0.23633-0.56396 0.51562-0.80566 0.2793-0.2417 0.6499-0.2417z" />
      <path
         id="path4762"
         d="m66.021 87.753q0 0.87549-0.51562 1.3696-0.51025 0.48877-1.5093 0.48877-0.88623 0-1.4663-0.34912v-1.2407q0.29541 0.2041 0.6875 0.33838 0.39746 0.13428 0.69824 0.13428 0.33301 0 0.50488-0.16113 0.17725-0.1665 0.17725-0.43506 0-0.27393-0.18262-0.47803t-0.67139-0.49951q-0.6499-0.38672-0.93457-0.82178-0.2793-0.44043-0.2793-1.0366 0-0.7627 0.521-1.2085 0.52637-0.4458 1.4395-0.4458 0.79492 0 1.4985 0.41894l-0.46728 1.0259q-0.57471-0.31152-1.0098-0.31152-0.27393 0-0.41357 0.14502-0.13428 0.14502-0.13428 0.35449 0 0.2417 0.1665 0.42969 0.17188 0.18799 0.63379 0.46728 0.55859 0.33838 0.78418 0.57471t0.34912 0.53711q0.12354 0.30078 0.12354 0.70361z" />
      <path
         id="path4764"
         d="m68.374 89.504h-1.4287v-5.9834h1.4287v5.9834zm-1.4878-7.5464q0-0.35449 0.2041-0.55859 0.20947-0.20947 0.58008-0.20947 0.34912 0 0.55859 0.20947 0.20947 0.2041 0.20947 0.55859 0 0.36524-0.21484 0.56934-0.21484 0.19873-0.55322 0.19873-0.35449 0-0.56934-0.19873-0.21484-0.2041-0.21484-0.56934z" />
      <path
         id="path4766"
         d="m71.677 88.403q0.30078 0 0.6499-0.15039v1.1172q-0.34912 0.2417-1.0474 0.2417-0.77881 0-1.1548-0.46191-0.37598-0.46728-0.37598-1.3965v-3.0991h-0.58008v-0.63916l0.74658-0.51562 0.36523-1.2676h0.91309v1.2891h1.085v1.1333h-1.085v3.1475q0 0.60156 0.4834 0.60156z" />
      <path
         id="path4768"
         d="m72.558 83.52h1.4824l0.82715 3.3784q0.12354 0.45117 0.19873 1.2622h0.03223q0.0054-0.12891 0.04834-0.45654 0.04297-0.33301 0.06982-0.521 0.02686-0.18799 0.74121-3.6631h1.5039l-1.7134 6.4131q-0.31152 1.1816-0.82715 1.6973-0.51562 0.51562-1.375 0.51562-0.42432 0-0.75732-0.09131v-1.1978q0.22022 0.06445 0.49414 0.06445 0.71973 0 0.94531-0.94531l0.10205-0.37598-1.7725-6.0801z" />
      <path
         id="path4770"
         d="m85.223 86.501q0 1.4717-0.62305 2.2935-0.62305 0.81641-1.708 0.81641-0.6875 0-1.2139-0.37598-0.52637-0.37598-0.81104-1.0796-0.28467-0.70898-0.28467-1.6543 0-1.4556 0.61768-2.272 0.61768-0.82178 1.7134-0.82178 1.0581 0 1.6812 0.83789 0.62842 0.83252 0.62842 2.2559zm-3.1797 0q0 0.93457 0.2041 1.4126t0.65527 0.47803q0.85938 0 0.85938-1.8906 0-0.93994-0.20947-1.4019-0.2041-0.46728-0.6499-0.46728-0.45117 0-0.65527 0.46728-0.2041 0.46191-0.2041 1.4019z" />
      <path
         id="path4772"
         d="m88.886 84.654h-0.98828v4.8501h-1.4287v-4.8501h-0.69287v-0.71436l0.69287-0.42969v-0.45117q0-0.99902 0.41357-1.4824 0.41357-0.48877 1.332-0.48877 0.58008 0 1.0796 0.2417l-0.37598 1.0903q-0.26855-0.12891-0.54785-0.12891-0.24707 0-0.35986 0.19336t-0.11279 0.59619v0.44043h0.98828v1.1333z" />
      <path
         id="path4774"
         d="m98.838 89.504h-1.8262l-0.76807-4.1143q-0.177-0.844-0.252-1.993l-0.04297 0.39746-0.22022 1.6167-0.74658 4.0928h-1.8262l-1.4233-7.8525h1.4341l0.70361 4.4312q0.10205 0.66602 0.27392 2.0894 0.13428-1.4395 0.25244-2.0571l0.83789-4.4634h1.5146l0.83789 4.4634q0.1665 0.99365 0.26318 2.0679 0.18799-1.5898 0.27393-2.1001l0.68213-4.4312h1.4448l-1.4126 7.8525z" />
      <path
         id="path4776"
         d="m103.73 89.504-0.28466-0.81641h-0.0322q-0.31689 0.52637-0.65527 0.7251t-0.85401 0.19873q-0.66064 0-1.042-0.49414-0.37598-0.49414-0.37598-1.375 0-0.94531 0.51563-1.4019 0.521-0.46191 1.5522-0.51025l0.79492-0.03223v-0.42969q0-0.83789-0.7251-0.83789-0.53711 0-1.2354 0.41895l-0.49414-0.98828q0.8916-0.56396 1.939-0.56396 0.95069 0 1.4448 0.54785 0.49951 0.54248 0.49951 1.5415v4.0176h-1.0474zm-1.2407-1.0098q0.39209 0 0.62305-0.34912 0.23633-0.35449 0.23633-0.93994v-0.50488l-0.44043 0.02148q-0.48877 0.02685-0.71973 0.2793-0.22559 0.25244-0.22559 0.75195 0 0.74121 0.52637 0.74121z" />
      <path
         id="path4778"
         d="m109.14 87.753q0 0.87549-0.51563 1.3696-0.51025 0.48877-1.5093 0.48877-0.88623 0-1.4663-0.34912v-1.2407q0.29541 0.2041 0.6875 0.33838 0.39746 0.13428 0.69824 0.13428 0.33301 0 0.50488-0.16113 0.17725-0.1665 0.17725-0.43506 0-0.27393-0.18262-0.47803t-0.67139-0.49951q-0.6499-0.38672-0.93457-0.82178-0.27929-0.44043-0.27929-1.0366 0-0.7627 0.52099-1.2085 0.52637-0.4458 1.4395-0.4458 0.79492 0 1.4985 0.41894l-0.46728 1.0259q-0.57471-0.31152-1.0098-0.31152-0.27393 0-0.41357 0.14502-0.13428 0.14502-0.13428 0.35449 0 0.2417 0.1665 0.42969 0.17188 0.18799 0.63379 0.46728 0.5586 0.33838 0.78418 0.57471 0.22559 0.23633 0.34912 0.53711 0.12354 0.30078 0.12354 0.70361z" />
      <path
         id="path4780"
         d="m113.03 89.504v-3.5664q0-1.3159-0.66064-1.3159-0.49414 0-0.69288 0.521-0.19873 0.51562-0.19873 1.4878v2.8735h-1.4287v-8.3574h1.4287v1.8584q0 0.35986-0.0645 1.2837h0.0752q0.42968-0.88086 1.3213-0.88086 0.82177 0 1.2407 0.55859 0.41894 0.55322 0.41894 1.6328v3.9048h-1.4394z" />
      <path
         id="path4782"
         d="m117.08 89.504h-1.4287v-5.9834h1.4287v5.9834zm-1.4878-7.5464q0-0.35449 0.2041-0.55859 0.20948-0.20947 0.58008-0.20947 0.34912 0 0.55859 0.20947 0.20948 0.2041 0.20948 0.55859 0 0.36524-0.21485 0.56934-0.21484 0.19873-0.55322 0.19873-0.35449 0-0.56934-0.19873-0.21484-0.2041-0.21484-0.56934z" />
      <path
         id="path4784"
         d="m121.28 89.504v-3.5664q0-0.6499-0.15576-0.98291t-0.50488-0.33301q-0.46192 0-0.67676 0.46191-0.21485 0.45654-0.21485 1.5469v2.8735h-1.4287v-5.9834h1.1333l0.17188 0.76807h0.0913q0.19336-0.41357 0.55322-0.64453 0.35986-0.23633 0.84326-0.23633 0.81641 0 1.2192 0.55859 0.4082 0.55859 0.4082 1.6328v3.9048h-1.4394z" />
      <path
         id="path4786"
         d="m128.2 83.531v0.83789l-0.71436 0.16113q0.20948 0.37598 0.20948 0.94531 0 0.95068-0.51563 1.4878-0.51562 0.53711-1.4394 0.53711-0.26856 0-0.39746-0.04297-0.10205 0.09131-0.19336 0.2041-0.0913 0.11279-0.0913 0.2793 0 0.37598 0.6499 0.37598h0.86475q0.76269 0 1.1709 0.41358 0.41358 0.4082 0.41358 1.2354 0 1.042-0.69824 1.6113-0.69825 0.56934-2.0088 0.56934-0.99365 0-1.5308-0.43506-0.53711-0.42969-0.53711-1.23 0-0.49951 0.30615-0.88086 0.30615-0.37598 0.84863-0.54785-0.27392-0.10742-0.45117-0.33301-0.17187-0.22558-0.17187-0.52637 0-0.18262 0.0537-0.32764 0.0537-0.15039 0.15039-0.2793 0.10205-0.13428 0.4082-0.39209-0.37061-0.22559-0.58545-0.69287t-0.21484-1.0366q0-0.98291 0.51562-1.52 0.51563-0.53711 1.477-0.53711 0.18262 0 0.41895 0.04297 0.23633 0.0376 0.35986 0.08057h1.7026zm-3.5181 6.8428q0 0.35449 0.22022 0.54248 0.22558 0.19336 0.63916 0.19336 0.6499 0 0.97216-0.24707 0.32764-0.24707 0.32764-0.67676 0-0.33838-0.17724-0.47803-0.17188-0.13965-0.64991-0.13965h-0.69287q-0.29004 0-0.46728 0.21484-0.17188 0.22022-0.17188 0.59082zm0.44043-4.8984q0 1.0581 0.59619 1.0581 0.58008 0 0.58008-1.0688 0-1.0957-0.58008-1.0957-0.59619 0-0.59619 1.1064z" />
      <path
         id="path4788"
         d="m131 88.403q0.30078 0 0.6499-0.15039v1.1172q-0.34912 0.2417-1.0474 0.2417-0.77881 0-1.1548-0.46191-0.37597-0.46728-0.37597-1.3965v-3.0991h-0.58008v-0.63916l0.74658-0.51562 0.36523-1.2676h0.91309v1.2891h1.085v1.1333h-1.085v3.1475q0 0.60156 0.4834 0.60156z" />
      <path
         id="path4790"
         d="m136.91 86.501q0 1.4717-0.62304 2.2935-0.62305 0.81641-1.708 0.81641-0.6875 0-1.2139-0.37598-0.52637-0.37598-0.81103-1.0796-0.28467-0.70898-0.28467-1.6543 0-1.4556 0.61767-2.272 0.61768-0.82178 1.7134-0.82178 1.0581 0 1.6812 0.83789 0.62841 0.83252 0.62841 2.2559zm-3.1797 0q0 0.93457 0.2041 1.4126t0.65527 0.47803q0.85938 0 0.85938-1.8906 0-0.93994-0.20948-1.4019-0.2041-0.46728-0.6499-0.46728-0.45117 0-0.65527 0.46728-0.2041 0.46191-0.2041 1.4019z" />
      <path
         id="path4792"
         d="m140.9 89.504v-3.5664q0-0.6499-0.15576-0.98291t-0.50488-0.33301q-0.46191 0-0.67676 0.46191-0.21484 0.45654-0.21484 1.5469v2.8735h-1.4287v-5.9834h1.1333l0.17187 0.76807h0.0913q0.19336-0.41357 0.55322-0.64453 0.35987-0.23633 0.84327-0.23633 0.8164 0 1.2192 0.55859 0.40821 0.55859 0.40821 1.6328v3.9048h-1.4395z" />
      <path
         id="path4794"
         d="m145.21 88.349q-0.2793 1.085-0.94531 2.5728h-1.0903q0.34912-1.4287 0.54248-2.6963h1.418l0.0752 0.12354z" />
      <path
         id="path4796"
         d="m152.86 87.339q0 1.1011-0.55859 1.6865-0.55323 0.58545-1.6006 0.58545-1.0259 0-1.7456-0.40283v-1.4448q0.88085 0.57471 1.6167 0.57471 0.41895 0 0.62842-0.23096 0.21485-0.23096 0.21485-0.62842 0-0.39209-0.25245-0.71436-0.25244-0.32764-0.83251-0.7251-0.50489-0.34912-0.76807-0.66602-0.25781-0.32227-0.40283-0.71973-0.13965-0.39746-0.13965-0.92383 0-1.0098 0.55859-1.6006 0.56397-0.59082 1.5093-0.59082 0.90234 0 1.7349 0.50488l-0.4834 1.1709q-0.25781-0.15039-0.54248-0.26855-0.27929-0.11816-0.60156-0.11816-0.35449 0-0.54785 0.23633-0.18799 0.23096-0.18799 0.63379 0 0.39746 0.22559 0.69287 0.23095 0.29541 0.80029 0.67139 0.76807 0.51562 1.0688 1.0527 0.30615 0.53711 0.30615 1.2246z" />
      <path
         id="path4798"
         d="m155.96 89.611q-1.1226 0-1.7725-0.79492-0.64453-0.80029-0.64453-2.2612 0-1.4824 0.58545-2.3149 0.58545-0.83252 1.6328-0.83252 0.97754 0 1.5415 0.71436 0.56397 0.70898 0.56397 1.9927v0.7627h-2.8735q0.0161 0.80029 0.32764 1.1924 0.31152 0.38672 0.85938 0.38672 0.69824 0 1.4287-0.43506v1.1763q-0.6875 0.41357-1.6489 0.41357zm-0.20947-5.1025q-0.30615 0-0.50488 0.32764-0.19873 0.32226-0.23096 1.0044h1.4502q-0.0107-0.65527-0.19873-0.99365-0.18798-0.33838-0.51562-0.33838z" />
      <path
         id="path4800"
         d="m161.76 89.504-0.28467-0.81641h-0.0322q-0.3169 0.52637-0.65528 0.7251t-0.854 0.19873q-0.66064 0-1.042-0.49414-0.37598-0.49414-0.37598-1.375 0-0.94531 0.51563-1.4019 0.52099-0.46191 1.5522-0.51025l0.79492-0.03223v-0.42969q0-0.83789-0.72509-0.83789-0.53711 0-1.2354 0.41895l-0.49414-0.98828q0.89161-0.56396 1.939-0.56396 0.95068 0 1.4448 0.54785 0.49951 0.54248 0.49951 1.5415v4.0176h-1.0474zm-1.2407-1.0098q0.39209 0 0.62305-0.34912 0.23632-0.35449 0.23632-0.93994v-0.50488l-0.44043 0.02148q-0.48877 0.02685-0.71972 0.2793-0.22559 0.25244-0.22559 0.75195 0 0.74121 0.52637 0.74121z" />
      <path
         id="path4802"
         d="m166.04 88.403q0.30078 0 0.64991-0.15039v1.1172q-0.34913 0.2417-1.0474 0.2417-0.77881 0-1.1548-0.46191-0.37598-0.46728-0.37598-1.3965v-3.0991h-0.58008v-0.63916l0.74658-0.51562 0.36524-1.2676h0.91308v1.2891h1.085v1.1333h-1.085v3.1475q0 0.60156 0.4834 0.60156z" />
      <path
         id="path4804"
         d="m169.6 88.403q0.30078 0 0.6499-0.15039v1.1172q-0.34912 0.2417-1.0474 0.2417-0.77881 0-1.1548-0.46191-0.37597-0.46728-0.37597-1.3965v-3.0991h-0.58008v-0.63916l0.74658-0.51562 0.36524-1.2676h0.91308v1.2891h1.085v1.1333h-1.085v3.1475q0 0.60156 0.4834 0.60156z" />
      <path
         id="path4806"
         d="m172.52 89.504h-1.4287v-8.3574h1.4287v8.3574z" />
      <path
         id="path4808"
         d="m175.92 89.611q-1.1226 0-1.7725-0.79492-0.64453-0.80029-0.64453-2.2612 0-1.4824 0.58545-2.3149 0.58545-0.83252 1.6328-0.83252 0.97753 0 1.5415 0.71436 0.56396 0.70898 0.56396 1.9927v0.7627h-2.8735q0.0161 0.80029 0.32764 1.1924 0.31152 0.38672 0.85937 0.38672 0.69824 0 1.4287-0.43506v1.1763q-0.6875 0.41357-1.6489 0.41357zm-0.20948-5.1025q-0.30615 0-0.50488 0.32764-0.19873 0.32226-0.23096 1.0044h1.4502q-0.0107-0.65527-0.19873-0.99365-0.18799-0.33838-0.51563-0.33838z" />
    </g>
  </g>
  <g
     id="layer5">
    <g
       id="text4216"
       fill="#fff">
      <path
         id="path4896"
         d="m108.35 146.46h-9.3252v-2.2852l3.1377-3.1729q1.3447-1.4062 1.7578-1.916 0.41308-0.51856 0.57129-0.8877 0.16699-0.36914 0.16699-0.77343 0-0.50098-0.3252-0.79102-0.32519-0.29004-0.91406-0.29004-0.60644 0-1.2305 0.35156-0.61523 0.34278-1.3975 1.0195l-1.9072-2.2324q0.99316-0.88769 1.6699-1.2656 0.67676-0.38672 1.4678-0.58887 0.79981-0.20215 1.793-0.20215 1.248 0 2.2236 0.43946 0.98438 0.43945 1.5205 1.2568 0.54492 0.8086 0.54492 1.8193 0 0.75586-0.19336 1.3975-0.18457 0.6416-0.58007 1.2656-0.39551 0.61524-1.0547 1.3008-0.65039 0.68555-2.7861 2.6016v0.0879h4.8604v2.8652z" />
      <path
         id="path4898"
         d="m118.95 140.06q0 3.4102-1.1426 5.001-1.1426 1.582-3.498 1.582-2.3027 0-3.4717-1.6523-1.1689-1.6611-1.1689-4.9307 0-3.4277 1.1426-5.0274 1.1426-1.5996 3.498-1.5996 2.294 0 3.4629 1.6699 1.1777 1.6611 1.1777 4.957zm-5.8272 0q0 2.1797 0.27246 2.9971 0.27246 0.81738 0.91406 0.81738 0.65039 0 0.91406-0.84375 0.27246-0.84375 0.27246-2.9707 0-2.1358-0.27246-2.9883-0.27246-0.86132-0.91406-0.86132t-0.91406 0.82617-0.27246 3.0234z" />
      <path
         id="path4900"
         d="m127.86 146.46h-3.5244v-6.8027q0-1.2393 0.0527-2.2676-0.3252 0.39551-0.8086 0.82617l-1.459 1.2041-1.8018-2.2148 4.4121-3.5947h3.1289v12.85z" />
      <path
         id="path4902"
         d="m131.97 146.46 4.4121-9.958h-5.5635v-2.874h9.2725v2.0478l-4.5264 10.784h-3.5947z" />
      <path
         id="path4904"
         d="m146.74 146.46v-12.85h3.4717v10.046h4.9482v2.8037h-8.4199z" />
      <path
         id="path4906"
         d="m165.1 146.46-0.63281-2.4082h-4.1748l-0.65039 2.4082h-3.8145l4.1924-12.902h4.6318l4.2451 12.902h-3.7969zm-1.3535-5.2559-0.55371-2.1094q-0.19336-0.70313-0.47461-1.8193-0.27246-1.1162-0.36035-1.5996-0.0791 0.44824-0.31641 1.4766-0.22852 1.0283-1.0283 4.0518h2.7334z" />
      <path
         id="path4908"
         d="m184.17 146.46h-4.1045l-1.2305-5.5986q-0.0879-0.35156-0.28125-1.3975-0.18457-1.0459-0.27246-1.749-0.0703 0.57128-0.22852 1.4238-0.1582 0.84375-0.31641 1.5557-0.14941 0.71191-1.2744 5.7656h-4.1045l-3.1816-12.85h3.3486l1.3975 6.4424q0.47461 2.1357 0.65039 3.4014 0.11426-0.89648 0.4043-2.4346 0.29883-1.5381 0.55371-2.5488l1.1338-4.8604h3.2168l1.0986 4.8604q0.28125 1.169 0.57129 2.6982 0.29004 1.5293 0.38672 2.2852 0.11425-0.97558 0.62402-3.3838l1.4238-6.46h3.3486l-3.1641 12.85z" />
      <path
         id="path4910"
         d="m194.72 136.28q-1.2392 0-1.9336 1.0195-0.69434 1.0107-0.69434 2.7949 0 3.709 2.8213 3.709 0.85254 0 1.6524-0.23731 0.7998-0.2373 1.6084-0.57129v2.9356q-1.6084 0.71191-3.6387 0.71191-2.9092 0-4.4648-1.6875-1.5469-1.6875-1.5469-4.8779 0-1.9951 0.74707-3.5068 0.75586-1.5117 2.1621-2.3203 1.415-0.81739 3.3223-0.81739 2.083 0 3.9814 0.90528l-1.0635 2.7334q-0.71192-0.33398-1.4238-0.5625-0.71191-0.22851-1.5293-0.22851z" />
      <path
         id="path4912"
         d="m211.68 146.46h-3.4892v-5.2383h-4.0342v5.2383h-3.4893v-12.85h3.4893v4.7637h4.0342v-4.7637h3.4892v12.85z" />
      <path
         id="path4914"
         d="m222.34 146.46-0.63281-2.4082h-4.1748l-0.65039 2.4082h-3.8144l4.1924-12.902h4.6318l4.2451 12.902h-3.7969zm-1.3535-5.2559-0.55371-2.1094q-0.19336-0.70313-0.47461-1.8193-0.27246-1.1162-0.36035-1.5996-0.0791 0.44824-0.31641 1.4766-0.22851 1.0283-1.0283 4.0518h2.7334z" />
      <path
         id="path4916"
         d="m237.93 136.28q-1.2392 0-1.9336 1.0195-0.69433 1.0107-0.69433 2.7949 0 3.709 2.8213 3.709 0.85254 0 1.6524-0.23731 0.7998-0.2373 1.6084-0.57129v2.9356q-1.6084 0.71191-3.6387 0.71191-2.9092 0-4.4648-1.6875-1.5469-1.6875-1.5469-4.8779 0-1.9951 0.74707-3.5068 0.75586-1.5117 2.1621-2.3203 1.415-0.81739 3.3223-0.81739 2.083 0 3.9814 0.90528l-1.0635 2.7334q-0.71191-0.33398-1.4238-0.5625-0.71191-0.22851-1.5293-0.22851z" />
      <path
         id="path4918"
         d="m253.19 141.46q0 2.4434-1.3184 3.8144-1.3096 1.3623-3.6738 1.3623-2.2676 0-3.6123-1.3975-1.3359-1.3975-1.3359-3.7793 0-2.4346 1.3096-3.7793 1.3184-1.3535 3.6914-1.3535 1.4678 0 2.5928 0.62403 1.125 0.62402 1.7314 1.793 0.61524 1.1602 0.61524 2.7158zm-6.4512 0q0 1.2832 0.34277 1.96 0.34277 0.66797 1.1514 0.66797 0.7998 0 1.125-0.66797 0.33398-0.67676 0.33398-1.96 0-1.2744-0.33398-1.9248-0.33399-0.65039-1.1426-0.65039-0.79102 0-1.1338 0.65039-0.34277 0.6416-0.34277 1.9248z" />
      <path
         id="path4920"
         d="m261.42 146.46v-5.4316q0-0.99316-0.29004-1.4941-0.28125-0.50976-0.91406-0.50976-0.87012 0-1.2568 0.69433-0.38672 0.69434-0.38672 2.3818v4.3594h-3.4365v-9.958h2.5928l0.43067 1.2305h0.20215q0.43945-0.70312 1.2129-1.0547 0.78222-0.35157 1.793-0.35157 1.6524 0 2.5664 0.95801 0.92285 0.95801 0.92285 2.6982v6.4775h-3.4365z" />
      <path
         id="path4922"
         d="m273.28 139.08h-2.1182v7.3828h-3.4365v-7.3828h-1.3184v-1.6875l1.3887-0.84375v-0.16699q0-1.9688 0.7998-2.8301 0.8086-0.86133 2.584-0.86133 0.68555 0 1.292 0.10547 0.61523 0.10547 1.4238 0.36914l-0.73828 2.2236q-0.63282-0.17578-1.2393-0.17578-0.39551 0-0.58008 0.2461-0.17578 0.2373-0.17578 0.78222v0.26367h2.1182v2.5752z" />
      <path
         id="path4924"
         d="m279.46 146.64q-2.4873 0-3.8672-1.3184-1.3711-1.3271-1.3711-3.7705 0-2.5225 1.2744-3.8672 1.2744-1.3535 3.6387-1.3535 2.25 0 3.4717 1.1777 1.2305 1.1689 1.2305 3.375v1.5293h-6.1436q0.0352 0.83497 0.60645 1.3096 0.58008 0.47461 1.5732 0.47461 0.90527 0 1.6611-0.16699 0.76465-0.17578 1.6524-0.58887v2.4697q-0.8086 0.41309-1.6699 0.57129-0.86133 0.1582-2.0566 0.1582zm-0.20215-7.9717q-0.60645 0-1.0195 0.38672-0.4043 0.37793-0.47461 1.1953h2.9531q-0.0176-0.72071-0.41308-1.1514-0.38672-0.43067-1.0459-0.43067z" />
      <path
         id="path4926"
         d="m291.81 136.33q0.44824 0 0.85254 0.0703l0.19336 0.0351-0.30762 3.2432q-0.42188-0.10547-1.169-0.10547-1.125 0-1.6348 0.51855-0.50977 0.50977-0.50977 1.4766v4.8955h-3.4365v-9.958h2.5576l0.53613 1.5908h0.16699q0.43067-0.79101 1.1953-1.2744 0.77344-0.49219 1.5557-0.49219z" />
      <path
         id="path4928"
         d="m299.04 146.64q-2.4873 0-3.8672-1.3184-1.3711-1.3271-1.3711-3.7705 0-2.5225 1.2744-3.8672 1.2744-1.3535 3.6387-1.3535 2.25 0 3.4717 1.1777 1.2305 1.1689 1.2305 3.375v1.5293h-6.1436q0.0352 0.83497 0.60645 1.3096 0.58008 0.47461 1.5732 0.47461 0.90528 0 1.6611-0.16699 0.76464-0.17578 1.6523-0.58887v2.4697q-0.80859 0.41309-1.6699 0.57129-0.86133 0.1582-2.0566 0.1582zm-0.20215-7.9717q-0.60645 0-1.0195 0.38672-0.4043 0.37793-0.47461 1.1953h2.9531q-0.0176-0.72071-0.41308-1.1514-0.38672-0.43067-1.0459-0.43067z" />
      <path
         id="path4930"
         d="m311.66 146.46v-5.4316q0-0.99316-0.29004-1.4941-0.28125-0.50976-0.91406-0.50976-0.87012 0-1.2568 0.69433-0.38672 0.69434-0.38672 2.3818v4.3594h-3.4365v-9.958h2.5928l0.43067 1.2305h0.20215q0.43945-0.70312 1.2129-1.0547 0.78222-0.35157 1.793-0.35157 1.6523 0 2.5664 0.95801 0.92285 0.95801 0.92285 2.6982v6.4775h-3.4365z" />
      <path
         id="path4932"
         d="m321.97 146.64q-2.4434 0-3.709-1.3184-1.2568-1.3184-1.2568-3.7881 0-2.4785 1.3623-3.8408t3.876-1.3623q1.7314 0 3.2607 0.75586l-1.0107 2.54q-0.62402-0.27246-1.1514-0.43066-0.52734-0.16699-1.0986-0.16699-0.83496 0-1.292 0.65039-0.45703 0.65039-0.45703 1.8369 0 2.3906 1.7666 2.3906 1.5117 0 2.9004-0.87891v2.7334q-1.3272 0.8789-3.1904 0.8789z" />
      <path
         id="path4934"
         d="m331.94 146.64q-2.4873 0-3.8672-1.3184-1.3711-1.3271-1.3711-3.7705 0-2.5225 1.2744-3.8672 1.2744-1.3535 3.6387-1.3535 2.25 0 3.4717 1.1777 1.2305 1.1689 1.2305 3.375v1.5293h-6.1436q0.0352 0.83497 0.60645 1.3096 0.58008 0.47461 1.5732 0.47461 0.90528 0 1.6611-0.16699 0.76464-0.17578 1.6523-0.58887v2.4697q-0.80859 0.41309-1.6699 0.57129-0.86133 0.1582-2.0566 0.1582zm-0.20215-7.9717q-0.60645 0-1.0195 0.38672-0.4043 0.37793-0.47461 1.1953h2.9531q-0.0176-0.72071-0.41308-1.1514-0.38672-0.43067-1.0459-0.43067z" />
    </g>
  </g>
</svg>
